<svg width="48" height="48" viewBox="0 0 48 48" fill="none" xmlns="http://www.w3.org/2000/svg">
<g clip-path="url(#clip0_8221_99055)">
<path d="M46.5082 32.346C47.473 29.7461 48.001 26.9339 48.001 23.9982C48.001 21.0625 47.473 18.2505 46.5082 15.6504L24.001 13.5635L1.49376 15.6504C0.52907 18.2505 0.000976562 21.0625 0.000976562 23.9982C0.000976562 26.9339 0.52907 29.7461 1.49376 32.346L24.001 34.433L46.5082 32.346Z" fill="white"/>
<path d="M24.0015 47.9989C34.3205 47.9989 43.1176 41.4859 46.5086 32.3467H1.49414C4.88527 41.4859 13.6822 47.9989 24.0015 47.9989Z" fill="#D80027"/>
<path d="M24.0005 0C13.6812 0 4.88429 6.513 1.49316 15.6522H46.5077C43.1167 6.513 34.3195 0 24.0005 0Z" fill="#D80027"/>
</g>
<defs>
<clipPath id="clip0_8221_99055">
<rect width="48" height="48" fill="white"/>
</clipPath>
</defs>
</svg>
