<svg width="640" height="640" viewBox="0 0 640 640" fill="none" xmlns="http://www.w3.org/2000/svg">
<path d="M319.529 324.989C479.861 324.99 610.512 385.186 610.511 459.249C610.511 533.313 480.136 593.505 319.526 593.504C159.194 593.503 28.5431 533.307 28.5438 459.244C28.5444 384.903 159.196 324.988 319.529 324.989Z" stroke="#C3F53C" stroke-width="1.5" stroke-miterlimit="22.4998" stroke-linecap="round"/>
<path d="M319.531 333.865C475.148 333.867 601.638 389.901 601.637 458.971C601.637 528.042 475.146 584.074 319.529 584.072C163.912 584.071 37.4221 528.037 37.4227 458.967C37.4233 389.896 163.914 333.864 319.531 333.865Z" stroke="#C3F53C" stroke-width="1.5" stroke-miterlimit="22.4998" stroke-linecap="round" stroke-dasharray="5.06 5.06"/>
<path d="M327.693 613.082L327.693 631.112" stroke="#C3F53C" stroke-width="1.49682" stroke-miterlimit="10"/>
<path d="M281.869 611.706L281.869 629.736" stroke="#C3F53C" stroke-width="1.49682" stroke-miterlimit="10"/>
<path d="M281.869 611.706L281.869 629.736" stroke="#C3F53C" stroke-width="1.49682" stroke-miterlimit="10"/>
<path d="M238.146 608.071L238.146 626.102" stroke="#C3F53C" stroke-width="1.49682" stroke-miterlimit="10"/>
<path d="M196.99 601.372L196.99 619.403" stroke="#C3F53C" stroke-width="1.49682" stroke-miterlimit="10"/>
<path d="M196.99 601.372L196.99 619.403" stroke="#C3F53C" stroke-width="1.49682" stroke-miterlimit="10"/>
<path d="M159.021 592.002L159.021 610.032" stroke="#C3F53C" stroke-width="1.49682" stroke-miterlimit="10"/>
<path d="M124.367 580.581L124.367 598.611" stroke="#C3F53C" stroke-width="1.49682" stroke-miterlimit="10"/>
<path d="M94.2246 567.052L94.2245 585.083" stroke="#C3F53C" stroke-width="1.49682" stroke-miterlimit="10"/>
<path d="M68.3691 552.531L68.369 570.561" stroke="#C3F53C" stroke-width="1.49682" stroke-miterlimit="10"/>
<path d="M47.4785 535.013L47.4784 553.044" stroke="#C3F53C" stroke-width="1.49682" stroke-miterlimit="10"/>
<path d="M32.166 517.352L32.1659 535.382" stroke="#C3F53C" stroke-width="1.49682" stroke-miterlimit="10"/>
<path d="M24 495.343L23.9999 513.374" stroke="#C3F53C" stroke-width="1.49682" stroke-miterlimit="10"/>
<path d="M27.9727 458.989L27.9725 477.019" stroke="#C3F53C" stroke-width="1.49682" stroke-miterlimit="10"/>
<path d="M57.1504 419.821L57.1503 437.851" stroke="#C3F53C" stroke-width="1.49682" stroke-miterlimit="10"/>
<path d="M80.8516 404.318L80.8514 422.348" stroke="#C3F53C" stroke-width="1.49682" stroke-miterlimit="10"/>
<path d="M108.941 390.046L108.941 408.077" stroke="#C3F53C" stroke-width="1.49682" stroke-miterlimit="10"/>
<path d="M141.766 376.202L141.766 394.232" stroke="#C3F53C" stroke-width="1.49682" stroke-miterlimit="10"/>
<path d="M177.734 366.505L177.734 384.535" stroke="#C3F53C" stroke-width="1.49682" stroke-miterlimit="10"/>
<path d="M217.346 358.752L217.346 376.782" stroke="#C3F53C" stroke-width="1.49682" stroke-miterlimit="10"/>
<path d="M259.998 352.78L259.998 370.811" stroke="#C3F53C" stroke-width="1.49682" stroke-miterlimit="10"/>
<path d="M310.967 350.37L310.967 368.401" stroke="#C3F53C" stroke-width="1.49682" stroke-miterlimit="10"/>
<path d="M363.283 352.59L363.283 370.62" stroke="#C3F53C" stroke-width="1.49682" stroke-miterlimit="10"/>
<path d="M407.588 357.028L407.588 375.059" stroke="#C3F53C" stroke-width="1.49682" stroke-miterlimit="10"/>
<path d="M448.436 364.039L448.435 382.069" stroke="#C3F53C" stroke-width="1.49682" stroke-miterlimit="10"/>
<path d="M486.262 373.118L486.262 391.148" stroke="#C3F53C" stroke-width="1.49682" stroke-miterlimit="10"/>
<path d="M519.607 384.885L519.607 402.915" stroke="#C3F53C" stroke-width="1.49682" stroke-miterlimit="10"/>
<path d="M549.652 398.109L549.652 416.139" stroke="#C3F53C" stroke-width="1.49682" stroke-miterlimit="10"/>
<path d="M574.596 414.419L574.596 432.45" stroke="#C3F53C" stroke-width="1.49682" stroke-miterlimit="10"/>
<path d="M615.998 484.916L615.998 502.946" stroke="#C3F53C" stroke-width="1.49682" stroke-miterlimit="10"/>
<path d="M610.422 510.064L610.422 528.095" stroke="#C3F53C" stroke-width="1.49682" stroke-miterlimit="10"/>
<path d="M597.961 528.286L597.961 546.316" stroke="#C3F53C" stroke-width="1.49682" stroke-miterlimit="10"/>
<path d="M579.635 546.225L579.635 564.255" stroke="#C3F53C" stroke-width="1.49682" stroke-miterlimit="10"/>
<path d="M555.383 562.219L555.383 580.249" stroke="#C3F53C" stroke-width="1.49682" stroke-miterlimit="10"/>
<path d="M526.205 576.019L526.205 594.049" stroke="#C3F53C" stroke-width="1.49682" stroke-miterlimit="10"/>
<path d="M492.982 588.989L492.982 607.02" stroke="#C3F53C" stroke-width="1.49682" stroke-miterlimit="10"/>
<path d="M456.242 598.525L456.242 616.556" stroke="#C3F53C" stroke-width="1.49682" stroke-miterlimit="10"/>
<path d="M416.08 606.245L416.08 624.275" stroke="#C3F53C" stroke-width="1.49682" stroke-miterlimit="10"/>
<path d="M372.773 611.118L372.773 629.149" stroke="#C3F53C" stroke-width="1.49682" stroke-miterlimit="10"/>
<path d="M320.999 533.824C416.434 533.824 493.799 505.514 493.799 470.592C493.799 435.67 416.434 407.36 320.999 407.36C225.564 407.36 148.199 435.67 148.199 470.592C148.199 505.514 225.564 533.824 320.999 533.824Z" fill="black" fill-opacity="0.2"/>
<path d="M318.568 446.784C439.735 446.784 537.96 348.559 537.96 227.392C537.96 106.225 439.735 8 318.568 8C197.401 8 99.1758 106.225 99.1758 227.392C99.1758 348.559 197.401 446.784 318.568 446.784Z" fill="#88E72B" stroke="black" stroke-width="2" stroke-miterlimit="10"/>
<path d="M427.496 111.296L322.408 73.28L203.112 106.432C177.512 210.112 187.624 320.192 263.144 369.344L285.672 381.632C287.464 380.736 289.128 379.968 290.92 379.072C291.432 378.816 291.944 378.432 292.456 378.176C294.248 377.28 296.04 376.256 297.832 375.232C299.112 374.592 300.264 373.824 301.544 373.184C303.464 372.16 305.256 371.008 307.048 369.856C307.944 369.344 308.84 368.832 309.608 368.32C309.864 368.192 310.12 367.936 310.376 367.808C311.272 367.168 312.296 366.528 313.192 365.888C314.856 364.864 316.392 363.712 318.056 362.56C319.08 361.92 320.104 361.152 321 360.384C321.896 359.744 322.792 359.104 323.688 358.464C324.328 357.952 325.096 357.44 325.736 356.928C326.504 356.288 327.272 355.776 328.04 355.136C329.832 353.728 331.496 352.32 333.288 350.912C333.8 350.4 334.44 350.016 334.952 349.504C335.08 349.376 335.336 349.248 335.464 349.12C337.512 347.456 339.432 345.664 341.352 343.872C341.864 343.36 342.376 342.976 342.888 342.464C343.912 341.568 344.808 340.672 345.832 339.776C346.6 339.136 347.24 338.368 348.008 337.728C348.52 337.216 349.032 336.704 349.672 336.192C351.592 334.272 353.64 332.224 355.56 330.304C355.688 330.176 355.688 330.176 355.816 330.048C356.072 329.792 356.2 329.536 356.456 329.28C358.248 327.36 360.04 325.44 361.704 323.52C362.216 323.008 362.728 322.368 363.24 321.856C363.624 321.344 364.136 320.832 364.52 320.32C365.032 319.808 365.416 319.168 365.928 318.656C367.976 316.352 369.896 313.92 371.944 311.488C372.328 310.976 372.84 310.464 373.224 309.824C373.48 309.568 373.736 309.184 373.992 308.928C376.552 305.728 378.984 302.4 381.416 299.072C381.544 298.944 381.544 298.816 381.672 298.688C383.208 296.512 384.872 294.208 386.408 291.904C386.792 291.264 387.176 290.624 387.688 290.112C388.456 288.96 389.224 287.808 389.992 286.656C390.504 285.888 390.888 285.12 391.4 284.48C391.912 283.584 392.424 282.816 393.064 281.92C394.344 280 395.496 278.08 396.648 276.032C397.032 275.392 397.416 274.752 397.8 274.112C397.928 273.856 398.056 273.728 398.184 273.472C399.592 271.04 401.128 268.48 402.408 266.048C402.664 265.664 402.792 265.28 403.048 265.024C404.2 262.976 405.352 260.928 406.376 258.88C406.504 258.624 406.632 258.24 406.76 257.984C407.4 256.832 408.04 255.552 408.68 254.4C409.576 252.736 410.344 251.072 411.24 249.408C411.88 248.128 412.52 246.848 413.032 245.568C413.544 244.416 414.184 243.264 414.696 242.112C414.952 241.6 415.08 241.216 415.336 240.704C416.104 238.912 416.872 237.248 417.64 235.456C418.28 234.048 418.92 232.64 419.56 231.232C420.328 229.44 421.096 227.648 421.864 225.856C422.376 224.832 422.76 223.68 423.272 222.656C423.4 222.4 423.528 222.016 423.656 221.76C425.064 218.176 426.472 214.592 427.752 211.008C427.88 210.624 428.008 210.24 428.136 209.856C429.288 206.656 430.44 203.328 431.592 200.128C431.72 199.744 431.848 199.36 431.976 198.976C432.616 197.056 433.256 195.136 433.896 193.216C434.024 192.704 434.28 192.192 434.408 191.68C435.304 188.736 436.2 185.792 437.096 182.848C437.352 182.08 437.608 181.184 437.736 180.416C438.376 178.24 439.016 176.064 439.528 173.888C439.784 172.864 440.04 171.84 440.296 170.944C440.552 170.048 440.808 169.28 440.936 168.512C441.192 167.744 441.32 166.848 441.576 166.08C442.088 163.904 442.6 161.856 443.112 159.68C443.496 158.272 443.752 156.864 444.136 155.456C444.648 153.28 445.16 151.104 445.544 148.928C445.8 147.52 446.184 146.24 446.44 144.832C446.952 142.4 447.336 140.096 447.848 137.664C448.104 136.512 448.232 135.36 448.488 134.208C449.128 130.752 449.64 127.168 450.28 123.712L427.496 111.296Z" stroke="black" stroke-width="6" stroke-miterlimit="10"/>
<path d="M322.408 73.28L203.112 106.432C177.512 210.112 187.624 320.192 263.144 369.344C357.608 324.032 411.496 215.36 427.496 111.424L322.408 73.28Z" fill="#36D136"/>
<path d="M436.841 182.72C437.097 181.952 437.353 181.056 437.481 180.288C438.121 178.112 438.761 175.936 439.273 173.76C439.529 172.736 439.785 171.712 440.041 170.816C440.297 169.92 440.553 169.152 440.681 168.384C440.937 167.616 441.065 166.72 441.321 165.952C441.833 163.776 442.345 161.728 442.857 159.552C443.241 158.144 443.497 156.736 443.881 155.328C444.393 153.152 444.905 150.976 445.289 148.8C445.545 147.392 445.929 146.112 446.185 144.704C446.697 142.272 447.081 139.968 447.593 137.536C447.849 136.384 447.977 135.232 448.233 134.08C448.873 130.624 449.385 127.04 450.025 123.584L427.497 111.296C426.985 114.752 426.345 118.336 425.705 121.792C425.449 122.944 425.321 124.096 425.065 125.248C424.681 127.68 424.169 129.984 423.657 132.416C423.401 133.824 423.145 135.104 422.761 136.512C422.249 138.688 421.865 140.864 421.353 143.04C420.969 144.448 420.713 145.856 420.329 147.264C419.817 149.44 419.305 151.488 418.793 153.664C418.409 155.328 418.025 156.992 417.513 158.528C417.257 159.552 417.001 160.576 416.745 161.472C416.105 163.648 415.593 165.824 414.953 168C414.697 168.768 414.441 169.664 414.313 170.432C413.417 173.376 412.521 176.32 411.625 179.264C411.497 179.776 411.241 180.288 411.113 180.8C410.345 183.104 409.577 185.408 408.809 187.584C407.657 190.784 406.505 194.112 405.353 197.312C405.225 197.696 405.097 198.08 404.969 198.464C403.689 202.048 402.281 205.632 400.873 209.216C400.361 210.624 399.721 211.904 399.209 213.312C398.441 215.104 397.673 216.896 396.905 218.688C396.265 220.096 395.625 221.504 394.985 222.912C394.217 224.704 393.449 226.368 392.681 228.16C391.913 229.824 391.145 231.36 390.377 233.024C389.737 234.304 389.097 235.584 388.585 236.864C387.689 238.528 386.921 240.192 386.025 241.984C385.385 243.136 384.745 244.416 384.105 245.568C382.825 248 381.545 250.304 380.265 252.608C380.009 252.992 379.881 253.376 379.625 253.632C378.089 256.32 376.553 259.008 375.017 261.696C374.633 262.336 374.249 262.976 373.865 263.616C372.713 265.536 371.433 267.584 370.281 269.504C369.769 270.4 369.257 271.168 368.617 272.064C367.337 273.984 366.185 275.904 364.905 277.696C364.521 278.336 364.137 278.976 363.625 279.488C361.961 281.92 360.297 284.224 358.633 286.528C356.201 289.856 353.769 293.184 351.209 296.384C350.569 297.28 349.801 298.048 349.161 298.944C347.241 301.376 345.193 303.808 343.145 306.112C342.249 307.136 341.353 308.16 340.457 309.312C339.945 309.952 339.433 310.464 338.921 310.976C337.129 312.896 335.465 314.816 333.673 316.736C333.417 316.992 333.289 317.248 333.033 317.504C330.985 319.552 329.065 321.6 327.017 323.648C326.505 324.16 325.993 324.672 325.353 325.184C323.689 326.848 322.025 328.384 320.233 329.92C319.721 330.432 319.209 330.816 318.697 331.328C316.521 333.248 314.473 335.168 312.169 336.96C311.657 337.472 311.017 337.856 310.505 338.368C308.713 339.776 307.049 341.184 305.257 342.592C304.489 343.232 303.721 343.744 302.953 344.384C301.417 345.536 299.881 346.688 298.217 347.84C297.193 348.608 296.297 349.248 295.273 350.016C293.737 351.168 292.073 352.192 290.409 353.344C289.513 353.984 288.489 354.624 287.593 355.264C286.441 356.032 285.289 356.672 284.265 357.312C282.473 358.464 280.553 359.616 278.761 360.64C277.609 361.408 276.329 362.048 275.049 362.688C273.257 363.712 271.465 364.736 269.673 365.632C267.369 366.784 265.193 367.936 262.889 369.088L285.417 381.376C287.209 380.48 288.873 379.712 290.665 378.816C291.177 378.56 291.689 378.176 292.201 377.92C293.993 377.024 295.785 376 297.577 374.976C298.857 374.336 300.009 373.568 301.289 372.928C303.209 371.904 305.001 370.752 306.793 369.6C307.689 369.088 308.585 368.576 309.353 368.064C309.609 367.936 309.865 367.68 310.121 367.552C311.017 366.912 312.041 366.272 312.937 365.632C314.601 364.608 316.137 363.456 317.801 362.304C318.825 361.664 319.849 360.896 320.745 360.128C321.641 359.488 322.537 358.848 323.433 358.208C324.073 357.696 324.841 357.184 325.481 356.672C326.249 356.032 327.017 355.52 327.785 354.88C329.577 353.472 331.241 352.064 333.033 350.656C333.545 350.144 334.185 349.76 334.697 349.248C334.825 349.12 335.081 348.992 335.209 348.864C337.257 347.2 339.177 345.408 341.097 343.616C341.609 343.104 342.121 342.72 342.633 342.208C343.657 341.312 344.553 340.416 345.577 339.52C346.345 338.88 346.985 338.112 347.753 337.472C348.265 336.96 348.777 336.448 349.417 335.936C351.337 334.016 353.385 331.968 355.305 330.048C355.433 329.92 355.433 329.92 355.561 329.792C355.817 329.536 355.945 329.28 356.201 329.024C357.993 327.104 359.785 325.184 361.449 323.264C361.961 322.752 362.473 322.112 362.985 321.6C363.369 321.088 363.881 320.576 364.265 320.064C364.777 319.552 365.161 318.912 365.673 318.4C367.721 316.096 369.641 313.664 371.689 311.232C372.073 310.72 372.585 310.208 372.969 309.568C373.225 309.312 373.481 308.928 373.737 308.672C376.297 305.472 378.729 302.144 381.161 298.816C381.289 298.688 381.289 298.56 381.417 298.432C382.953 296.256 384.617 293.952 386.153 291.648C386.537 291.008 386.921 290.368 387.433 289.856C388.201 288.704 388.969 287.552 389.737 286.4C390.249 285.632 390.633 284.864 391.145 284.224C391.657 283.328 392.169 282.56 392.809 281.664C394.089 279.744 395.241 277.824 396.393 275.776C396.777 275.136 397.161 274.496 397.545 273.856C397.673 273.6 397.801 273.472 397.929 273.216C399.337 270.784 400.873 268.224 402.153 265.792C402.409 265.408 402.537 265.024 402.793 264.768C403.945 262.72 405.097 260.672 406.121 258.624C406.249 258.368 406.377 257.984 406.505 257.728C407.145 256.576 407.785 255.296 408.425 254.144C409.321 252.48 410.089 250.816 410.985 249.152C411.625 247.872 412.265 246.592 412.777 245.312C413.289 244.16 413.929 243.008 414.441 241.856C414.697 241.344 414.825 240.96 415.081 240.448C415.849 238.656 416.617 236.992 417.385 235.2C418.025 233.792 418.665 232.384 419.305 230.976C420.073 229.184 420.841 227.392 421.609 225.6C422.121 224.576 422.505 223.424 423.017 222.4C423.145 222.144 423.273 221.76 423.401 221.504C424.809 217.92 426.217 214.336 427.497 210.752C427.625 210.368 427.753 209.984 427.881 209.6C429.033 206.4 430.185 203.072 431.337 199.872C431.465 199.488 431.593 199.104 431.721 198.72C432.361 196.8 433.001 194.88 433.641 192.96C433.769 192.448 434.025 191.936 434.153 191.424C435.177 188.608 436.073 185.664 436.841 182.72Z" fill="#002615"/>
<path d="M318.952 90.8159L214.504 119.744C204.136 167.36 202.472 212.672 209.768 251.456C218.088 295.616 237.288 328.768 266.984 350.272C305 330.304 337.256 298.176 363.112 254.784C385.768 216.768 402.28 171.712 410.984 123.968L318.952 90.8159Z" fill="#039503"/>
<path d="M354.28 105.792C332.392 152.128 307.432 197.184 275.432 237.376C259.688 257.088 242.536 275.392 224.104 292.416C234.088 315.584 248.552 334.144 267.112 347.968C304.231 328.128 335.976 296.512 361.32 253.888C383.464 216.64 399.848 172.224 408.551 125.504L354.28 105.792Z" fill="#037C03"/>
<path d="M340.071 167.232L351.719 185.536L274.791 257.472L271.975 255.68L259.688 189.12L262.503 190.784L282.087 221.504L337.256 165.568L340.071 167.232Z" fill="black"/>
<path d="M337.256 165.568L348.904 183.872L271.976 255.68L240.744 206.656L259.688 189.12L279.272 219.84L337.256 165.568Z" fill="#C3F53C" stroke="black" stroke-miterlimit="10.0001"/>
<path opacity="0.2" d="M517.607 227.392C517.607 337.344 428.519 426.432 318.567 426.432C294.503 426.432 271.591 422.208 250.215 414.4C253.671 414.528 257.127 414.656 260.583 414.656C385.127 414.656 486.119 320.064 486.119 203.328C486.119 148.032 463.463 97.728 426.343 59.968C481.255 95.424 517.607 157.12 517.607 227.392Z" fill="white"/>
<path opacity="0.2" d="M144.744 324.032C144.744 324.032 38.5043 102.08 285.032 31.6799C285.032 31.6799 86.1204 99.9039 144.744 324.032Z" fill="white"/>
</svg>
