<svg width="300" height="300" viewBox="0 0 300 300" fill="none" xmlns="http://www.w3.org/2000/svg">
<path d="M183.931 291.21C183.976 291.15 184.021 291.09 184.066 291.015C189.961 282.39 170.686 256.965 138.781 229.455C137.746 228.57 136.711 227.685 135.646 226.785C129.256 221.4 122.401 215.94 115.186 210.525C107.956 205.11 100.786 200.085 93.8106 195.465C56.9106 171.105 25.3656 158.76 18.5406 167.115C18.4956 167.175 18.4356 167.235 18.3906 167.295C18.3906 167.295 19.7406 155.805 43.4256 150.675C76.3806 143.535 116.536 45.93 193.486 92.505C195.706 93.84 197.956 95.31 200.236 96.9C203.791 99.765 207.001 102.63 209.881 105.51C250.801 146.385 226.636 189.36 208.051 222.99C199.471 238.53 192.076 252.075 192.826 262.5C194.581 286.665 183.931 291.21 183.931 291.21Z" fill="#63DE1F"/>
<path d="M192.781 261.6C192.781 261.51 192.781 261.435 192.781 261.345C192.781 261.12 192.781 260.895 192.781 260.67C192.781 260.565 192.781 260.46 192.781 260.37C192.781 260.145 192.796 259.92 192.811 259.695C192.811 259.605 192.826 259.5 192.826 259.41C192.841 259.11 192.871 258.825 192.901 258.525C192.901 258.495 192.901 258.48 192.901 258.45C192.931 258.12 192.976 257.805 193.021 257.475C193.036 257.385 193.051 257.295 193.066 257.205C193.096 256.965 193.141 256.725 193.186 256.485C193.201 256.365 193.231 256.26 193.246 256.14C193.291 255.915 193.336 255.69 193.381 255.45C193.411 255.345 193.426 255.225 193.456 255.12C193.516 254.85 193.576 254.565 193.636 254.295C193.651 254.235 193.666 254.16 193.681 254.1C193.756 253.755 193.846 253.425 193.951 253.08C193.981 252.975 194.011 252.87 194.041 252.765C194.116 252.525 194.176 252.27 194.251 252.03C194.296 251.895 194.326 251.775 194.371 251.64C194.446 251.415 194.506 251.19 194.581 250.95C194.626 250.815 194.671 250.68 194.716 250.545C194.791 250.29 194.881 250.035 194.971 249.78C195.001 249.675 195.046 249.57 195.076 249.45C195.196 249.105 195.331 248.745 195.451 248.4C195.496 248.28 195.541 248.145 195.601 248.025C195.691 247.785 195.781 247.545 195.871 247.305C195.931 247.155 195.991 246.99 196.051 246.84C196.141 246.63 196.216 246.405 196.306 246.195C196.366 246.03 196.441 245.865 196.501 245.7C196.591 245.475 196.681 245.25 196.786 245.04C196.846 244.89 196.921 244.725 196.981 244.575C197.131 244.23 197.281 243.87 197.446 243.51C197.521 243.33 197.596 243.165 197.686 242.985C197.776 242.775 197.866 242.58 197.956 242.37C198.046 242.175 198.136 241.965 198.226 241.77C198.316 241.59 198.391 241.41 198.481 241.23C198.586 241.02 198.676 240.81 198.781 240.6C198.856 240.435 198.946 240.27 199.021 240.09C199.126 239.865 199.231 239.64 199.351 239.415C199.396 239.325 199.441 239.235 199.486 239.13C199.741 238.59 200.011 238.05 200.281 237.51C200.326 237.405 200.386 237.315 200.431 237.21C200.566 236.925 200.716 236.655 200.851 236.37C200.911 236.265 200.956 236.16 201.016 236.055C201.166 235.77 201.316 235.47 201.466 235.185C201.511 235.11 201.541 235.035 201.586 234.96C220.171 199.095 257.611 149.025 206.341 102.135C204.436 100.395 201.226 97.575 199.606 96.555C200.146 97.035 241.336 135.54 200.956 214.125C193.546 225.765 179.101 261.36 146.926 236.685C165.601 253.92 168.301 258.615 181.171 275.745C182.131 277.44 182.926 279.045 183.541 280.545C183.541 280.56 183.556 280.575 183.556 280.59C183.631 280.77 183.706 280.95 183.766 281.115C183.766 281.13 183.781 281.145 183.781 281.175C183.976 281.685 184.156 282.18 184.306 282.675C184.321 282.735 184.336 282.78 184.351 282.84C184.396 282.99 184.441 283.125 184.486 283.26C184.501 283.305 184.501 283.335 184.516 283.38C184.591 283.635 184.651 283.875 184.711 284.13C184.726 284.205 184.741 284.265 184.756 284.34C184.786 284.46 184.801 284.565 184.831 284.685C184.846 284.76 184.861 284.85 184.876 284.925C184.891 285.03 184.921 285.135 184.936 285.24C184.966 285.405 184.981 285.57 185.011 285.72C185.026 285.81 185.026 285.9 185.041 285.99C185.056 286.08 185.056 286.185 185.071 286.275C185.071 286.365 185.086 286.44 185.086 286.53C185.086 286.635 185.101 286.755 185.101 286.86C185.101 286.95 185.101 287.04 185.101 287.115C185.101 287.25 185.101 287.385 185.101 287.52C185.101 287.595 185.101 287.655 185.086 287.715C185.086 287.82 185.071 287.925 185.056 288.03C185.056 288.09 185.041 288.15 185.041 288.21C185.026 288.36 184.996 288.51 184.981 288.66C184.981 288.705 184.966 288.735 184.951 288.78C184.921 288.9 184.906 289.005 184.876 289.11C184.861 289.17 184.846 289.215 184.831 289.26C184.801 289.365 184.771 289.47 184.726 289.575C184.711 289.62 184.696 289.65 184.696 289.695C184.651 289.83 184.591 289.965 184.531 290.1C184.516 290.145 184.501 290.175 184.471 290.22C184.426 290.31 184.381 290.415 184.321 290.505C184.291 290.55 184.276 290.595 184.246 290.625C184.186 290.745 184.111 290.85 184.036 290.955C184.036 290.97 184.021 290.97 184.021 290.985C183.976 291.045 183.931 291.12 183.886 291.18C183.886 291.18 194.536 286.635 192.781 262.47C192.811 262.215 192.796 261.9 192.781 261.6Z" fill="#009C05"/>
<path d="M184.065 291.015C184.02 291.075 183.975 291.15 183.93 291.21C179.76 296.79 165.24 293.73 145.59 284.37C128.775 276.375 108.21 263.76 87.1351 247.98C41.4151 213.765 10.6351 177.645 18.3751 167.295C18.4201 167.235 18.4651 167.175 18.5251 167.115C19.9351 165.39 22.4101 164.535 25.7851 164.52C41.7301 164.37 77.6401 182.43 115.17 210.525C160.62 244.545 191.295 280.44 184.065 291.015Z" fill="black"/>
<path d="M232.591 78.345C232.036 75.33 230.851 72.42 229.051 69.84C227.746 67.98 226.141 66.285 224.221 64.845C214.591 57.645 200.746 59.46 193.741 69.225C189.301 75.42 188.326 83.31 190.561 90.045C190.636 90.285 190.816 90.765 190.906 91.005C192.061 91.71 193.306 92.37 194.491 93.135C195.556 93.84 196.681 94.62 197.776 95.37C201.391 97.86 204.181 99.555 208.141 103.83C215.941 105.165 223.531 102.075 228.586 95.31C232.381 90.27 233.641 84.105 232.591 78.345ZM204.136 91.665C198.946 87.78 197.881 80.43 201.766 75.225C205.651 70.035 213.016 68.97 218.206 72.855C223.396 76.74 224.461 84.105 220.576 89.295C216.691 94.5 209.326 95.565 204.136 91.665Z" fill="#63DE1F"/>
<path d="M130.756 237.195C127.111 242.055 122.221 245.415 116.851 247.185C108.346 249.975 98.6557 248.7 90.9307 242.925C78.3607 233.505 75.7957 215.685 85.2007 203.115C86.8507 200.91 88.7557 199.02 90.8407 197.445C91.7857 196.74 92.7757 196.08 93.7957 195.495C100.771 200.1 107.941 205.14 115.171 210.555C122.401 215.97 129.256 221.415 135.631 226.815C134.761 230.445 133.141 233.985 130.756 237.195Z" fill="#C3F53C"/>
<path d="M130.755 237.195C127.11 242.055 122.22 245.415 116.85 247.185C129.045 222.975 90.8555 197.445 90.8555 197.445C91.8005 196.74 92.7905 196.08 93.8105 195.495C100.785 200.1 107.955 205.14 115.185 210.555C122.415 215.97 129.27 221.415 135.645 226.815C134.76 230.445 133.14 233.985 130.755 237.195Z" fill="#63DE1F"/>
<g opacity="0.5">
<path d="M95.6326 237.612C98.6342 236.691 99.6236 231.239 97.8426 225.434C96.0616 219.628 92.1845 215.669 89.1829 216.59C86.1813 217.511 85.1919 222.963 86.9729 228.768C88.7539 234.574 92.631 238.533 95.6326 237.612Z" fill="white"/>
<path d="M100.967 214.815C101.522 216.615 100.862 218.415 99.5115 218.835C98.1465 219.255 96.6015 218.13 96.0465 216.33C95.4915 214.53 96.1515 212.73 97.5015 212.31C98.8515 211.89 100.412 213.015 100.967 214.815Z" fill="white"/>
</g>
<path opacity="0.1" d="M145.59 284.385C128.775 276.39 108.21 263.775 87.1351 247.995C41.4151 213.78 10.6351 177.66 18.3751 167.31C18.4201 167.25 18.4651 167.19 18.5251 167.13C19.9351 165.405 28.5601 164.52 31.4551 167.775C23.8351 167.31 4.48511 181.26 132.36 274.59C137.205 278.085 141.705 281.19 145.59 284.385Z" fill="white"/>
<path d="M202.56 93.78C205.065 95.655 208.065 96.645 211.14 96.645C211.83 96.645 212.52 96.6 213.21 96.495C217.005 95.955 220.365 93.96 222.66 90.885C224.955 87.81 225.93 84.03 225.375 80.235C224.835 76.44 222.84 73.08 219.765 70.77C213.42 66.03 204.405 67.32 199.65 73.665C194.925 80.01 196.215 89.025 202.56 93.78ZM203.865 76.815C205.65 74.43 208.395 73.17 211.185 73.17C213.09 73.17 214.995 73.755 216.63 74.985C218.58 76.44 219.84 78.57 220.185 80.985C220.53 83.4 219.915 85.8 218.46 87.75C217.005 89.7 214.875 90.96 212.46 91.305C210.045 91.65 207.645 91.035 205.695 89.58C201.69 86.565 200.865 80.835 203.865 76.815Z" fill="#C3F53C" stroke="black" stroke-miterlimit="10"/>
<path d="M75.7805 61.365C71.2505 59.67 68.9705 54.615 70.6655 50.1C83.8955 14.97 123.211 -2.85 158.341 10.365C162.871 12.06 165.151 17.115 163.456 21.63C161.761 26.16 156.706 28.44 152.191 26.745C126.106 16.935 96.8856 30.165 87.0606 56.265C85.3506 60.78 80.3105 63.075 75.7805 61.365Z" fill="#63DE1F"/>
<path d="M104.46 72.165C99.9302 70.47 97.6502 65.415 99.3452 60.9C106.605 41.595 128.235 31.785 147.54 39.06C152.07 40.755 154.35 45.81 152.655 50.325C150.96 54.855 145.905 57.135 141.39 55.44C131.115 51.57 119.61 56.79 115.74 67.065C114.03 71.58 108.99 73.86 104.46 72.165Z" fill="#63DE1F"/>
<path d="M103.231 64.95C110.101 46.695 130.531 37.44 148.786 44.31C150.751 45.045 152.251 46.455 153.166 48.18C153.586 44.31 151.381 40.485 147.556 39.045C128.251 31.785 106.621 41.58 99.3607 60.885C97.7557 65.16 99.7057 69.885 103.726 71.835C102.601 69.795 102.346 67.305 103.231 64.95Z" fill="#C3F53C"/>
<path d="M75.4812 53.835C87.9762 20.64 125.131 3.79501 158.326 16.29C160.891 17.25 162.691 19.365 163.366 21.81C163.381 21.75 163.411 21.705 163.441 21.645C165.136 17.115 162.856 12.075 158.326 10.38C123.211 -2.84999 83.8962 14.97 70.6812 50.1C68.9862 54.63 71.2662 59.67 75.7962 61.365C76.0512 61.455 76.3062 61.545 76.5612 61.605C74.9562 59.445 74.4612 56.535 75.4812 53.835Z" fill="#C3F53C"/>
<path d="M104.46 72.165C99.9302 70.47 97.6502 65.415 99.3452 60.9C106.605 41.595 128.235 31.785 147.54 39.06C152.07 40.755 154.35 45.81 152.655 50.325C150.96 54.855 145.905 57.135 141.39 55.44C131.115 51.57 119.61 56.79 115.74 67.065C114.03 71.58 108.99 73.86 104.46 72.165Z" stroke="black" stroke-width="1.5" stroke-miterlimit="10"/>
<path d="M75.7805 61.365C71.2505 59.67 68.9705 54.615 70.6655 50.1C83.8955 14.97 123.211 -2.85 158.341 10.365C162.871 12.06 165.151 17.115 163.456 21.63C161.761 26.16 156.706 28.44 152.191 26.745C126.106 16.935 96.8856 30.165 87.0606 56.265C85.3506 60.78 80.3105 63.075 75.7805 61.365Z" stroke="black" stroke-width="1.5" stroke-miterlimit="10"/>
<path d="M18.5257 167.13C18.8107 166.77 19.1557 166.455 19.5307 166.17C19.1557 166.455 18.8257 166.77 18.5257 167.13ZM18.5257 167.13C18.5107 167.145 18.4957 167.175 18.4807 167.19M208.156 103.83C215.761 104.895 223.681 101.895 228.601 95.31C232.381 90.255 233.641 84.09 232.576 78.33C232.021 75.315 230.836 72.405 229.036 69.825C227.731 67.965 226.126 66.27 224.206 64.83C214.576 57.63 200.941 59.595 193.726 69.21C189.091 75.405 188.266 84.21 190.831 90.945C115.591 48.15 75.9907 143.61 43.4107 150.66C19.8007 155.805 18.3907 167.25 18.3907 167.31C10.6507 177.66 41.4307 213.78 87.1507 247.995C108.226 263.76 128.791 276.375 145.606 284.385C165.256 293.745 179.776 296.79 183.946 291.225C183.946 291.225 194.596 286.68 192.841 262.515C192.091 252.09 199.486 238.53 208.066 223.005C226.651 189.375 250.801 146.4 209.896 105.525C209.311 104.955 208.741 104.4 208.156 103.83Z" stroke="black" stroke-width="1.5" stroke-miterlimit="10"/>
<path d="M184.065 291.015C184.02 291.075 183.975 291.15 183.93 291.21C179.76 296.79 165.24 293.73 145.59 284.37C128.775 276.375 108.21 263.76 87.1351 247.98C41.4151 213.765 10.6351 177.645 18.3751 167.295C18.4201 167.235 18.4651 167.175 18.5251 167.115C19.9351 165.39 22.4101 164.535 25.7851 164.52C41.7301 164.37 77.6401 182.43 115.17 210.525C160.62 244.545 191.295 280.44 184.065 291.015Z" stroke="black" stroke-width="1.5" stroke-miterlimit="10"/>
<path d="M190.846 90.96C190.846 90.96 201.481 96.84 208.156 103.83" stroke="black" stroke-width="1.5" stroke-miterlimit="10"/>
<path d="M280.051 147.48C280.051 165.015 265.831 179.235 248.296 179.235C244.846 179.235 241.531 178.68 238.426 177.675C225.721 173.52 216.541 161.58 216.541 147.48C216.541 129.945 230.761 115.725 248.296 115.725C257.596 115.725 265.966 119.73 271.771 126.105C276.916 131.745 280.051 139.245 280.051 147.48Z" fill="#F6A402"/>
<path d="M280.051 147.48C280.051 165.015 265.831 179.235 248.296 179.235C244.846 179.235 241.531 178.68 238.426 177.675C225.721 173.52 216.541 161.58 216.541 147.48C216.541 129.945 230.761 115.725 248.296 115.725C257.596 115.725 265.966 119.73 271.771 126.105C276.916 131.745 280.051 139.245 280.051 147.48Z" fill="#F6A402" stroke="black" stroke-width="1.5" stroke-miterlimit="10"/>
<path opacity="0.2" d="M280.051 147.48C280.051 165.015 265.831 179.235 248.296 179.235C244.846 179.235 241.531 178.68 238.426 177.675C290.356 171.525 272.476 126.9 271.771 126.105C276.916 131.745 280.051 139.245 280.051 147.48Z" fill="black"/>
<g opacity="0.2">
<path d="M228.571 134.535C228.106 134.535 227.626 134.385 227.221 134.085C226.216 133.335 226.006 131.925 226.756 130.92C231.271 124.83 238.501 121.2 246.076 121.2C247.321 121.2 248.341 122.22 248.341 123.465C248.341 124.71 247.321 125.73 246.076 125.73C239.836 125.73 234.121 128.61 230.386 133.62C229.951 134.22 229.261 134.535 228.571 134.535Z" fill="white"/>
</g>
<g opacity="0.2">
<path d="M224.281 147.525C223.036 147.525 222.016 146.505 222.016 145.26C222.016 142.77 222.391 140.325 223.141 137.97C223.516 136.785 224.791 136.125 225.976 136.5C227.161 136.875 227.821 138.15 227.446 139.335C226.846 141.24 226.531 143.235 226.531 145.26C226.546 146.505 225.541 147.525 224.281 147.525Z" fill="white"/>
</g>
<path d="M252.227 132.975V162.06H246.962V138.105H246.797L240.002 142.455V137.625L247.232 132.975H252.227Z" fill="white"/>
</svg>
