<svg width="48" height="48" viewBox="0 0 48 48" fill="none" xmlns="http://www.w3.org/2000/svg">
<g clip-path="url(#clip0_6611_17822)">
<path d="M23.9988 47.7001C37.088 47.7001 47.6988 37.0892 47.6988 24C47.6988 10.9109 37.088 0.300049 23.9988 0.300049C10.9097 0.300049 0.298828 10.9109 0.298828 24C0.298828 37.0892 10.9097 47.7001 23.9988 47.7001Z" fill="#C3F53C"/>
<path d="M48 23.8799V23.9999C48 37.2599 37.26 47.9999 24 47.9999C13.68 47.9999 4.86 41.4599 1.5 32.2799C6.9 35.9999 13.44 38.1599 20.52 38.1599C31.86 38.1599 41.94 32.5199 48 23.8799Z" fill="#63DE1F"/>
<path d="M23.9988 47.7001C37.088 47.7001 47.6988 37.0892 47.6988 24C47.6988 10.9109 37.088 0.300049 23.9988 0.300049C10.9097 0.300049 0.298828 10.9109 0.298828 24C0.298828 37.0892 10.9097 47.7001 23.9988 47.7001Z" stroke="#002C15" stroke-width="1.2" stroke-miterlimit="10"/>
<g clip-path="url(#clip1_6611_17822)">
<path d="M26.2116 27.9559C27.0839 26.5021 28.6345 25.533 30.379 25.533C33.0927 25.533 35.2248 27.6651 35.2248 30.3788C35.2248 33.0924 33.0927 35.2246 30.379 35.2246C28.5376 35.2246 26.9869 34.2554 26.2116 32.8017M30.379 32.3171L32.3173 30.3788M32.3173 30.3788L30.379 28.4404M32.3173 30.3788H25.5332" stroke="#002C15" stroke-width="1.5" stroke-linecap="round" stroke-linejoin="round"/>
<path d="M16.326 31.2511C16.0352 31.2511 15.7445 31.2511 15.6476 31.1542C15.6476 31.0573 15.6476 30.7665 15.6476 30.4758V29.7004C15.6476 29.4097 15.6476 29.1189 15.7445 29.022C15.8414 29.022 16.1322 29.022 16.4229 29.022H23.4009C23.4978 28.4405 23.6916 27.9559 23.8855 27.3744H21.9471V21.3656H25.1454V25.63C25.63 25.1454 26.1145 24.6608 26.793 24.2731V21.3656H29.5066V23.304C29.7974 23.304 30.185 23.207 30.4758 23.207C30.6696 23.207 30.8634 23.207 31.0573 23.207V21.3656C31.4449 21.3656 31.7357 21.3656 32.0264 21.1718C32.3172 20.978 32.6079 20.6872 32.8018 20.3965C32.9956 20.0088 32.9956 19.6211 32.9956 19.0396V17.9736C32.9956 17.489 32.9956 17.1013 32.8987 16.8106C32.8018 16.5198 32.6079 16.2291 32.3172 16.0352C32.0264 15.8414 31.7357 15.7445 31.2511 15.6476L24.0793 14.0969C23.7885 14 23.6916 14 23.5947 14C23.4978 14 23.4009 14 23.304 14C23.207 14 23.1101 14 22.9163 14.0969L15.8414 15.6476C15.3568 15.7445 15.0661 15.8414 14.7753 16.0352C14.4846 16.2291 14.2907 16.5198 14.0969 16.8106C14 17.1013 14 17.3921 14 17.9736V19.0396C14 19.6211 14 20.0088 14.1938 20.3965C14.3877 20.6872 14.6784 20.978 14.9692 21.1718C15.2599 21.2687 15.5507 21.3656 15.9383 21.3656V27.4714C15.5507 27.4714 15.2599 27.4714 14.9692 27.6652C14.6784 27.859 14.3877 28.1498 14.1938 28.4405C14 28.8282 14 29.1189 14 29.7974V30.5727C14 31.1542 14 31.5418 14.1938 31.9295C14.3877 32.2203 14.6784 32.511 14.9692 32.7048C15.3568 32.8987 15.7445 32.8987 16.326 32.8987H23.6916C23.4978 32.4141 23.4009 31.8326 23.304 31.2511H16.326ZM20.2026 27.4714H17.5859V21.3656H20.2996V27.4714H20.2026ZM15.6476 19.7181C15.6476 19.6211 15.6476 19.3304 15.6476 19.0396V17.9736C15.6476 17.7797 15.6476 17.489 15.7445 17.3921C15.8414 17.3921 16.0352 17.2952 16.2291 17.2952L23.304 15.7445H23.4978L30.7665 17.3921C30.9604 17.3921 31.2511 17.489 31.348 17.5859C31.348 17.6828 31.348 17.8767 31.348 18.1674V19.2335C31.348 19.5242 31.348 19.815 31.2511 19.9119C31.1542 19.9119 30.8634 19.9119 30.5727 19.9119H16.326C16.0352 19.7181 15.7445 19.7181 15.6476 19.7181Z" fill="#002C15"/>
</g>
</g>
<defs>
<clipPath id="clip0_6611_17822">
<rect width="48" height="48" fill="white"/>
</clipPath>
<clipPath id="clip1_6611_17822">
<rect width="22" height="22" fill="white" transform="translate(14 14)"/>
</clipPath>
</defs>
</svg>
