<svg width="48" height="48" viewBox="0 0 48 48" fill="none" xmlns="http://www.w3.org/2000/svg">
<g clip-path="url(#clip0_6599_17800)">
<path d="M23.9988 47.7001C37.088 47.7001 47.6988 37.0892 47.6988 24C47.6988 10.9109 37.088 0.300049 23.9988 0.300049C10.9097 0.300049 0.298828 10.9109 0.298828 24C0.298828 37.0892 10.9097 47.7001 23.9988 47.7001Z" fill="#C3F53C"/>
<path d="M48 23.8799V23.9999C48 37.2599 37.26 47.9999 24 47.9999C13.68 47.9999 4.86 41.4599 1.5 32.2799C6.9 35.9999 13.44 38.1599 20.52 38.1599C31.86 38.1599 41.94 32.5199 48 23.8799Z" fill="#63DE1F"/>
<path d="M23.9988 47.7001C37.088 47.7001 47.6988 37.0892 47.6988 24C47.6988 10.9109 37.088 0.300049 23.9988 0.300049C10.9097 0.300049 0.298828 10.9109 0.298828 24C0.298828 37.0892 10.9097 47.7001 23.9988 47.7001Z" stroke="#002C15" stroke-width="1.2" stroke-miterlimit="10"/>
<g clip-path="url(#clip1_6599_17800)">
<path d="M33.5349 31.5814C32.2326 29.907 30.2791 28.8837 28.2326 28.8837C26.186 28.8837 24.2326 29.814 22.9302 31.5814C22.5581 31.9535 22.3721 32.2326 22.3721 32.6977C22.3721 33.0698 22.5581 33.4419 22.8372 33.7209C23.2093 34 23.5814 34 24.1395 34H32.2326C32.7907 34 33.1628 34 33.5349 33.7209C33.814 33.5349 34 33.0698 34 32.6977C34 32.2326 33.814 31.9535 33.5349 31.5814ZM32.2326 32.6047H24.1395C24.0465 32.6047 23.9535 32.6047 23.8605 32.6047C23.8605 32.5116 23.9535 32.5116 23.9535 32.4186C24.9767 31.1163 26.4651 30.2791 28.1395 30.2791C29.814 30.2791 31.3023 31.0233 32.3256 32.4186C32.3256 32.5116 32.4186 32.5116 32.4186 32.6047C32.4186 32.6047 32.3256 32.6047 32.2326 32.6047ZM28.2326 21.5349C26.3721 21.5349 24.7907 23.1163 24.7907 24.9767C24.7907 26.8372 26.3721 28.4186 28.2326 28.4186C30.093 28.4186 31.6744 26.8372 31.6744 24.9767C31.6744 23.1163 30.093 21.5349 28.2326 21.5349ZM28.2326 27.1163C27.1163 27.1163 26.186 26.186 26.186 25.0698C26.186 23.9535 27.1163 23.0233 28.2326 23.0233C29.3488 23.0233 30.2791 23.9535 30.2791 25.0698C30.2791 26.186 29.3488 27.1163 28.2326 27.1163ZM15.4884 30.6512L15.3953 30.5581C15.3953 30.4651 15.3953 30.186 15.3953 29.907V29.1628C15.3953 28.8837 15.3953 28.6047 15.3953 28.5116L15.4884 28.4186C15.5814 28.4186 15.8605 28.4186 16.1395 28.4186H24.5116L24.6047 28.3256C24.2326 27.9535 23.9535 27.4884 23.7674 27.0233H21.4419V20.9767H30.7442C30.9302 20.9767 31.1163 20.8837 31.2093 20.7907C31.4884 20.6047 31.7674 20.4186 31.9535 20.0465C32.1395 19.6744 32.1395 19.3023 32.1395 18.7442V17.7209C32.1395 17.2558 32.1395 16.9767 32.0465 16.6047C31.9535 16.3256 31.7674 16.1395 31.4884 15.9535C31.2093 15.7674 30.9302 15.6744 30.4651 15.5814L23.5814 14.093C23.3953 14 23.3023 14 23.2093 14C23.1163 14 23.0233 14 22.9302 14C22.8372 14 22.7442 14 22.5581 14.093L15.6744 15.5814C15.2093 15.6744 14.9302 15.7674 14.6512 15.9535C14.4651 16.1395 14.2791 16.3256 14.093 16.6047C14 16.9767 14 17.2558 14 17.7209V18.7442C14 19.3023 14 19.6744 14.186 20.0465C14.3721 20.4186 14.5581 20.6047 14.9302 20.7907C15.2093 20.9767 15.4884 20.9767 15.8605 20.9767V27.0233C15.4884 27.0233 15.2093 27.0233 14.9302 27.2093C14.6512 27.3953 14.3721 27.5814 14.186 27.9535C14 28.2326 14 28.6047 14 29.1628V29.907C14 30.4651 14 30.8372 14.186 31.2093C14.3721 31.4884 14.5581 31.7674 14.9302 31.9535C15.3023 32.1395 15.6744 32.1395 16.2326 32.1395H21.0698C21.1628 31.4884 21.5349 31.1163 21.814 30.7442H16.2326C15.8605 30.7442 15.5814 30.7442 15.4884 30.6512ZM20.0465 27.0233H17.2558V20.9767H20.0465V27.0233ZM15.4884 19.4884L15.3953 19.3953C15.3953 19.3023 15.3953 19.0233 15.3953 18.7442V17.7209C15.3953 17.4419 15.3953 17.2558 15.3953 17.1628C15.3953 17.1628 15.3953 17.0698 15.4884 17.0698C15.5814 17.0698 15.7674 16.9767 16.0465 16.9767L22.9302 15.4884C23.0233 15.4884 23.0233 15.4884 23.1163 15.4884C23.1163 15.4884 23.2093 15.4884 23.3023 15.4884L30.186 16.9767C30.3721 17.0698 30.6512 17.0698 30.7442 17.0698L30.8372 17.1628C30.8372 17.2558 30.8372 17.4419 30.8372 17.7209V18.7442C30.8372 19.0233 30.8372 19.3023 30.8372 19.3953L30.7442 19.4884C30.6512 19.4884 30.3721 19.4884 30.093 19.4884H16.2326C15.8605 19.5814 15.5814 19.5814 15.4884 19.4884Z" fill="#002C15"/>
</g>
</g>
<defs>
<clipPath id="clip0_6599_17800">
<rect width="48" height="48" fill="white"/>
</clipPath>
<clipPath id="clip1_6599_17800">
<rect width="20" height="20" fill="white" transform="translate(14 14)"/>
</clipPath>
</defs>
</svg>
