<svg width="48" height="48" viewBox="0 0 48 48" fill="none" xmlns="http://www.w3.org/2000/svg">
<g clip-path="url(#clip0_6614_17856)">
<path d="M23.9988 47.7001C37.088 47.7001 47.6988 37.0892 47.6988 24C47.6988 10.9109 37.088 0.300049 23.9988 0.300049C10.9097 0.300049 0.298828 10.9109 0.298828 24C0.298828 37.0892 10.9097 47.7001 23.9988 47.7001Z" fill="#C3F53C"/>
<path d="M48 23.8799V23.9999C48 37.2599 37.26 47.9999 24 47.9999C13.68 47.9999 4.86 41.4599 1.5 32.2799C6.9 35.9999 13.44 38.1599 20.52 38.1599C31.86 38.1599 41.94 32.5199 48 23.8799Z" fill="#63DE1F"/>
<path d="M23.9988 47.7001C37.088 47.7001 47.6988 37.0892 47.6988 24C47.6988 10.9109 37.088 0.300049 23.9988 0.300049C10.9097 0.300049 0.298828 10.9109 0.298828 24C0.298828 37.0892 10.9097 47.7001 23.9988 47.7001Z" stroke="#002C15" stroke-width="1.2" stroke-miterlimit="10"/>
<path d="M33.1673 22.1666H14.834M23.084 25.8333H18.5007M14.834 20.5166L14.834 27.4833C14.834 28.51 14.834 29.0234 15.0338 29.4156C15.2096 29.7605 15.49 30.041 15.835 30.2168C16.2272 30.4166 16.7406 30.4166 17.7673 30.4166L30.234 30.4166C31.2607 30.4166 31.7741 30.4166 32.1663 30.2168C32.5113 30.041 32.7917 29.7605 32.9675 29.4156C33.1673 29.0234 33.1673 28.51 33.1673 27.4833V20.5166C33.1673 19.4898 33.1673 18.9764 32.9675 18.5843C32.7917 18.2393 32.5113 17.9588 32.1663 17.7831C31.7741 17.5833 31.2607 17.5833 30.234 17.5833L17.7673 17.5833C16.7406 17.5833 16.2272 17.5833 15.835 17.7831C15.49 17.9588 15.2096 18.2393 15.0338 18.5843C14.834 18.9764 14.834 19.4898 14.834 20.5166Z" stroke="#002C15" stroke-width="1.5" stroke-linecap="round" stroke-linejoin="round"/>
</g>
<defs>
<clipPath id="clip0_6614_17856">
<rect width="48" height="48" fill="white"/>
</clipPath>
</defs>
</svg>
