<svg width="48" height="48" viewBox="0 0 48 48" fill="none" xmlns="http://www.w3.org/2000/svg">
<g clip-path="url(#clip0_6614_17849)">
<path d="M23.9988 47.7001C37.088 47.7001 47.6988 37.0892 47.6988 24C47.6988 10.9109 37.088 0.300049 23.9988 0.300049C10.9097 0.300049 0.298828 10.9109 0.298828 24C0.298828 37.0892 10.9097 47.7001 23.9988 47.7001Z" fill="#C3F53C"/>
<path d="M48 23.8799V23.9999C48 37.2599 37.26 47.9999 24 47.9999C13.68 47.9999 4.86 41.4599 1.5 32.2799C6.9 35.9999 13.44 38.1599 20.52 38.1599C31.86 38.1599 41.94 32.5199 48 23.8799Z" fill="#63DE1F"/>
<path d="M23.9988 47.7001C37.088 47.7001 47.6988 37.0892 47.6988 24C47.6988 10.9109 37.088 0.300049 23.9988 0.300049C10.9097 0.300049 0.298828 10.9109 0.298828 24C0.298828 37.0892 10.9097 47.7001 23.9988 47.7001Z" stroke="#002C15" stroke-width="1.2" stroke-miterlimit="10"/>
<g clip-path="url(#clip1_6614_17849)">
<path d="M34.0007 21.7143H14.9531M18.2865 30.2857H18.0007C16.9531 30.2857 16.3817 30.2857 16.0007 30.0952C15.6198 29.9048 15.3341 29.6191 15.1436 29.2381C14.9531 28.8572 14.9531 28.2857 14.9531 27.2381V20C14.9531 18.9524 14.9531 18.381 15.1436 18C15.3341 17.6191 15.6198 17.3333 16.0007 17.1429C16.3817 16.9524 16.9531 16.9524 18.0007 16.9524H30.9531C32.0007 16.9524 32.5722 16.9524 32.9531 17.1429C33.3341 17.3333 33.6198 17.6191 33.8103 18C34.0007 18.381 34.0007 18.9524 34.0007 20V27.2381C34.0007 28.2857 34.0007 28.8572 33.8103 29.2381C33.6198 29.6191 33.3341 29.9048 32.9531 30.0952C32.5722 30.2857 32.0007 30.2857 30.9531 30.2857H30.6674M21.6198 32C21.6198 33.0476 22.4769 33.9048 23.5246 33.9048H25.2388C26.3817 33.9048 27.2388 33.0476 27.2388 31.9048C27.2388 30.7619 26.3817 29.9048 25.2388 29.9048H23.6198C22.5722 29.8095 21.6198 28.9524 21.6198 27.8095C21.6198 26.6667 22.4769 25.8095 23.6198 25.8095H25.4293C26.4769 25.8095 27.3341 26.6667 27.3341 27.7143M24.4769 24.5714V25.8095M24.4769 33.8095V35.0476" stroke="#002C15" stroke-width="1.5" stroke-linecap="round" stroke-linejoin="round"/>
</g>
</g>
<defs>
<clipPath id="clip0_6614_17849">
<rect width="48" height="48" fill="white"/>
</clipPath>
<clipPath id="clip1_6614_17849">
<rect width="20.9524" height="20" fill="white" transform="translate(14 16)"/>
</clipPath>
</defs>
</svg>
