<svg width="40" height="40" viewBox="0 0 40 40" fill="none" xmlns="http://www.w3.org/2000/svg">
<rect x="0.5" y="0.5" width="39" height="39" rx="19.5" fill="white"/>
<rect x="0.5" y="0.5" width="39" height="39" rx="19.5" stroke="#C9CBCE"/>
<path d="M7 23.6963C7 24.2033 7.41167 24.6172 7.91867 24.6172H14.3504V7.61967L7 15.3601V23.6963ZM23.7007 32.9935C24.2066 32.9935 24.6172 32.5818 24.6172 32.0737V25.642H7.62075L15.3622 32.9924L23.7007 32.9935ZM33 16.2993C33.0003 16.1788 32.9767 16.0594 32.9307 15.948C32.8847 15.8366 32.8171 15.7354 32.7318 15.6502C32.6465 15.5651 32.5453 15.4976 32.4338 15.4517C32.3224 15.4058 32.2029 15.3824 32.0824 15.3828H25.6496V32.3792L32.9967 24.6356L33 16.2993ZM16.3004 7C16.0571 7 15.8237 7.09667 15.6516 7.26875C15.4795 7.44083 15.3828 7.67422 15.3828 7.91758V14.3526H32.3782L24.6388 7H16.3004Z" fill="#2F65AE"/>
</svg>
