<svg width="48" height="48" viewBox="0 0 48 48" fill="none" xmlns="http://www.w3.org/2000/svg">
<g clip-path="url(#clip0_8221_99074)">
<path d="M48 23.9997C48 21.064 47.4719 18.2518 46.5072 15.6519L24 14.6084L1.49278 15.6518C0.528094 18.2518 0 21.064 0 23.9997C0 26.9354 0.528094 29.7476 1.49278 32.3475L24 33.391L46.5072 32.3476C47.4719 29.7476 48 26.9354 48 23.9997Z" fill="white"/>
<path d="M24.0004 47.9989C34.3195 47.9989 43.1166 41.4859 46.5076 32.3467H1.49316C4.8842 41.4859 13.6812 47.9989 24.0004 47.9989Z" fill="#0052B4"/>
<path d="M1.49219 15.6532H46.5067C43.1156 6.51398 34.3186 0.000976562 23.9994 0.000976562C13.6802 0.000976562 4.88322 6.51398 1.49219 15.6532Z" fill="#D80027"/>
<path d="M30.2599 16.6951H26.0859L26.7817 11.4776L29.5642 9.39062L32.3467 11.4776V15.6515L30.2599 16.6951Z" fill="#338AF3"/>
<path d="M17.7382 16.696H21.9122L21.2165 11.4786L18.4339 9.3916L15.6514 11.4786V15.6525L17.7382 16.696Z" fill="#338AF3"/>
<path d="M26.7822 16.6955H21.2168V11.4781L23.9995 9.39111L26.7822 11.4781V16.6955Z" fill="#0052B4"/>
<path d="M15.6514 15.6514V27.1295C15.6514 29.8626 16.9716 32.2932 19.0078 33.8169L20.4687 33.4514L22.3122 35.3059C22.8574 35.4183 23.4215 35.4774 23.9993 35.4774C24.5739 35.4774 25.1352 35.419 25.6775 35.3078L27.7819 33.5556L28.9905 33.8135C31.0259 32.2899 32.347 29.8619 32.347 27.1295V15.6514H15.6514Z" fill="#F0F0F0"/>
<path d="M18.9914 15.6519H15.6523V18.991H18.9914V15.6519Z" fill="#D80027"/>
<path d="M25.6702 15.6519H22.3311V18.991H25.6702V15.6519Z" fill="#D80027"/>
<path d="M32.3489 15.6519H29.0098V18.991H32.3489V15.6519Z" fill="#D80027"/>
<path d="M22.3303 18.9897H18.9912V22.3288H22.3303V18.9897Z" fill="#D80027"/>
<path d="M29.008 18.9897H25.6689V22.3288H29.008V18.9897Z" fill="#D80027"/>
<path d="M18.9914 22.3276H15.6523V25.6667H18.9914V22.3276Z" fill="#D80027"/>
<path d="M22.3303 25.6694H18.9912V29.0085H22.3303V25.6694Z" fill="#D80027"/>
<path d="M25.6702 22.3276H22.3311V25.6667H25.6702V22.3276Z" fill="#D80027"/>
<path d="M32.3489 22.3276H29.0098V25.6667H32.3489V22.3276Z" fill="#D80027"/>
<path d="M29.008 25.6694H25.6689V29.0085H29.008V25.6694Z" fill="#D80027"/>
<path d="M25.6702 29.0078H22.3311V32.3469H25.6702V29.0078Z" fill="#D80027"/>
<path d="M18.9908 29.0078H15.8672C16.1537 30.2491 16.7169 31.3848 17.4892 32.3469H18.9908V29.0078Z" fill="#D80027"/>
<path d="M29.0098 32.3474H30.5113C31.2838 31.3853 31.8468 30.2495 32.1333 29.0083H29.0098V32.3474Z" fill="#D80027"/>
<path d="M18.9912 32.3462V33.8032C19.9624 34.5339 21.0973 35.0579 22.3303 35.3094V32.3462H18.9912Z" fill="#D80027"/>
<path d="M25.6689 32.3462V35.3094C26.902 35.0581 28.0369 34.5339 29.008 33.8032V32.3462H25.6689Z" fill="#D80027"/>
</g>
<defs>
<clipPath id="clip0_8221_99074">
<rect width="48" height="48" fill="white"/>
</clipPath>
</defs>
</svg>
