<svg width="48" height="48" viewBox="0 0 48 48" fill="none" xmlns="http://www.w3.org/2000/svg">
<g clip-path="url(#clip0_8221_99067)">
<path d="M24 48C37.2548 48 48 37.2548 48 24C48 10.7452 37.2548 0 24 0C10.7452 0 0 10.7452 0 24C0 37.2548 10.7452 48 24 48Z" fill="white"/>
<path d="M18.7833 20.8701H47.7974C46.2634 9.09443 36.1944 0.000488281 24.0006 0.000488281C22.2085 0.000488281 20.4632 0.198582 18.7832 0.570957V20.8701H18.7833Z" fill="#D80027"/>
<path d="M12.5227 20.8718V2.92041C5.9327 6.5161 1.21501 13.1115 0.204102 20.8718H12.5227V20.8718Z" fill="#D80027"/>
<path d="M12.5216 27.1313H0.203125C1.21403 34.8917 5.93172 41.4871 12.5217 45.0827L12.5216 27.1313Z" fill="#D80027"/>
<path d="M18.7832 27.1314V47.4305C20.4632 47.8028 22.2085 48.0009 24.0006 48.0009C36.1944 48.0009 46.2634 38.907 47.7974 27.1313H18.7832V27.1314Z" fill="#D80027"/>
</g>
<defs>
<clipPath id="clip0_8221_99067">
<rect width="48" height="48" fill="white"/>
</clipPath>
</defs>
</svg>
