<svg width="256" height="256" viewBox="0 0 256 256" fill="none" xmlns="http://www.w3.org/2000/svg">
<path d="M5.93858 215.142C5.93858 215.142 2.20098 215.398 2.55938 209.05C2.66178 207.002 3.68578 205.107 5.32418 203.878L43.5706 175.155C44.7994 174.234 46.233 173.773 47.769 173.773H206.591C208.076 173.773 209.51 174.234 210.739 175.104L250.982 204.595C255.539 207.923 253.183 215.142 247.551 215.142H5.93858Z" fill="#001409"/>
<path d="M5.93858 197.478C5.93858 197.478 2.20098 197.734 2.55938 191.386C2.66178 189.338 3.68578 187.443 5.32418 186.214L43.5706 157.491C44.7994 156.57 46.233 156.109 47.769 156.109H206.591C208.076 156.109 209.51 156.57 210.739 157.44L250.982 186.931C255.539 190.259 253.183 197.478 247.551 197.478H5.93858Z" fill="#E2CC69" stroke="black" stroke-width="4" stroke-miterlimit="10"/>
<path d="M249.599 191.795H6.19429C1.73989 191.795 4.29989 187.341 4.50469 186.982C4.76069 186.726 5.06789 186.419 5.37509 186.214L43.6215 157.491C44.8503 156.57 46.2839 156.109 47.8199 156.109H206.642C208.127 156.109 209.561 156.57 210.789 157.44L251.033 186.931C251.186 187.034 251.34 187.136 251.442 187.29C252.722 192.051 249.599 191.795 249.599 191.795Z" fill="#05CB0A"/>
<path d="M247.603 197.478H5.93858C5.93858 197.478 2.20098 197.734 2.55938 191.386C2.66178 189.747 3.32738 188.16 4.45378 186.982C4.24898 187.29 1.68898 191.795 6.14338 191.795H249.548C249.548 191.795 252.671 192.051 251.443 187.29C255.436 190.771 253.03 197.478 247.603 197.478Z" fill="#006E0C"/>
<path d="M24.4224 185.856L53.8112 159.283C55.0912 158.106 56.7808 157.491 58.5216 157.491H205.158C206.746 157.491 208.23 158.003 209.459 158.976L244.736 186.624C246.067 187.648 245.299 189.747 243.661 189.747L25.6 188.877C24.0128 188.877 23.2448 186.931 24.4224 185.856Z" fill="#FDFBDA" stroke="black" stroke-miterlimit="10"/>
<path d="M33.2536 171.36C35.2231 171.162 36.7624 170.431 36.6917 169.728C36.6211 169.024 34.9672 168.615 32.9977 168.813C31.0282 169.01 29.4889 169.741 29.5596 170.444C29.6303 171.148 31.2841 171.558 33.2536 171.36Z" fill="#006E0C" stroke="black" stroke-miterlimit="10"/>
<path d="M231.474 195.942H191.538C190.821 195.942 190.207 195.328 190.207 194.611V194.253C190.207 193.536 190.821 192.922 191.538 192.922H231.474C232.191 192.922 232.805 193.536 232.805 194.253V194.611C232.805 195.379 232.191 195.942 231.474 195.942Z" fill="#05CB0A" stroke="black" stroke-miterlimit="10"/>
<path d="M188.722 174.746C199.213 174.746 207.717 173.897 207.717 172.851C207.717 171.805 199.213 170.957 188.722 170.957C178.231 170.957 169.727 171.805 169.727 172.851C169.727 173.897 178.231 174.746 188.722 174.746Z" fill="#002C15"/>
<path d="M187.341 142.438H70.0925C66.2525 142.438 63.0781 145.562 63.0781 149.453V174.387H194.304V149.453C194.355 145.562 191.232 142.438 187.341 142.438Z" stroke="black" stroke-miterlimit="10"/>
<path d="M187.341 142.438H70.0925C66.2525 142.438 63.0781 145.562 63.0781 149.453V174.694H194.304V149.453C194.355 145.562 191.232 142.438 187.341 142.438Z" fill="#C3F53C"/>
<path d="M194.354 149.453V174.694H190.258V148.992C190.258 146.278 189.029 143.872 187.135 142.49H187.391C191.231 142.438 194.354 145.562 194.354 149.453Z" fill="#9AC12E"/>
<path d="M77.004 150.733V157.338H76.0312V150.733H77.004Z" fill="#002C15"/>
<path d="M78.4375 157.338V150.733H80.8439C81.3047 150.733 81.7143 150.784 82.0215 150.938C82.3287 151.091 82.5335 151.296 82.6871 151.552C82.8407 151.808 82.8919 152.115 82.8919 152.422C82.8919 152.678 82.8407 152.934 82.7383 153.139C82.6359 153.344 82.4823 153.498 82.3287 153.6C82.1751 153.702 81.9703 153.805 81.7655 153.856V153.907C81.9703 153.907 82.1751 154.01 82.4311 154.112C82.6359 154.266 82.7895 154.419 82.9431 154.675C83.0967 154.931 83.1479 155.187 83.1479 155.546C83.1479 155.904 83.0455 156.16 82.8919 156.467C82.7383 156.723 82.4823 156.928 82.1751 157.082C81.8679 157.235 81.4071 157.338 80.8951 157.338H78.4375ZM79.4103 153.6H80.7415C80.9463 153.6 81.1511 153.549 81.3559 153.446C81.5095 153.344 81.6631 153.242 81.7655 153.088C81.8679 152.934 81.9191 152.73 81.9191 152.525C81.9191 152.269 81.8167 152.013 81.6119 151.859C81.4071 151.654 81.1511 151.603 80.7415 151.603H79.4103V153.6ZM79.4103 156.467H80.8439C81.3047 156.467 81.6631 156.365 81.8679 156.211C82.0727 156.006 82.1751 155.802 82.1751 155.546C82.1751 155.341 82.1239 155.136 82.0215 154.982C81.9191 154.829 81.7655 154.675 81.5607 154.573C81.3559 154.47 81.1511 154.419 80.8951 154.419H79.4103V156.467Z" fill="#002C15"/>
<path d="M84.9404 157.338H83.8652L86.2204 150.733H87.3468L89.702 157.338H88.6268L86.7836 151.962H86.7324L84.9404 157.338ZM85.094 154.726H88.5244V155.546H85.094V154.726Z" fill="#002C15"/>
<path d="M96.0002 150.733V157.338H95.0786L91.7506 152.525H91.6994V157.338H90.7266V150.733H91.6482L94.9762 155.546H95.0274V150.733H96.0002Z" fill="#002C15"/>
<path d="M77.1065 166.656C78.0961 166.656 78.8985 165.854 78.8985 164.864C78.8985 163.874 78.0961 163.072 77.1065 163.072C76.1168 163.072 75.3145 163.874 75.3145 164.864C75.3145 165.854 76.1168 166.656 77.1065 166.656Z" fill="#002C15"/>
<path d="M83.1475 166.656C84.1372 166.656 84.9395 165.854 84.9395 164.864C84.9395 163.874 84.1372 163.072 83.1475 163.072C82.1578 163.072 81.3555 163.874 81.3555 164.864C81.3555 165.854 82.1578 166.656 83.1475 166.656Z" fill="#002C15"/>
<path d="M89.2412 166.656C90.2309 166.656 91.0332 165.854 91.0332 164.864C91.0332 163.874 90.2309 163.072 89.2412 163.072C88.2515 163.072 87.4492 163.874 87.4492 164.864C87.4492 165.854 88.2515 166.656 89.2412 166.656Z" fill="#002C15"/>
<path d="M95.2822 166.656C96.2719 166.656 97.0742 165.854 97.0742 164.864C97.0742 163.874 96.2719 163.072 95.2822 163.072C94.2925 163.072 93.4902 163.874 93.4902 164.864C93.4902 165.854 94.2925 166.656 95.2822 166.656Z" fill="#002C15"/>
<path d="M105.933 166.656C106.922 166.656 107.725 165.854 107.725 164.864C107.725 163.874 106.922 163.072 105.933 163.072C104.943 163.072 104.141 163.874 104.141 164.864C104.141 165.854 104.943 166.656 105.933 166.656Z" fill="#002C15"/>
<path d="M112.026 166.656C113.016 166.656 113.818 165.854 113.818 164.864C113.818 163.874 113.016 163.072 112.026 163.072C111.037 163.072 110.234 163.874 110.234 164.864C110.234 165.854 111.037 166.656 112.026 166.656Z" fill="#002C15"/>
<path d="M118.067 166.656C119.057 166.656 119.859 165.854 119.859 164.864C119.859 163.874 119.057 163.072 118.067 163.072C117.078 163.072 116.275 163.874 116.275 164.864C116.275 165.854 117.078 166.656 118.067 166.656Z" fill="#002C15"/>
<path d="M124.159 166.656C125.149 166.656 125.951 165.854 125.951 164.864C125.951 163.874 125.149 163.072 124.159 163.072C123.169 163.072 122.367 163.874 122.367 164.864C122.367 165.854 123.169 166.656 124.159 166.656Z" fill="#002C15"/>
<path d="M134.81 166.656C135.799 166.656 136.602 165.854 136.602 164.864C136.602 163.874 135.799 163.072 134.81 163.072C133.82 163.072 133.018 163.874 133.018 164.864C133.018 165.854 133.82 166.656 134.81 166.656Z" fill="#002C15"/>
<path d="M140.903 166.656C141.893 166.656 142.695 165.854 142.695 164.864C142.695 163.874 141.893 163.072 140.903 163.072C139.914 163.072 139.111 163.874 139.111 164.864C139.111 165.854 139.914 166.656 140.903 166.656Z" fill="#002C15"/>
<path d="M146.944 166.656C147.934 166.656 148.736 165.854 148.736 164.864C148.736 163.874 147.934 163.072 146.944 163.072C145.955 163.072 145.152 163.874 145.152 164.864C145.152 165.854 145.955 166.656 146.944 166.656Z" fill="#002C15"/>
<path d="M152.985 166.656C153.975 166.656 154.777 165.854 154.777 164.864C154.777 163.874 153.975 163.072 152.985 163.072C151.996 163.072 151.193 163.874 151.193 164.864C151.193 165.854 151.996 166.656 152.985 166.656Z" fill="#002C15"/>
<path d="M163.687 166.656C164.676 166.656 165.479 165.854 165.479 164.864C165.479 163.874 164.676 163.072 163.687 163.072C162.697 163.072 161.895 163.874 161.895 164.864C161.895 165.854 162.697 166.656 163.687 166.656Z" fill="#002C15"/>
<path d="M169.728 166.656C170.717 166.656 171.52 165.854 171.52 164.864C171.52 163.874 170.717 163.072 169.728 163.072C168.738 163.072 167.936 163.874 167.936 164.864C167.936 165.854 168.738 166.656 169.728 166.656Z" fill="#002C15"/>
<path d="M175.821 166.656C176.811 166.656 177.613 165.854 177.613 164.864C177.613 163.874 176.811 163.072 175.821 163.072C174.832 163.072 174.029 163.874 174.029 164.864C174.029 165.854 174.832 166.656 175.821 166.656Z" fill="#002C15"/>
<path d="M181.862 166.656C182.852 166.656 183.654 165.854 183.654 164.864C183.654 163.874 182.852 163.072 181.862 163.072C180.873 163.072 180.07 163.874 180.07 164.864C180.07 165.854 180.873 166.656 181.862 166.656Z" fill="#002C15"/>
<path d="M227.227 112.845L228.712 118.682C228.046 116.07 225.64 113.92 221.697 112.845C213.864 110.694 202.804 113.51 197.07 119.245C194.203 122.061 193.179 125.082 193.844 127.642L192.36 121.805C191.694 119.245 192.718 116.224 195.585 113.408C201.32 107.725 212.379 104.858 220.212 107.008C224.206 108.083 226.561 110.234 227.227 112.845Z" fill="black"/>
<path d="M225.486 127.078C221.185 131.328 213.915 133.99 207.259 134.195L205.825 128.563C203.521 128.614 201.268 128.41 199.271 127.846C197.889 127.437 196.66 126.925 195.636 126.31L197.07 131.789C195.38 130.662 194.305 129.229 193.895 127.59L192.82 123.443L192.769 123.341L192.615 122.829L192.462 122.266L192.359 121.856C192.359 121.907 192.411 122.01 192.411 122.061C192.462 122.163 192.462 122.266 192.513 122.419C192.513 122.47 192.564 122.573 192.615 122.624V122.675C192.667 122.778 192.667 122.829 192.718 122.931C192.82 123.136 192.923 123.29 193.025 123.494C193.076 123.546 193.076 123.597 193.127 123.648C193.127 123.699 193.179 123.699 193.179 123.75C193.23 123.853 193.281 123.904 193.332 124.006C193.383 124.109 193.435 124.16 193.537 124.262C193.588 124.314 193.639 124.416 193.742 124.467C193.793 124.518 193.793 124.518 193.844 124.57C193.895 124.621 193.947 124.723 194.049 124.774C194.1 124.826 194.203 124.928 194.254 124.979C194.407 125.133 194.612 125.286 194.817 125.491C194.868 125.542 194.971 125.594 195.073 125.696C195.175 125.747 195.278 125.85 195.329 125.901C195.636 126.106 195.995 126.31 196.302 126.515C196.507 126.618 196.711 126.771 196.967 126.874C197.07 126.925 197.172 126.976 197.275 127.027C197.735 127.232 198.247 127.437 198.811 127.59C198.862 127.59 198.964 127.642 199.015 127.642C199.118 127.693 199.22 127.693 199.374 127.744C201.371 128.307 203.572 128.512 205.825 128.461C206.03 128.461 206.235 128.461 206.388 128.461C206.798 128.461 207.207 128.41 207.668 128.358H207.719C207.924 128.358 208.129 128.307 208.283 128.307C208.692 128.256 209.153 128.205 209.563 128.154C209.767 128.102 209.972 128.102 210.177 128.051C210.331 128 210.484 128 210.638 127.949C210.894 127.898 211.201 127.846 211.457 127.795C211.662 127.744 211.867 127.693 212.071 127.642C212.225 127.59 212.43 127.539 212.583 127.488C212.635 127.488 212.686 127.437 212.737 127.437C212.891 127.386 213.044 127.334 213.249 127.283C213.3 127.283 213.351 127.232 213.403 127.232C213.556 127.181 213.71 127.13 213.863 127.078C213.915 127.078 213.966 127.078 213.966 127.027C214.119 126.976 214.324 126.925 214.478 126.874C214.683 126.822 214.887 126.72 215.092 126.669C215.195 126.618 215.246 126.618 215.348 126.566C215.655 126.464 216.014 126.31 216.321 126.208C216.526 126.106 216.679 126.054 216.884 125.952C217.089 125.85 217.294 125.747 217.499 125.645C217.601 125.594 217.703 125.542 217.806 125.491C218.369 125.235 218.983 124.928 219.495 124.621C219.598 124.57 219.7 124.518 219.751 124.467C219.854 124.416 219.956 124.365 220.007 124.314C220.11 124.262 220.212 124.211 220.263 124.16C220.622 123.955 220.98 123.699 221.287 123.494C221.39 123.443 221.441 123.392 221.543 123.29C221.646 123.238 221.697 123.187 221.799 123.085C221.902 123.034 221.953 122.982 222.055 122.88C222.721 122.368 223.284 121.856 223.847 121.293C223.95 121.242 224.001 121.139 224.052 121.088C224.411 120.73 224.718 120.371 224.974 120.013C225.025 119.962 225.076 119.859 225.127 119.808C225.179 119.757 225.23 119.654 225.281 119.603C225.332 119.552 225.332 119.501 225.383 119.45L225.435 119.398C225.537 119.245 225.639 119.091 225.742 118.989C225.742 118.989 225.742 118.938 225.793 118.938C225.844 118.835 225.895 118.733 225.947 118.682C225.947 118.63 225.998 118.579 225.998 118.579C226.254 118.17 226.459 117.76 226.612 117.299C226.663 117.248 226.663 117.146 226.715 117.094C226.817 116.838 226.919 116.582 226.971 116.275C226.971 116.224 226.971 116.173 227.022 116.122C227.022 116.07 227.022 116.019 227.073 115.968C227.073 115.968 227.073 115.968 227.073 115.917C227.073 115.866 227.073 115.814 227.124 115.763C227.124 115.661 227.175 115.61 227.175 115.507C227.175 115.405 227.175 115.354 227.227 115.251V115.2C227.227 115.149 227.227 115.098 227.227 115.046C227.227 114.944 227.227 114.893 227.227 114.79C227.227 114.79 227.227 114.79 227.227 114.739C227.227 114.688 227.227 114.637 227.227 114.586C227.227 114.483 227.227 114.381 227.227 114.227C227.227 114.176 227.227 114.125 227.227 114.022C227.227 113.971 227.227 113.869 227.227 113.818C227.227 113.715 227.227 113.664 227.175 113.562V113.51V113.459V113.408V113.357C227.175 113.306 227.175 113.254 227.124 113.152L227.329 114.022L227.483 114.637V114.688L228.558 118.886C229.377 121.242 228.353 124.262 225.486 127.078Z" fill="#BDF500"/>
<path d="M220.263 107.008C228.097 109.158 229.786 115.558 224.052 121.242C218.318 126.925 207.258 129.792 199.425 127.59C191.591 125.44 189.902 119.04 195.636 113.357C201.37 107.674 212.43 104.806 220.263 107.008Z" fill="#2BD12F"/>
<path d="M228.916 118.63L227.483 112.947V112.998C227.483 113.05 227.483 113.05 227.483 113.101V113.152C227.483 113.203 227.483 113.203 227.483 113.254C227.483 113.254 227.483 113.254 227.483 113.306C227.483 113.357 227.483 113.408 227.483 113.459C227.483 113.51 227.483 113.51 227.483 113.562C227.483 113.613 227.483 113.664 227.483 113.715C227.483 113.766 227.483 113.869 227.483 113.92C227.483 114.074 227.483 114.227 227.483 114.432C227.483 114.483 227.483 114.534 227.483 114.637C227.483 114.688 227.483 114.739 227.483 114.842C227.483 115.046 227.432 115.302 227.432 115.507C227.432 115.558 227.432 115.61 227.38 115.661C227.329 115.814 227.329 116.019 227.278 116.173C227.278 116.275 227.227 116.326 227.227 116.429C227.227 116.48 227.176 116.531 227.176 116.634C227.176 116.685 227.176 116.685 227.124 116.736C227.124 116.787 227.073 116.89 227.073 116.941C227.073 116.992 227.022 117.094 226.971 117.146C226.971 117.197 226.92 117.197 226.92 117.248C226.868 117.299 226.868 117.402 226.817 117.453C226.766 117.504 226.766 117.606 226.715 117.658C226.715 117.709 226.664 117.76 226.612 117.811C226.561 117.862 226.561 117.914 226.51 117.965C226.51 117.965 226.51 118.016 226.459 118.016C226.408 118.118 226.356 118.221 226.305 118.272C226.254 118.374 226.203 118.477 226.152 118.528C225.998 118.784 225.844 119.04 225.64 119.296C225.588 119.347 225.588 119.398 225.537 119.45C225.281 119.808 224.974 120.166 224.667 120.525C224.616 120.576 224.564 120.627 224.513 120.678C224.411 120.781 224.308 120.934 224.155 121.037C224.104 121.088 224.001 121.19 223.95 121.242C223.694 121.498 223.387 121.754 223.08 122.01C223.028 122.061 222.977 122.061 222.926 122.112C222.516 122.47 222.056 122.829 221.595 123.187C221.492 123.238 221.441 123.29 221.339 123.392C221.236 123.443 221.185 123.494 221.083 123.546C220.98 123.597 220.929 123.648 220.827 123.699C220.724 123.75 220.673 123.802 220.571 123.853C220.366 123.955 220.212 124.058 220.008 124.211C219.905 124.262 219.803 124.314 219.752 124.365C219.547 124.467 219.342 124.621 219.086 124.723C218.83 124.877 218.574 124.979 218.318 125.133C217.806 125.389 217.345 125.594 216.833 125.85C216.321 126.054 215.809 126.259 215.297 126.464C215.195 126.515 215.092 126.566 214.99 126.566C214.888 126.618 214.734 126.669 214.632 126.72C214.529 126.771 214.478 126.771 214.376 126.822C213.864 126.976 213.3 127.181 212.737 127.334C212.635 127.386 212.532 127.386 212.43 127.437C212.328 127.488 212.174 127.488 212.072 127.539C211.969 127.59 211.867 127.59 211.764 127.642C211.611 127.693 211.406 127.744 211.252 127.744C211.099 127.795 210.945 127.795 210.792 127.846C210.587 127.898 210.331 127.949 210.126 128C210.024 128 209.921 128.051 209.819 128.051C208.897 128.205 207.976 128.307 207.054 128.41C207.003 128.41 206.9 128.41 206.849 128.41C206.644 128.41 206.44 128.41 206.286 128.461C206.132 128.461 206.03 128.461 205.876 128.461C204.648 128.512 203.419 128.461 202.241 128.358C201.883 128.307 201.524 128.256 201.166 128.205C200.91 128.154 200.705 128.102 200.449 128.102C199.988 128 199.528 127.898 199.067 127.795C198.76 127.693 198.504 127.642 198.196 127.539C198.043 127.488 197.94 127.437 197.787 127.386C197.684 127.334 197.582 127.334 197.531 127.283C197.48 127.283 197.428 127.232 197.428 127.232C197.326 127.181 197.224 127.13 197.07 127.078C197.019 127.078 196.968 127.027 196.916 127.027C196.865 127.027 196.865 126.976 196.814 126.976C196.763 126.976 196.712 126.925 196.712 126.925C196.66 126.925 196.66 126.874 196.609 126.874C196.558 126.822 196.456 126.822 196.404 126.771C196.353 126.771 196.353 126.72 196.302 126.72C196.148 126.669 196.046 126.566 195.892 126.515C195.892 126.515 195.841 126.515 195.841 126.464C195.739 126.413 195.636 126.362 195.585 126.31C195.534 126.31 195.534 126.259 195.483 126.259C195.329 126.157 195.176 126.054 195.022 125.952C194.92 125.901 194.817 125.798 194.715 125.747C194.612 125.696 194.561 125.594 194.459 125.542C194.356 125.491 194.254 125.389 194.203 125.338C194.1 125.286 194.049 125.184 193.947 125.082C193.844 124.979 193.793 124.928 193.691 124.826C193.64 124.774 193.537 124.672 193.486 124.621C193.435 124.518 193.332 124.467 193.281 124.365C193.23 124.262 193.179 124.211 193.076 124.109C193.025 124.006 192.923 123.904 192.872 123.853C192.82 123.75 192.769 123.699 192.718 123.597C192.667 123.546 192.667 123.494 192.616 123.443C192.616 123.392 192.564 123.341 192.564 123.341C192.564 123.29 192.513 123.29 192.513 123.238C192.513 123.187 192.462 123.136 192.462 123.085C192.411 122.982 192.36 122.88 192.36 122.829C192.308 122.726 192.308 122.624 192.257 122.522C192.206 122.419 192.206 122.317 192.155 122.214C192.155 122.163 192.104 122.061 192.104 121.958L192.206 122.368L193.588 127.744C194.049 129.434 195.176 130.97 197.07 132.147C198.094 132.762 199.272 133.274 200.705 133.683C202.753 134.246 204.955 134.451 207.259 134.4C213.966 134.195 221.288 131.533 225.64 127.232C228.558 124.262 229.582 121.242 228.916 118.63ZM200.859 133.427C199.374 133.018 198.094 132.454 197.07 131.738L195.636 126.259C196.66 126.874 197.838 127.437 199.272 127.795C201.32 128.358 203.521 128.563 205.825 128.512L207.259 134.144C205.006 134.246 202.856 133.99 200.859 133.427Z" fill="black"/>
<path d="M207.259 134.144C205.006 134.195 202.805 133.99 200.859 133.427C199.374 133.018 198.094 132.454 197.07 131.738L195.637 126.259C196.661 126.874 197.838 127.437 199.272 127.795C201.32 128.358 203.522 128.563 205.826 128.512L207.259 134.144Z" fill="white"/>
<path d="M220.366 106.854C228.302 109.056 229.991 115.507 224.206 121.293C218.369 127.027 207.207 129.946 199.271 127.744C191.335 125.542 189.646 119.091 195.431 113.306C201.268 107.571 212.43 104.653 220.366 106.854ZM199.374 127.59C207.207 129.741 218.267 126.925 224.001 121.242C229.735 115.558 228.046 109.158 220.212 107.008C212.379 104.858 201.319 107.674 195.585 113.408C189.851 119.04 191.54 125.44 199.374 127.59Z" fill="black"/>
<path d="M194.202 119.603C194.151 120.218 194.202 120.781 194.356 121.344L194.202 120.678C194.048 120.115 193.997 119.552 194.048 118.938C194.1 119.04 194.1 119.142 194.151 119.296C194.151 119.347 194.151 119.347 194.151 119.398C194.151 119.398 194.202 119.501 194.202 119.603Z" fill="#BDF500"/>
<path d="M197.223 113.869C195.329 115.763 194.305 117.76 194.202 119.552C194.151 119.347 194.1 119.091 194.049 118.886C194.151 117.043 195.175 115.046 197.07 113.203C202.19 108.134 211.969 105.626 218.932 107.571C222.414 108.544 224.564 110.438 225.127 112.742L225.281 113.408C224.666 111.104 222.567 109.158 219.086 108.237C212.122 106.291 202.343 108.851 197.223 113.869Z" fill="#BDF500"/>
<path d="M224.922 112.794L225.075 113.459C224.512 111.206 222.413 109.312 218.931 108.339C212.071 106.445 202.394 108.954 197.376 113.92C194.867 116.378 193.997 119.04 194.56 121.242L194.407 120.576C193.843 118.323 194.714 115.712 197.223 113.254C202.24 108.288 211.917 105.779 218.778 107.674C222.208 108.646 224.307 110.541 224.922 112.794Z" fill="black"/>
<path d="M227.072 112.23L227.226 112.896C226.56 110.285 224.154 108.134 220.212 107.059C212.378 104.909 201.319 107.725 195.584 113.459C192.717 116.275 191.693 119.296 192.359 121.856L192.205 121.19C191.54 118.63 192.564 115.61 195.431 112.794C201.165 107.11 212.224 104.243 220.058 106.394C224.052 107.469 226.407 109.67 227.072 112.23Z" fill="black"/>
<path d="M225.126 112.742L225.28 113.408C225.843 115.712 224.972 118.323 222.412 120.832C217.292 125.85 207.513 128.41 200.55 126.464C197.068 125.491 194.918 123.597 194.355 121.293L194.201 120.627C194.816 122.931 196.915 124.877 200.396 125.798C207.36 127.744 217.139 125.184 222.259 120.166C224.768 117.709 225.689 115.046 225.126 112.742Z" fill="black"/>
<path d="M220.211 106.291C228.147 108.493 229.837 114.944 224.051 120.73C218.215 126.464 207.053 129.382 199.117 127.181C191.181 124.979 189.491 118.528 195.277 112.742C201.114 106.957 212.275 104.09 220.211 106.291ZM199.219 127.027C207.053 129.178 218.112 126.362 223.847 120.627C229.581 114.944 227.891 108.544 220.058 106.394C212.224 104.243 201.165 107.059 195.431 112.794C189.696 118.477 191.386 124.877 199.219 127.027Z" fill="black"/>
<path d="M218.881 107.571C225.844 109.517 227.329 115.149 222.209 120.218C217.089 125.235 207.31 127.795 200.346 125.85C193.383 123.904 191.898 118.272 197.018 113.203C202.138 108.186 211.969 105.626 218.881 107.571ZM200.5 125.747C207.361 127.642 217.038 125.133 222.055 120.166C227.073 115.2 225.588 109.619 218.778 107.674C211.918 105.779 202.241 108.288 197.223 113.254C192.206 118.221 193.639 123.853 200.5 125.747Z" fill="black"/>
<path d="M227.072 112.23L227.226 112.896C227.891 115.456 226.867 118.477 224 121.293C218.266 126.976 207.207 129.843 199.373 127.693C195.431 126.618 193.024 124.416 192.359 121.856L192.205 121.19C192.871 123.802 195.277 125.952 199.219 127.027C207.053 129.178 218.112 126.362 223.847 120.627C226.714 117.811 227.738 114.842 227.072 112.23Z" fill="#2BD12F"/>
<path d="M220.109 106.394C227.943 108.544 229.632 114.944 223.898 120.627C218.163 126.31 207.104 129.178 199.271 127.027C191.437 124.877 189.747 118.477 195.482 112.794C201.216 107.059 212.275 104.243 220.109 106.394ZM200.397 125.85C207.36 127.795 217.139 125.235 222.259 120.218C227.379 115.149 225.843 109.517 218.931 107.571C211.968 105.626 202.189 108.186 197.069 113.203C191.949 118.272 193.434 123.904 200.397 125.85Z" fill="#2BD12F"/>
<path d="M227.635 114.432C227.635 114.995 227.584 115.558 227.43 116.122C227.02 117.811 225.945 119.603 224.204 121.344C219.852 125.645 212.531 128.307 205.824 128.512C203.52 128.563 201.267 128.358 199.27 127.795C197.888 127.386 196.659 126.874 195.635 126.259C194.918 125.798 194.304 125.286 193.792 124.774C193.382 124.365 193.075 123.904 192.819 123.443C192.614 123.085 192.409 122.675 192.307 122.266C192.256 122.163 192.256 122.01 192.204 121.907L192.051 121.344V121.242C192.051 121.293 192.102 121.344 192.102 121.395C192.102 121.446 192.153 121.549 192.153 121.6C192.153 121.651 192.204 121.754 192.256 121.805C192.256 121.805 192.256 121.856 192.307 121.856C192.307 121.907 192.358 121.958 192.358 122.061C192.358 122.112 192.409 122.112 192.409 122.163C192.46 122.266 192.46 122.317 192.512 122.419C192.563 122.522 192.614 122.624 192.665 122.675C192.716 122.778 192.768 122.829 192.819 122.931C192.87 122.982 192.921 123.085 192.972 123.136C192.972 123.136 192.972 123.136 192.972 123.187C193.024 123.29 193.075 123.341 193.126 123.443C193.177 123.494 193.228 123.546 193.28 123.648L193.331 123.699C193.382 123.75 193.382 123.802 193.433 123.853C193.484 123.904 193.587 124.006 193.638 124.058C193.689 124.109 193.792 124.211 193.843 124.262L193.894 124.314C193.945 124.365 193.996 124.416 194.048 124.467L194.099 124.518C194.201 124.621 194.252 124.672 194.355 124.723C194.457 124.774 194.508 124.877 194.611 124.928C194.611 124.928 194.611 124.928 194.662 124.979C194.764 125.03 194.867 125.133 194.918 125.184C194.918 125.184 194.918 125.184 194.969 125.184C195.072 125.235 195.174 125.286 195.225 125.389C195.276 125.44 195.328 125.44 195.379 125.491C195.43 125.542 195.481 125.542 195.532 125.594C195.635 125.645 195.686 125.696 195.788 125.747C195.942 125.85 196.096 125.901 196.249 126.003C196.454 126.106 196.71 126.208 196.966 126.362C197.222 126.464 197.478 126.566 197.734 126.669C197.888 126.72 197.99 126.771 198.144 126.822C198.297 126.874 198.4 126.925 198.553 126.976C198.707 127.027 198.86 127.078 199.014 127.13C200.908 127.642 203.008 127.898 205.158 127.846C205.26 127.846 205.363 127.846 205.465 127.846C205.516 127.846 205.516 127.846 205.568 127.846C205.619 127.846 205.67 127.846 205.721 127.846C206.08 127.846 206.489 127.795 206.848 127.795C207.001 127.795 207.155 127.795 207.308 127.744C207.36 127.744 207.36 127.744 207.411 127.744C207.462 127.744 207.564 127.744 207.616 127.744C207.667 127.744 207.667 127.744 207.718 127.744C208.025 127.693 208.384 127.693 208.691 127.642C209.049 127.59 209.408 127.539 209.766 127.488C209.868 127.488 209.92 127.437 210.022 127.437C210.227 127.386 210.38 127.386 210.585 127.334C210.79 127.283 210.995 127.232 211.148 127.232C211.2 127.232 211.251 127.232 211.302 127.181C211.456 127.13 211.66 127.078 211.814 127.078C212.019 127.027 212.275 126.976 212.48 126.925C212.684 126.874 212.889 126.822 213.094 126.771C213.299 126.72 213.504 126.669 213.708 126.566C213.862 126.515 214.067 126.464 214.22 126.413C214.272 126.413 214.323 126.362 214.374 126.362C214.528 126.31 214.732 126.259 214.886 126.208C214.937 126.208 214.937 126.208 214.988 126.157C215.193 126.106 215.347 126.003 215.552 125.952C215.859 125.85 216.166 125.696 216.422 125.594C216.524 125.542 216.627 125.491 216.729 125.44C216.934 125.338 217.139 125.286 217.292 125.184C217.395 125.133 217.497 125.082 217.6 125.03C217.702 124.979 217.804 124.928 217.907 124.877C218.265 124.672 218.624 124.518 218.982 124.314C219.084 124.262 219.187 124.211 219.238 124.16C219.34 124.109 219.392 124.058 219.494 124.006C220.006 123.699 220.467 123.392 220.979 123.085C221.03 123.034 221.132 122.982 221.184 122.931C221.388 122.778 221.593 122.624 221.849 122.47C221.9 122.419 222.003 122.368 222.054 122.317C222.31 122.112 222.515 121.958 222.72 121.754C222.771 121.702 222.873 121.651 222.924 121.549C223.232 121.293 223.488 121.037 223.795 120.781C223.846 120.73 223.948 120.627 224 120.576C224.051 120.525 224.153 120.422 224.204 120.371C224.204 120.371 224.204 120.371 224.256 120.32C224.307 120.269 224.358 120.218 224.409 120.115C224.563 119.962 224.665 119.808 224.819 119.654C224.87 119.603 224.921 119.501 224.972 119.45C225.024 119.398 225.075 119.296 225.126 119.245C225.228 119.091 225.331 118.938 225.433 118.784C225.484 118.733 225.536 118.63 225.587 118.579C225.689 118.426 225.792 118.272 225.843 118.17C225.894 118.067 225.945 117.965 225.996 117.862C226.048 117.76 226.099 117.658 226.15 117.555C226.201 117.453 226.252 117.402 226.252 117.299C226.252 117.248 226.304 117.248 226.304 117.197C226.355 117.094 226.406 117.043 226.406 116.941C226.457 116.838 226.508 116.736 226.508 116.634C226.56 116.531 226.611 116.429 226.611 116.326C226.662 116.224 226.662 116.173 226.713 116.07C226.713 116.07 226.713 116.07 226.713 116.019C226.713 115.968 226.764 115.917 226.764 115.866C226.764 115.814 226.764 115.814 226.816 115.763C226.867 115.661 226.867 115.558 226.918 115.507C226.969 115.405 226.969 115.302 227.02 115.2C227.02 115.149 227.072 115.046 227.072 114.995C227.072 114.944 227.072 114.893 227.072 114.842C227.072 114.739 227.072 114.688 227.123 114.586C227.123 114.534 227.123 114.534 227.123 114.483C227.123 114.432 227.123 114.381 227.123 114.33C227.123 114.278 227.123 114.227 227.123 114.176C227.123 114.125 227.123 114.074 227.123 114.022C227.123 113.971 227.123 113.92 227.123 113.869C227.123 113.869 227.123 113.869 227.123 113.818V113.766C227.123 113.715 227.123 113.664 227.123 113.613C227.123 113.562 227.123 113.51 227.123 113.459C227.123 113.408 227.123 113.357 227.123 113.306C227.123 113.254 227.123 113.152 227.123 113.101C227.123 113.05 227.123 112.947 227.123 112.896C227.123 112.845 227.123 112.742 227.072 112.691C227.072 112.64 227.072 112.64 227.072 112.589C227.072 112.538 227.072 112.538 227.072 112.486C227.072 112.435 227.02 112.333 227.02 112.282L227.072 112.589V112.64L227.123 112.947C227.123 113.05 227.174 113.101 227.174 113.203V113.254V113.306V113.357C227.174 113.357 227.174 113.357 227.174 113.408C227.174 113.459 227.174 113.51 227.174 113.562C227.174 113.613 227.174 113.715 227.225 113.766C227.225 113.766 227.225 113.766 227.225 113.818C227.635 113.971 227.635 114.227 227.635 114.432Z" fill="black"/>
<path d="M210.945 115.866C212.942 117.146 213.198 118.272 211.764 119.654C210.228 121.19 207.924 121.754 205.466 121.293L204.545 122.163C204.289 122.419 203.828 122.522 203.47 122.419C203.111 122.317 203.06 122.061 203.316 121.805L204.186 120.934C202.446 120.269 201.882 119.142 202.702 117.811C202.804 117.658 203.009 117.504 203.265 117.402C203.521 117.299 203.777 117.299 203.982 117.35C204.289 117.453 204.391 117.658 204.289 117.862C203.828 118.784 204.135 119.552 205.159 120.013L208.999 116.224C207.361 115.2 206.593 114.227 208.129 112.691C209.511 111.309 211.866 110.746 214.119 111.206L214.682 110.643C214.938 110.387 215.399 110.285 215.758 110.387C216.116 110.49 216.167 110.746 215.911 111.002L215.297 111.565C217.294 112.384 217.089 113.562 216.782 114.176C216.679 114.33 216.474 114.483 216.218 114.586C215.962 114.688 215.655 114.688 215.45 114.637C215.143 114.534 215.041 114.381 215.143 114.125C215.502 113.357 215.246 112.794 214.375 112.435L210.945 115.866ZM206.388 120.422C208.026 120.73 209.306 120.371 210.33 119.347C211.098 118.579 211.354 117.862 209.972 116.89L206.388 120.422ZM209.972 115.251L213.146 112.077C211.201 111.718 210.074 112.486 209.511 112.998C208.743 113.869 208.846 114.483 209.972 115.251Z" fill="#002C15"/>
<path d="M74.8008 43.9808L79.8696 41.8304C82.1224 40.9088 84.9896 41.4208 87.9592 43.6224C93.8984 48.0768 97.9944 57.7536 97.124 65.1264L92.0552 67.2767C92.9768 59.8527 88.8808 50.2272 82.8904 45.7728C79.9208 43.5712 77.0536 43.0592 74.8008 43.9808Z" fill="black"/>
<path d="M92.7211 72.2944L87.6523 74.4448C89.9051 73.472 91.5435 71.0144 92.0043 67.2768L97.0731 65.1264C96.6635 68.864 95.0251 71.3728 92.7211 72.2944Z" fill="black"/>
<path d="M70.4492 51.1488C70.91 47.4112 72.5484 44.9536 74.8012 43.9808L79.87 41.8304C77.6172 42.8032 75.9788 45.2608 75.518 48.9984C73.982 49.664 71.9852 50.4832 70.4492 51.1488Z" fill="#FF7F5F"/>
<path d="M74.7509 43.8272L79.8197 41.6768C77.5157 42.6496 75.8773 45.1584 75.4165 48.896L70.3477 51.0464C70.7573 47.2576 72.4469 44.8 74.7509 43.8272Z" fill="black"/>
<path d="M92.6701 72.3456L92.3629 72.4992L91.8509 72.704H91.7997L91.3901 72.8576L87.7037 74.3936H87.6525C86.4749 74.8544 85.1949 74.9568 83.7613 74.6496L88.4717 72.6016C88.3181 72.5504 88.1645 72.4992 88.0109 72.448C87.9597 72.448 87.9085 72.3968 87.8061 72.3968C87.7549 72.3968 87.7037 72.3456 87.6013 72.3456C87.5501 72.3456 87.4477 72.2944 87.3965 72.2432C87.2941 72.192 87.2429 72.192 87.1405 72.1408C86.9869 72.0896 86.7821 71.9872 86.6285 71.8848C86.5773 71.8848 86.5261 71.8336 86.5261 71.8336C86.3213 71.7312 86.0653 71.5776 85.8605 71.4752C85.8093 71.424 85.7069 71.3728 85.6557 71.3728C85.6045 71.3216 85.5533 71.3216 85.5021 71.2704C85.3997 71.2192 85.3485 71.168 85.2461 71.1168C85.2461 71.1168 85.1949 71.1168 85.1949 71.0656C85.0925 71.0144 84.9901 70.9632 84.9389 70.8608C84.8365 70.8096 84.7341 70.7072 84.6829 70.656C83.9661 70.144 83.3005 69.5296 82.6861 68.9152L77.7709 71.0656C72.8557 66.1504 69.6301 57.7536 70.4493 51.1488L75.4157 49.0496L75.5181 48.9984C75.5181 49.152 75.4669 49.3568 75.4669 49.5104C75.4669 49.6128 75.4669 49.664 75.4669 49.7664C75.4157 50.3296 75.4157 50.8928 75.4157 51.456C75.4157 51.6608 75.4157 51.9168 75.4157 52.1216C75.4157 52.224 75.4157 52.3264 75.4157 52.48C75.4157 52.5824 75.4157 52.6848 75.4157 52.8384C75.4157 53.0432 75.4669 53.2992 75.4669 53.504C75.5181 53.76 75.5181 53.9648 75.5693 54.2208C75.5693 54.3232 75.6205 54.4256 75.6205 54.528C75.6205 54.6304 75.6717 54.7328 75.6717 54.8864C75.6717 54.9888 75.7229 55.0912 75.7229 55.2448C75.7741 55.6032 75.8765 55.9104 75.9277 56.2688C75.9277 56.3712 75.9789 56.5248 76.0301 56.6272C76.0813 56.7296 76.0813 56.832 76.1325 56.9856C76.1837 57.088 76.1837 57.1904 76.2349 57.344C76.3373 57.7024 76.4397 58.0608 76.5421 58.368C76.5933 58.5728 76.6445 58.7776 76.7469 58.9824C76.7469 59.0336 76.7981 59.0848 76.7981 59.136C76.8493 59.2384 76.8493 59.3408 76.9005 59.392C76.9517 59.4944 77.0029 59.5968 77.0029 59.7504C77.1053 60.0064 77.2077 60.2624 77.3101 60.4672C77.4125 60.672 77.4637 60.8768 77.5661 61.0304C77.7197 61.3888 77.8733 61.696 78.0269 62.0032C78.0781 62.1056 78.1293 62.208 78.1805 62.3104C78.2829 62.5152 78.3853 62.7712 78.5389 62.976C78.6413 63.1808 78.7437 63.3344 78.8461 63.5392C78.9485 63.6928 78.9997 63.7952 79.1021 63.9488C79.1533 64.0512 79.2045 64.1024 79.2557 64.2048C79.3069 64.3072 79.3581 64.4096 79.4605 64.512C79.5117 64.6144 79.5629 64.7168 79.6653 64.8192C79.7165 64.9216 79.8189 65.024 79.8701 65.1776C79.9725 65.3824 80.1261 65.536 80.2285 65.7408C80.3821 65.9456 80.4845 66.0992 80.6381 66.304C80.6893 66.4064 80.7917 66.5088 80.8429 66.56C80.8941 66.6624 80.9965 66.7648 81.0477 66.816C81.2013 67.0208 81.3037 67.1744 81.4573 67.3792C81.5085 67.4816 81.6109 67.5328 81.6621 67.6352C81.7645 67.7376 81.8157 67.84 81.9181 67.8912C82.0717 68.0448 82.2253 68.2496 82.3789 68.4032C82.5325 68.608 82.7373 68.7616 82.8909 68.9152C83.0445 69.0688 83.1981 69.1712 83.3005 69.3248C83.4029 69.376 83.4541 69.4784 83.5565 69.5296C83.5565 69.5296 83.5565 69.5296 83.6077 69.5296C83.7613 69.632 83.8637 69.7856 84.0173 69.888C84.2733 70.0928 84.5805 70.3488 84.8365 70.5536C84.8877 70.6048 84.9389 70.656 85.0413 70.7072C85.0925 70.7072 85.0925 70.7584 85.1437 70.7584C85.1949 70.7584 85.1949 70.8096 85.2461 70.8096C85.2973 70.8608 85.3485 70.8608 85.3997 70.912C85.3997 70.912 85.4509 70.912 85.4509 70.9632C85.5021 71.0144 85.5533 71.0656 85.6045 71.0656L85.6557 71.1168C85.7069 71.1168 85.7581 71.168 85.7581 71.168C85.8093 71.168 85.8605 71.2192 85.8605 71.2704C85.8605 71.2704 85.9117 71.2704 85.9117 71.3216C86.0141 71.3728 86.1165 71.424 86.2189 71.4752C86.2189 71.4752 86.2701 71.5264 86.3213 71.5264C86.3213 71.5264 86.3213 71.5264 86.3725 71.5264C86.4237 71.5264 86.4237 71.5776 86.4749 71.5776C86.4749 71.5776 86.5261 71.5776 86.5261 71.6288C86.6285 71.68 86.6797 71.7312 86.7821 71.7824C86.8845 71.8336 86.9357 71.8848 87.0381 71.8848C87.0893 71.8848 87.1405 71.936 87.1917 71.936C87.2429 71.936 87.2941 71.9872 87.3453 71.9872C87.3965 71.9872 87.4477 72.0384 87.4989 72.0384C87.5501 72.0384 87.6013 72.0896 87.6525 72.0896C87.6525 72.0896 87.7037 72.0896 87.7037 72.1408C87.7549 72.1408 87.8061 72.192 87.9085 72.192C87.9597 72.192 88.0109 72.2432 88.0109 72.2432C88.0621 72.2432 88.1133 72.2944 88.2157 72.2944H88.2669C88.3181 72.2944 88.3693 72.3456 88.4717 72.3456C88.5741 72.3968 88.6765 72.3968 88.7789 72.448C88.8301 72.448 88.8813 72.4992 88.9325 72.4992C88.9325 72.4992 88.9325 72.4992 88.9837 72.4992C89.0861 72.4992 89.1885 72.5504 89.2909 72.5504C89.3421 72.5504 89.3933 72.5504 89.4445 72.6016H89.4957C89.4957 72.6016 89.4957 72.6016 89.5469 72.6016C89.5981 72.6016 89.6493 72.6016 89.7005 72.6016C89.7517 72.6016 89.7517 72.6016 89.8029 72.6016C89.8541 72.6016 89.9053 72.6016 89.9565 72.6016C90.0077 72.6016 90.0589 72.6016 90.1101 72.6016C90.1613 72.6016 90.2125 72.6016 90.2637 72.6016C90.3149 72.6016 90.3149 72.6016 90.3661 72.6016C90.3661 72.6016 90.3661 72.6016 90.4173 72.6016H90.4685C90.5197 72.6016 90.5197 72.6016 90.5709 72.6016C90.6221 72.6016 90.6733 72.6016 90.6733 72.6016C90.7245 72.6016 90.7757 72.6016 90.7757 72.6016C90.8781 72.6016 90.9293 72.6016 91.0317 72.6016C91.0829 72.6016 91.1341 72.6016 91.1853 72.6016C91.2365 72.6016 91.2877 72.6016 91.2877 72.6016C91.3389 72.6016 91.3901 72.6016 91.4413 72.6016C91.5949 72.6016 91.7997 72.5504 91.9533 72.4992C92.0045 72.4992 92.0557 72.4992 92.1581 72.448C92.2605 72.3968 92.4141 72.3968 92.5165 72.3456H92.5677C92.6189 72.3456 92.7213 72.2944 92.7725 72.2944C92.5677 72.3968 92.6189 72.3456 92.6701 72.3456Z" fill="#FF7F5F"/>
<path d="M75.5189 48.9984C76.4405 41.5744 82.0213 39.168 87.9605 43.6224C93.8997 48.0768 97.9957 57.7536 97.1253 65.1264C96.2549 72.4992 90.6229 74.9568 84.6837 70.5024C78.7445 66.048 74.5973 56.4224 75.5189 48.9984Z" fill="#C3F53C"/>
<path d="M92.7729 72.4992L87.7553 74.5984C86.5265 75.1104 85.0929 75.2128 83.5569 74.8032C82.2769 74.4448 80.9457 73.8304 79.6145 72.8064C78.9489 72.2944 78.2833 71.7312 77.6689 71.1168C72.7025 66.1504 69.5281 57.7024 70.3473 51.0464L70.5009 50.9952L72.9073 49.9712L75.4673 48.896C75.4673 48.9472 75.4673 48.9984 75.4673 49.0496C74.6993 55.6544 77.8737 63.9488 82.7377 68.9152L77.8225 71.0656C78.3857 71.6288 79.0001 72.192 79.6657 72.6528C81.0993 73.728 82.5329 74.3936 83.8641 74.7008L88.5745 72.6528C88.6769 72.6528 88.7281 72.704 88.8305 72.704C88.9329 72.704 89.0353 72.7552 89.0865 72.7552C89.1377 72.7552 89.2401 72.8064 89.2913 72.8064C89.3937 72.8064 89.4961 72.8576 89.5985 72.8576C89.6497 72.8576 89.7521 72.8576 89.8033 72.8576C89.9057 72.8576 90.0081 72.8576 90.1105 72.9088C90.1617 72.9088 90.2129 72.9088 90.2641 72.9088C90.4177 72.9088 90.5713 72.9088 90.7249 72.9088C90.7761 72.9088 90.8273 72.9088 90.8785 72.9088C90.9297 72.9088 90.9809 72.9088 90.9809 72.9088C91.0833 72.9088 91.1345 72.9088 91.1857 72.9088C91.2369 72.9088 91.2369 72.9088 91.2881 72.9088H91.3393C91.3393 72.9088 91.3393 72.9088 91.3905 72.9088H91.4417C91.4929 72.9088 91.5441 72.9088 91.5953 72.9088C91.6465 72.9088 91.6977 72.9088 91.7489 72.9088H91.8001C91.8513 72.9088 91.9025 72.9088 91.9537 72.8576C92.0049 72.8576 92.1073 72.8064 92.1585 72.8064C92.2097 72.8064 92.3121 72.7552 92.3633 72.7552C92.4657 72.704 92.5169 72.704 92.6193 72.6528C92.6705 72.5504 92.7217 72.5504 92.7729 72.4992Z" fill="black"/>
<path d="M87.9606 43.4688C85.4518 41.5744 83.0454 40.9088 80.9462 41.3184C80.5366 41.3696 80.1782 41.5232 79.8198 41.6768C79.8198 41.6768 79.8198 41.6768 79.7686 41.6768C79.7686 41.6768 79.7686 41.6768 79.7174 41.6768C79.6662 41.6768 79.6662 41.728 79.615 41.728C79.615 41.728 79.5638 41.728 79.5638 41.7792H79.5126C79.5126 41.7792 79.5126 41.7792 79.4614 41.7792C79.4102 41.8304 79.359 41.8304 79.3078 41.8816C79.2566 41.9328 79.2054 41.9328 79.1542 41.984C79.103 42.0352 79.0518 42.0352 79.0006 42.0864C78.9494 42.1376 78.8982 42.1376 78.847 42.1888C78.7958 42.24 78.7446 42.2912 78.6422 42.3424L78.591 42.3936C78.5398 42.3936 78.5398 42.4448 78.4886 42.496C78.4374 42.5472 78.3862 42.5472 78.3862 42.5984C78.335 42.5984 78.335 42.6496 78.2838 42.6496C78.2326 42.7008 78.2326 42.7008 78.1814 42.752C78.1302 42.8032 78.1302 42.8032 78.079 42.8544C78.0278 42.9056 77.9766 42.9568 77.9254 43.008C77.8742 43.0592 77.8742 43.1104 77.823 43.1104L77.7718 43.1616C77.7206 43.2128 77.6694 43.264 77.6694 43.3152C77.6182 43.3664 77.567 43.4176 77.5158 43.4688C77.5158 43.4688 77.5158 43.4688 77.4646 43.52C77.4646 43.5712 77.4134 43.5712 77.4134 43.6224C77.4134 43.6224 77.4134 43.6224 77.4134 43.6736C77.3622 43.7248 77.311 43.776 77.311 43.8272L77.2598 43.8784C77.2086 43.9296 77.2086 43.9808 77.1574 44.032C77.1062 44.0832 77.1062 44.1344 77.055 44.1856C77.0038 44.2368 76.9526 44.288 76.9526 44.3904C76.9014 44.4928 76.799 44.6464 76.7478 44.7488C76.6966 44.8 76.6966 44.8512 76.6454 44.9024C76.5942 45.0048 76.543 45.056 76.543 45.1584C76.543 45.2096 76.4918 45.2608 76.4918 45.312C76.4406 45.3632 76.4406 45.4656 76.3894 45.5168C76.3382 45.568 76.3382 45.6704 76.287 45.7216C76.287 45.7728 76.2358 45.824 76.2358 45.824V45.8752C76.2358 45.9264 76.2358 45.9264 76.1846 45.9776C76.1846 46.0288 76.1846 46.0288 76.1334 46.08V46.1312C76.1334 46.1824 76.0822 46.2848 76.0822 46.336C76.0822 46.3872 76.0822 46.3872 76.031 46.4384C76.031 46.5408 75.9798 46.592 75.9798 46.6944C75.9798 46.7968 75.9286 46.848 75.9286 46.9504C75.9286 47.0016 75.8774 47.104 75.8774 47.1552C75.8774 47.2576 75.8262 47.3088 75.8262 47.4112C75.8262 47.4624 75.775 47.5648 75.775 47.616C75.775 47.6672 75.7238 47.7696 75.7238 47.8208C75.7238 47.872 75.6726 47.9744 75.6726 48.0256C75.6726 48.0768 75.6726 48.1792 75.6214 48.2304C75.6214 48.2816 75.6214 48.3328 75.6214 48.384C75.6214 48.4864 75.5702 48.5888 75.5702 48.6912C75.5702 48.7424 75.5702 48.7936 75.5702 48.8448C74.8022 55.4496 77.9766 63.744 82.8406 68.7104C83.5062 69.376 84.1718 69.9392 84.8374 70.4512C84.9398 70.5024 85.0422 70.6048 85.0934 70.656C85.1958 70.7072 85.247 70.7584 85.3494 70.8608C85.3494 70.8608 85.4006 70.8608 85.4006 70.912C85.503 70.9632 85.5542 71.0144 85.6566 71.0656C85.7078 71.1168 85.759 71.1168 85.8102 71.168C85.8614 71.2192 85.9638 71.2704 86.015 71.2704C86.2198 71.424 86.4758 71.5264 86.6806 71.6288C86.7318 71.6288 86.783 71.68 86.783 71.68C86.9366 71.7824 87.1414 71.8336 87.295 71.936C87.3974 71.9872 87.4486 72.0384 87.551 72.0384C87.6022 72.0896 87.7046 72.0896 87.7558 72.1408C87.807 72.1408 87.8582 72.192 87.9606 72.192C88.0118 72.192 88.063 72.2432 88.1654 72.2432C88.319 72.2944 88.4726 72.3456 88.6262 72.3968C88.7286 72.3968 88.7798 72.448 88.8822 72.448C88.9846 72.448 89.087 72.4992 89.1382 72.4992C89.1894 72.4992 89.2918 72.5504 89.343 72.5504C89.4454 72.5504 89.5478 72.6016 89.6502 72.6016C89.7014 72.6016 89.8038 72.6016 89.855 72.6016C89.9574 72.6016 90.0598 72.6016 90.1622 72.6528C90.2134 72.6528 90.2646 72.6528 90.3158 72.6528C90.4694 72.6528 90.623 72.6528 90.7766 72.6528C90.8278 72.6528 90.879 72.6528 90.9302 72.6528C90.9814 72.6528 91.0326 72.6528 91.0326 72.6528C91.135 72.6528 91.1862 72.6528 91.2374 72.6528C91.2886 72.6528 91.2886 72.6528 91.3398 72.6528H91.391H91.4422H91.4934C91.5446 72.6528 91.5958 72.6528 91.647 72.6528C91.6982 72.6528 91.7494 72.6528 91.8006 72.6528H91.8518C91.903 72.6528 91.9542 72.6528 92.0054 72.6016C92.0566 72.6016 92.159 72.5504 92.2102 72.5504C92.2614 72.5504 92.3638 72.4992 92.415 72.4992C92.5174 72.448 92.5686 72.448 92.671 72.3968C92.7222 72.3968 92.7734 72.3456 92.8246 72.3456C93.1318 72.192 93.4902 72.0384 93.7974 71.8336C94.207 71.5776 94.6166 71.2192 94.975 70.8096C95.4358 70.3488 95.7942 69.7856 96.1526 69.12C96.3062 68.864 96.4086 68.5568 96.5622 68.2496C96.9206 67.328 97.1766 66.2528 97.3302 65.1264C97.3302 65.024 97.3302 64.9728 97.3814 64.8704C98.047 57.5488 93.951 47.9232 87.9606 43.4688ZM96.3574 68.1984C96.3574 68.2496 96.3574 68.2496 96.3574 68.2496V68.3008C96.3574 68.352 96.3062 68.4032 96.3062 68.4032C96.3062 68.4544 96.3062 68.4544 96.255 68.5056C96.255 68.5056 96.255 68.5568 96.2038 68.5568C96.2038 68.608 96.1526 68.608 96.1526 68.6592C96.1526 68.7104 96.1526 68.7104 96.1014 68.7616C96.1014 68.8128 96.0502 68.864 96.0502 68.864C95.999 68.9664 95.999 69.0176 95.9478 69.0688C95.8966 69.1712 95.8454 69.2224 95.7942 69.3248C95.7942 69.376 95.743 69.4272 95.743 69.4784C95.6918 69.5296 95.6918 69.5808 95.6406 69.632C95.6406 69.632 95.6406 69.6832 95.5894 69.6832C95.5382 69.7344 95.487 69.8368 95.487 69.888C95.487 69.888 95.487 69.9392 95.4358 69.9392C95.4358 69.9904 95.3846 69.9904 95.3334 70.0416C95.3334 70.0416 95.3334 70.0416 95.3334 70.0928C95.2822 70.144 95.2822 70.1952 95.231 70.2464C95.1798 70.2976 95.1286 70.3488 95.1286 70.4C95.1286 70.4512 95.0774 70.4512 95.0774 70.5024C95.0774 70.5024 95.0774 70.5024 95.0262 70.5536L94.975 70.6048L94.9238 70.656C94.8726 70.7072 94.8726 70.7072 94.8214 70.7584L94.7702 70.8096L94.719 70.8608C94.719 70.8608 94.719 70.8608 94.6678 70.912C94.6166 70.9632 94.5654 71.0144 94.5142 71.0656C94.463 71.1168 94.4118 71.168 94.3606 71.168C94.3094 71.2192 94.3094 71.2192 94.2582 71.2192C94.207 71.2704 94.207 71.2704 94.1558 71.2704C94.1558 71.2704 94.1558 71.2704 94.1046 71.3216C94.1046 71.3216 94.1046 71.3216 94.0534 71.3728L94.0022 71.424C93.951 71.424 93.951 71.4752 93.8998 71.5264L93.8486 71.5776C93.7974 71.6288 93.7462 71.6288 93.695 71.68C93.695 71.68 93.6438 71.68 93.6438 71.7312C93.5926 71.7312 93.5926 71.7824 93.5414 71.7824C93.5414 71.7824 93.5414 71.7824 93.4902 71.7824C93.4902 71.7824 93.4902 71.7824 93.439 71.7824C93.3878 71.7824 93.3366 71.8336 93.3366 71.8336L93.2854 71.8848C93.2854 71.8848 93.2854 71.8848 93.2342 71.8848C93.2342 71.8848 93.183 71.8848 93.183 71.936C93.1318 71.936 93.0806 71.9872 93.0294 71.9872C92.927 72.0384 92.8758 72.0896 92.7734 72.0896C92.7222 72.0896 92.7222 72.0896 92.671 72.1408C92.671 72.1408 92.671 72.1408 92.6198 72.1408C92.5686 72.1408 92.5174 72.192 92.4662 72.192C92.415 72.192 92.3638 72.2432 92.2614 72.2432H92.2102C92.1078 72.2944 91.9542 72.2944 91.8518 72.3456C91.8006 72.3456 91.7494 72.3968 91.647 72.3968C91.4934 72.448 91.2886 72.448 91.135 72.4992C91.0838 72.4992 91.0326 72.4992 90.9814 72.4992C90.9302 72.4992 90.879 72.4992 90.879 72.4992C90.8278 72.4992 90.7766 72.4992 90.7254 72.4992C90.623 72.4992 90.5718 72.4992 90.4694 72.4992C90.4182 72.4992 90.367 72.4992 90.367 72.4992C90.3158 72.4992 90.2646 72.4992 90.2646 72.4992C90.2134 72.4992 90.2134 72.4992 90.1622 72.4992H90.111C90.111 72.4992 90.111 72.4992 90.0598 72.4992C90.0086 72.4992 90.0086 72.4992 89.9574 72.4992C89.9062 72.4992 89.855 72.4992 89.8038 72.4992C89.7526 72.4992 89.7014 72.4992 89.6502 72.4992C89.599 72.4992 89.5478 72.4992 89.4966 72.4992C89.4454 72.4992 89.4454 72.4992 89.3942 72.4992C89.343 72.4992 89.2918 72.4992 89.2406 72.4992C89.2406 72.4992 89.2406 72.4992 89.1894 72.4992H89.1382C89.087 72.4992 89.0358 72.4992 88.9846 72.448C88.8822 72.448 88.7798 72.3968 88.6774 72.3968C88.6774 72.3968 88.6774 72.3968 88.6262 72.3968C88.575 72.3968 88.5238 72.3968 88.4726 72.3456C88.3702 72.2944 88.2678 72.2944 88.1654 72.2432C88.1142 72.2432 88.063 72.192 87.9606 72.192H87.9094C87.8582 72.192 87.807 72.1408 87.7046 72.1408C87.6534 72.1408 87.6022 72.0896 87.6022 72.0896C87.551 72.0896 87.4998 72.0384 87.3974 72.0384C87.3974 72.0384 87.3462 72.0384 87.3462 71.9872C87.295 71.9872 87.2438 71.936 87.1926 71.936C87.1414 71.936 87.0902 71.8848 87.039 71.8848C86.9878 71.8848 86.9366 71.8336 86.8854 71.8336C86.8342 71.8336 86.783 71.7824 86.7318 71.7824C86.6294 71.7312 86.5782 71.68 86.4758 71.68C86.3734 71.6288 86.3222 71.5776 86.2198 71.5264C86.2198 71.5264 86.1686 71.5264 86.1686 71.4752C86.1174 71.4752 86.1174 71.424 86.0662 71.424C86.0662 71.424 86.0662 71.424 86.015 71.424C85.9638 71.424 85.9638 71.3728 85.9126 71.3728C85.8102 71.3216 85.7078 71.2704 85.6054 71.2192C85.6054 71.2192 85.5542 71.2192 85.5542 71.168C85.503 71.1168 85.4518 71.1168 85.4518 71.0656C85.4006 71.0656 85.3494 71.0144 85.3494 71.0144L85.2982 70.9632C85.247 70.912 85.1958 70.912 85.1446 70.8608C85.1446 70.8608 85.0934 70.8608 85.0934 70.8096C85.0422 70.7584 84.991 70.7584 84.9398 70.7072C84.8886 70.7072 84.8886 70.656 84.8374 70.656C84.7862 70.656 84.7862 70.6048 84.735 70.6048C84.6838 70.5536 84.6326 70.5024 84.5302 70.4512C84.2742 70.2464 83.967 70.0416 83.711 69.7856C83.5574 69.6832 83.455 69.5808 83.3014 69.4272C83.3014 69.4272 83.3014 69.4272 83.2502 69.4272C83.1478 69.376 83.0966 69.2736 82.9942 69.2224C82.8406 69.0688 82.687 68.9664 82.5846 68.8128C82.431 68.6592 82.2262 68.4544 82.0726 68.3008C81.919 68.1472 81.7654 67.9936 81.6118 67.7888C81.5094 67.6864 81.4582 67.584 81.3558 67.5328C81.3046 67.4304 81.2022 67.3792 81.151 67.2768C80.9974 67.1232 80.8438 66.9184 80.7414 66.7136C80.6902 66.6112 80.5878 66.5088 80.5366 66.4576C80.4854 66.3552 80.383 66.2528 80.3318 66.2016C80.1782 65.9968 80.0758 65.8432 79.9222 65.6384C79.8198 65.4336 79.6662 65.28 79.5638 65.0752C79.5126 64.9728 79.4102 64.8704 79.359 64.7168C79.3078 64.6144 79.2566 64.512 79.1542 64.4096C79.103 64.3072 79.0518 64.2048 78.9494 64.1024C78.8982 64 78.847 63.9488 78.7958 63.8464C78.6934 63.6928 78.6422 63.5904 78.5398 63.4368C78.4374 63.232 78.335 63.0784 78.2326 62.8736C78.1302 62.6688 78.0278 62.4128 77.8742 62.208C77.823 62.1056 77.7718 62.0032 77.7206 61.9008C77.567 61.5936 77.4134 61.2352 77.2598 60.928C77.1574 60.7232 77.1062 60.5184 77.0038 60.3648C76.9014 60.1088 76.799 59.8528 76.6966 59.648C76.6454 59.5456 76.5942 59.4432 76.5942 59.2896C76.543 59.1872 76.543 59.0848 76.4918 59.0336C76.4918 58.9824 76.4406 58.9312 76.4406 58.88C76.3894 58.6752 76.287 58.4704 76.2358 58.2656C76.1334 57.9072 76.031 57.5488 75.9286 57.2416C75.8774 57.1392 75.8774 57.0368 75.8262 56.8832C75.775 56.7808 75.775 56.6784 75.7238 56.5248C75.6726 56.4224 75.6726 56.2688 75.6214 56.1664C75.519 55.808 75.4678 55.4496 75.4166 55.1424C75.4166 55.04 75.3654 54.9376 75.3654 54.784C75.3654 54.6816 75.3142 54.5792 75.3142 54.4256C75.3142 54.3232 75.263 54.2208 75.263 54.1184C75.2118 53.8624 75.2118 53.6576 75.1606 53.4016C75.1094 53.1968 75.1094 52.9408 75.1094 52.736C75.1094 52.6336 75.1094 52.5312 75.1094 52.3776C75.1094 52.2752 75.1094 52.1728 75.1094 52.0192C75.1094 51.8144 75.1094 51.5584 75.1094 51.3536C75.1094 50.7904 75.1094 50.2272 75.1606 49.664C75.1606 49.5616 75.1606 49.5104 75.1606 49.408C75.1606 49.2544 75.2118 49.0496 75.2118 48.896C75.2118 48.7936 75.2118 48.7424 75.263 48.6912C75.263 48.6912 75.263 48.6912 75.263 48.64V48.5888C75.3142 48.3328 75.3142 48.128 75.3654 47.872C75.3654 47.8208 75.3654 47.8208 75.3654 47.7696C75.3654 47.7184 75.4166 47.616 75.4166 47.5648C75.4166 47.5136 75.4678 47.4112 75.4678 47.36C75.4678 47.2576 75.519 47.2064 75.519 47.104C75.519 47.0528 75.519 47.0016 75.5702 46.9504C75.5702 46.8992 75.6214 46.848 75.6214 46.7968V46.7456C75.6214 46.7456 75.6214 46.7456 75.6214 46.6944C75.6214 46.6432 75.6214 46.6432 75.6726 46.592V46.5408C75.6726 46.4896 75.6726 46.4896 75.7238 46.4384C75.7238 46.4384 75.7238 46.4384 75.7238 46.3872C75.7238 46.336 75.7238 46.336 75.775 46.2848V46.2336V46.1824V46.1312V46.08C75.775 46.08 75.775 46.08 75.775 46.0288V45.9776C75.8262 45.8752 75.8774 45.7728 75.8774 45.6704C75.9286 45.6192 75.9286 45.5168 75.9798 45.4656C76.031 45.4144 76.031 45.312 76.0822 45.2608C76.1334 45.1584 76.1334 45.1072 76.1846 45.0048C76.1846 44.9536 76.2358 44.9536 76.2358 44.9024C76.2358 44.9024 76.2358 44.9024 76.2358 44.8512C76.2358 44.8 76.287 44.7488 76.287 44.6976C76.287 44.6976 76.287 44.6464 76.3382 44.6464C76.3382 44.6464 76.3382 44.5952 76.3894 44.5952C76.3894 44.5952 76.3894 44.5952 76.3894 44.544C76.4406 44.4928 76.4406 44.4416 76.4918 44.3904C76.543 44.3392 76.5942 44.2368 76.5942 44.1856C76.5942 44.1344 76.6454 44.1344 76.6454 44.0832C76.6966 44.032 76.6966 43.9808 76.7478 43.9296C76.799 43.8784 76.799 43.8272 76.8502 43.776C76.8502 43.776 76.8502 43.7248 76.9014 43.7248C76.9526 43.6736 77.0038 43.6224 77.0038 43.5712L77.055 43.52L77.1062 43.4688C77.1574 43.4176 77.1574 43.4176 77.2086 43.3664C77.2598 43.3152 77.311 43.264 77.3622 43.1616C77.4134 43.1104 77.4646 43.0592 77.4646 43.008L77.5158 42.9568L77.567 42.9056C77.6182 42.8544 77.6182 42.8544 77.6694 42.8032C77.7206 42.752 77.7206 42.752 77.7718 42.7008C77.7718 42.7008 77.823 42.6496 77.8742 42.6496C77.8742 42.6496 77.8742 42.6496 77.9254 42.5984L77.9766 42.5472C77.9766 42.5472 77.9766 42.5472 78.0278 42.5472C78.079 42.496 78.1302 42.4448 78.1814 42.4448C78.2326 42.3936 78.2838 42.3936 78.335 42.3424C78.3862 42.2912 78.4374 42.2912 78.4886 42.24C78.5398 42.24 78.5398 42.1888 78.591 42.1888C78.6422 42.1888 78.6422 42.1376 78.6934 42.1376C78.6934 42.1376 78.7446 42.1376 78.7446 42.0864C78.7446 42.0864 78.7446 42.0864 78.7958 42.0864C78.7958 42.0864 78.7958 42.0864 78.847 42.0864C78.847 42.0864 78.8982 42.0864 78.8982 42.0352C78.8982 42.0352 78.9494 42.0352 78.9494 41.984C78.9494 41.984 79.0006 41.984 79.0006 41.9328C79.0518 41.9328 79.0518 41.8816 79.103 41.8816C79.103 41.8816 79.103 41.8816 79.1542 41.8816C79.1542 41.8816 79.2054 41.8816 79.2054 41.8304C79.2054 41.8304 79.2054 41.8304 79.2566 41.8304H79.3078C79.3078 41.8304 79.3078 41.8304 79.359 41.8304C79.4102 41.8304 79.4102 41.7792 79.4614 41.7792C79.4614 41.7792 79.4614 41.7792 79.5126 41.7792C79.5126 41.7792 79.5126 41.7792 79.5638 41.7792C79.5638 41.7792 79.615 41.7792 79.615 41.728C79.6662 41.728 79.7174 41.6768 79.8198 41.6768H79.871H79.9222C79.9734 41.6768 80.0246 41.6768 80.0758 41.6256H80.127H80.1782H80.2294C80.2806 41.6256 80.3318 41.6256 80.383 41.5744C80.4342 41.5744 80.5366 41.5232 80.5878 41.5232C80.639 41.5232 80.6902 41.5232 80.7414 41.5232C80.7926 41.5232 80.7926 41.5232 80.8438 41.5232H80.895C80.9462 41.5232 80.9974 41.5232 81.0486 41.5232C81.0486 41.5232 81.0486 41.5232 81.0998 41.5232H81.151C81.2022 41.5232 81.3046 41.5232 81.3558 41.5232C81.3558 41.5232 81.3558 41.5232 81.407 41.5232C81.407 41.5232 81.407 41.5232 81.4582 41.5232C81.5606 41.5232 81.6118 41.5232 81.7142 41.5232C81.7654 41.5232 81.8166 41.5232 81.8678 41.5232C81.919 41.5232 81.9702 41.5232 82.0214 41.5232C82.0726 41.5232 82.175 41.5232 82.2262 41.5232C82.3286 41.5232 82.431 41.5232 82.5846 41.5744C82.6358 41.5744 82.687 41.5744 82.7382 41.5744C82.7382 41.5744 82.7382 41.5744 82.7894 41.5744C82.8406 41.5744 82.8918 41.5744 82.943 41.5744C82.9942 41.5744 83.0454 41.5744 83.1478 41.6256C83.199 41.6256 83.2502 41.6256 83.3526 41.6768C83.3526 41.6768 83.3526 41.6768 83.4038 41.6768C83.455 41.6768 83.5062 41.6768 83.5574 41.728C83.6086 41.728 83.6086 41.728 83.6598 41.728H83.711C83.711 41.728 83.711 41.728 83.7622 41.728C83.8134 41.728 83.8646 41.728 83.9158 41.7792C83.9158 41.7792 83.9158 41.7792 83.967 41.7792C84.0182 41.7792 84.0694 41.8304 84.1206 41.8304H84.1718H84.223C84.2742 41.8304 84.3766 41.8816 84.4278 41.8816C84.479 41.8816 84.5814 41.9328 84.6326 41.984C84.6326 41.984 84.6326 41.984 84.6838 41.984C84.8374 42.0352 84.9398 42.0864 85.0934 42.1376C85.0934 42.1376 85.0934 42.1376 85.1446 42.1376C85.1446 42.1376 85.1958 42.1376 85.1958 42.1888C85.1958 42.1888 85.247 42.1888 85.247 42.24H85.2982C85.2982 42.24 85.3494 42.24 85.3494 42.2912C85.4006 42.2912 85.4006 42.2912 85.4518 42.3424C85.503 42.3424 85.5542 42.3936 85.6054 42.3936C85.6566 42.3936 85.7078 42.4448 85.759 42.4448C85.8102 42.4448 85.8614 42.496 85.8614 42.496C85.8614 42.496 85.9126 42.496 85.9126 42.5472C85.9638 42.5472 86.015 42.5984 86.015 42.5984C86.1174 42.6496 86.2198 42.7008 86.3222 42.8032C86.3734 42.8544 86.4758 42.9056 86.527 42.9568C86.5782 43.008 86.6294 43.0592 86.7318 43.0592C86.8342 43.1104 86.8854 43.1616 86.9878 43.2128C87.039 43.264 87.1414 43.3152 87.1926 43.3664C87.2438 43.4176 87.295 43.4176 87.295 43.4688C87.295 43.4688 87.295 43.4688 87.3462 43.4688C87.4486 43.52 87.4998 43.5712 87.6022 43.6224C88.2678 44.1344 88.9334 44.6976 89.5478 45.312C89.7014 45.4656 89.855 45.6192 90.0086 45.7728C90.3158 46.08 90.623 46.4384 90.879 46.7968C91.1862 47.1552 91.4422 47.5136 91.6982 47.872C91.8518 48.0768 91.9542 48.2304 92.1078 48.4352C92.2614 48.64 92.3638 48.8448 92.5174 48.9984C93.0806 49.8688 93.6438 50.8416 94.1046 51.8144C94.207 52.0192 94.3094 52.224 94.4118 52.4288C94.9238 53.504 95.3334 54.6816 95.6918 55.808C95.743 56.0128 95.8454 56.2688 95.8966 56.4736C96.1014 57.1392 96.255 57.856 96.4086 58.5216C96.4598 58.88 96.511 59.1872 96.6134 59.5456C96.9206 61.44 96.9718 63.2832 96.767 65.024C96.767 65.1264 96.7158 65.28 96.7158 65.3824C96.7158 65.4848 96.6646 65.6384 96.6646 65.7408C96.6646 65.792 96.6646 65.792 96.6646 65.8432C96.6646 65.9456 96.6134 66.0992 96.6134 66.2016C96.6134 66.304 96.5622 66.4576 96.511 66.56C96.4598 66.6624 96.4598 66.816 96.4086 66.9184C96.4086 66.9184 96.4086 66.9184 96.4086 66.9696C96.3574 67.072 96.3574 67.1744 96.3062 67.2768C96.255 67.3792 96.255 67.4816 96.2038 67.584C96.1526 67.6864 96.1526 67.7376 96.1014 67.84V67.8912C96.1014 67.9424 96.0502 67.9424 96.0502 67.9936C96.4086 68.1472 96.4086 68.1472 96.3574 68.1984Z" fill="black"/>
<path d="M88.4727 72.6528L83.7623 74.7008C82.4311 74.3936 80.9975 73.728 79.5639 72.6528C78.9495 72.192 78.3351 71.6288 77.7207 71.0656L82.6359 68.9152C83.3015 69.5808 83.9671 70.144 84.6327 70.656C84.7351 70.7072 84.8375 70.8096 84.8887 70.8608C84.9911 70.912 85.0423 70.9632 85.1447 71.0656C85.1447 71.0656 85.1959 71.0656 85.1959 71.1168C85.2983 71.168 85.3495 71.2192 85.4519 71.2704C85.5031 71.3216 85.5543 71.3216 85.6055 71.3728C85.6567 71.424 85.7591 71.4752 85.8103 71.4752C86.0151 71.6288 86.2711 71.7312 86.4759 71.8336C86.5271 71.8336 86.5783 71.8848 86.5783 71.8848C86.7319 71.9872 86.9367 72.0384 87.0903 72.1408C87.1927 72.192 87.2439 72.2432 87.3463 72.2432C87.3975 72.2944 87.4999 72.2944 87.5511 72.3456C87.6023 72.3456 87.6535 72.3968 87.7559 72.3968C87.8071 72.3968 87.8583 72.448 87.9607 72.448C88.1655 72.5504 88.3191 72.6016 88.4727 72.6528Z" fill="white"/>
<path d="M95.1797 67.0208C95.5381 66.2016 95.7429 65.2288 95.8965 64.1536L96.4597 63.8976C96.3061 64.9728 96.1013 65.9456 95.7429 66.7648C95.5893 66.8672 95.3845 66.9184 95.1797 67.0208Z" fill="#FF7F5F"/>
<path d="M92.1074 70.4512C93.4386 69.888 94.5138 68.7104 95.2306 67.0208C95.4354 66.9184 95.6402 66.8672 95.7938 66.7648C95.077 68.4544 94.0018 69.632 92.6706 70.1952C92.4658 70.2976 92.261 70.4 92.1074 70.4512Z" fill="#FF7F5F"/>
<path d="M87.8067 45.056C85.1955 43.1104 82.6355 42.6496 80.6387 43.4688L81.2019 43.2128C83.1987 42.3936 85.7075 42.8544 88.3699 44.8C93.6435 48.7424 97.2787 57.2928 96.4595 63.8976L95.8963 64.1536C96.7155 57.5488 93.0803 48.9984 87.8067 45.056Z" fill="#FF7F5F"/>
<path d="M93.3366 71.936L92.7734 72.192C95.0262 71.2192 96.6646 68.7616 97.1254 65.024L97.6886 64.768C97.279 68.5568 95.6406 71.0144 93.3366 71.936Z" fill="black"/>
<path d="M92.5691 70.0416L92.0059 70.2976C94.0027 69.4784 95.4363 67.328 95.8459 64.0512L96.4091 63.7952C95.9995 67.072 94.5659 69.2224 92.5691 70.0416Z" fill="black"/>
<path d="M79.9219 41.728L80.4851 41.472C82.7379 40.5504 85.6051 41.0624 88.5747 43.264C94.5139 47.7184 98.6099 57.3952 97.7395 64.768L97.1763 65.024C98.0979 57.6 94.0019 47.9744 88.0115 43.52C85.0419 41.3184 82.1747 40.8064 79.9219 41.728Z" fill="black"/>
<path d="M80.7422 43.6736L81.3054 43.4176C83.251 42.5984 85.7598 43.0592 88.371 45.0048C93.5934 48.896 97.1774 57.344 96.3582 63.8464L95.795 64.1024C96.6142 57.6 92.979 49.152 87.8078 45.2608C85.1966 43.264 82.6878 42.8032 80.7422 43.6736Z" fill="black"/>
<path d="M92.0566 70.4512C92.3126 70.3488 92.4662 70.2464 92.671 70.1952C92.671 70.1952 92.671 70.1952 92.6198 70.1952C92.4662 70.2976 92.2102 70.4 92.0566 70.4512Z" fill="#FF7F5F"/>
<path d="M80.69 43.4688L81.2532 43.2128C79.2564 44.0832 77.7716 46.2336 77.362 49.5616L76.7988 49.8176C77.2084 46.4896 78.642 44.3392 80.69 43.4688Z" fill="black"/>
<path d="M75.5703 48.896C76.0311 45.1584 77.6695 42.7008 79.9223 41.728L80.4855 41.472C78.2327 42.4448 76.5943 44.9024 76.1335 48.64C75.9799 48.7424 75.7239 48.7936 75.5703 48.896Z" fill="#FF7F5F"/>
<path d="M79.872 41.5744L80.4352 41.3184C78.1312 42.2912 76.4928 44.8 76.032 48.5376L75.4688 48.7936C75.8784 45.0048 77.568 42.5472 79.872 41.5744Z" fill="black"/>
<path d="M75.4688 50.3808C75.4688 49.8688 75.52 49.3568 75.5712 48.896L76.1344 48.64C76.0832 49.152 76.032 49.6128 76.032 50.1248C75.8272 50.2272 75.6223 50.2784 75.4688 50.3808Z" fill="#FF7F5F"/>
<path d="M92.6197 70.2464L92.0565 70.5024C90.0597 71.3216 87.5509 70.8608 84.8885 68.9152C79.6149 64.9728 75.9797 56.4224 76.7989 49.8176L77.3621 49.5616C76.5429 56.1152 80.1781 64.7168 85.4517 68.6592C88.1141 70.6048 90.6229 71.0656 92.6197 70.2464Z" fill="black"/>
<path d="M77.3633 49.5616C78.1825 43.008 83.0977 40.8576 88.3713 44.8C93.6449 48.7424 97.2801 57.2928 96.4609 63.8976C95.6417 70.4512 90.7265 72.6016 85.4529 68.6592C80.1793 64.7168 76.5441 56.1152 77.3633 49.5616ZM96.3585 63.7952C97.1777 57.2928 93.5425 48.8448 88.3713 44.9536C83.1489 41.0624 78.2849 43.1616 77.4657 49.664C76.6465 56.1664 80.2817 64.6144 85.4529 68.5056C90.7265 72.3968 95.5905 70.2976 96.3585 63.7952Z" fill="black"/>
<path d="M75.4688 50.3808C75.6736 50.2784 75.8784 50.2272 76.032 50.1248C75.776 57.2928 79.7184 65.9968 85.2992 70.144C88.2688 72.3456 91.136 72.8576 93.3888 71.936L92.8256 72.192C90.5728 73.1648 87.7056 72.6016 84.736 70.4C79.1552 66.2528 75.2128 57.5488 75.4688 50.3808Z" fill="#FF7F5F"/>
<path d="M76.1342 48.64C77.0558 41.216 82.6366 38.8096 88.5758 43.264C94.515 47.7184 98.611 57.3952 97.7406 64.768C96.819 72.192 91.2382 74.5984 85.299 70.144C79.3598 65.7408 75.2638 56.064 76.1342 48.64ZM96.5118 63.8976C97.331 57.344 93.6958 48.7424 88.4222 44.8C83.1486 40.8576 78.1822 43.008 77.4142 49.5616C76.595 56.1152 80.2302 64.7168 85.5038 68.6592C90.7774 72.6016 95.6926 70.4512 96.5118 63.8976Z" fill="#C3F53C"/>
<path d="M93.4392 72.1408L92.876 72.3968C90.6232 73.3696 87.7048 72.8064 84.7352 70.6048C78.6936 66.0992 74.5464 56.32 75.468 48.8448L76.0312 48.5888C75.1096 56.1152 79.2568 65.8432 85.2984 70.3488C88.268 72.5504 91.1352 73.1136 93.4392 72.1408Z" fill="black"/>
<path d="M76.0305 48.5376C76.9521 41.0112 82.5841 38.6048 88.6257 43.1104C94.6673 47.616 98.8145 57.3952 97.8929 64.8704C96.9713 72.3968 91.3393 74.8032 85.2977 70.2976C79.2561 65.8432 75.1089 56.064 76.0305 48.5376ZM97.7393 64.8192C98.6609 57.3952 94.5649 47.7696 88.5745 43.3152C82.6353 38.8608 77.0545 41.2672 76.1329 48.6912C75.2113 56.1152 79.3073 65.7408 85.2977 70.1952C91.2369 74.6496 96.8177 72.2432 97.7393 64.8192Z" fill="black"/>
<path d="M88.1144 54.5792L88.3704 55.8592L82.8408 59.1872L82.4824 57.9584L88.1144 54.5792ZM88.6776 57.088L88.9336 58.368L84.1208 61.2864L83.7624 60.0576L88.6776 57.088ZM87.3976 51.0976L87.6536 52.4288C87.3464 52.3264 87.0392 52.2752 86.7832 52.224C86.476 52.1728 86.22 52.224 85.964 52.2752C85.708 52.3264 85.452 52.4288 85.196 52.5824C84.7352 52.8896 84.3768 53.2992 84.2232 53.8624C84.0184 54.4256 84.0184 55.0912 84.172 55.8592C84.3256 56.6272 84.684 57.4976 85.2472 58.4192C85.8104 59.3408 86.4248 60.0576 87.0392 60.5696C87.6536 61.0816 88.268 61.3888 88.8312 61.4912C89.3944 61.5936 89.9576 61.4912 90.4184 61.184C90.6744 61.0304 90.8792 60.8256 91.0328 60.6208C91.1864 60.416 91.34 60.16 91.4424 59.904C91.5448 59.648 91.6472 59.392 91.6984 59.0848L92.7736 59.904C92.6712 60.416 92.5176 60.928 92.2104 61.3376C91.9032 61.7472 91.5448 62.1056 91.1352 62.3616C90.4184 62.7712 89.7016 62.9248 88.8824 62.8224C88.0632 62.72 87.2952 62.3104 86.476 61.6448C85.6568 60.9792 84.94 60.1088 84.2232 58.9824C83.5576 57.856 83.0968 56.7808 82.892 55.7568C82.6872 54.7328 82.7384 53.8624 82.9944 53.0944C83.2504 52.3264 83.7112 51.712 84.428 51.3024C84.8888 51.0464 85.3496 50.8928 85.8616 50.8416C86.3736 50.8928 86.8856 50.944 87.3976 51.0976Z" fill="#002C15"/>
<path d="M42.4434 102.656L47.6658 102.707C49.9698 102.758 52.2226 104.294 53.9634 107.315C57.3938 113.408 57.2914 123.29 53.7074 129.331L48.485 129.28C52.069 123.238 52.1714 113.357 48.741 107.264C47.0002 104.192 44.7474 102.656 42.4434 102.656Z" fill="black"/>
<path d="M47.2048 133.837L41.9824 133.786C44.2864 133.837 46.6416 132.301 48.4336 129.28L53.656 129.331C51.9152 132.352 49.56 133.888 47.2048 133.837Z" fill="black"/>
<path d="M35.9922 107.162C37.7842 104.141 40.1394 102.605 42.4434 102.656L47.6658 102.707C45.3618 102.656 43.0066 104.192 41.2146 107.213C39.6274 107.213 37.5282 107.162 35.9922 107.162Z" fill="#FF7F5F"/>
<path d="M42.4442 102.451L47.6666 102.502C45.3114 102.451 42.9562 103.987 41.113 107.059L35.8906 107.008C37.7338 103.936 40.089 102.4 42.4442 102.451Z" fill="black"/>
<path d="M47.1026 133.837H46.8466H46.2834H45.8738L42.085 133.786C40.9074 133.786 39.7298 133.376 38.6546 132.557H43.4674C43.365 132.454 43.2114 132.352 43.109 132.25C43.0578 132.198 43.0066 132.147 42.9554 132.096C42.9042 132.045 42.853 131.994 42.8018 131.942C42.7506 131.891 42.6994 131.84 42.6482 131.789C42.597 131.738 42.5458 131.635 42.4434 131.584C42.341 131.482 42.1874 131.328 42.085 131.174C42.0338 131.123 42.0338 131.123 41.9826 131.072C41.829 130.867 41.6754 130.714 41.573 130.509C41.5218 130.458 41.4706 130.406 41.4706 130.304C41.4194 130.253 41.4194 130.202 41.3682 130.15C41.317 130.099 41.2658 129.997 41.2146 129.946C41.2146 129.946 41.2146 129.894 41.1634 129.894C41.1122 129.792 41.061 129.741 41.0098 129.638C40.9586 129.536 40.9074 129.434 40.8562 129.382C40.4466 128.666 40.0882 127.898 39.781 127.078H34.7122C32.3058 120.986 32.7154 112.538 35.941 107.11H36.8626H37.5282H38.1938L40.1906 107.162H40.7538H40.9586H41.061C40.7026 107.725 40.3954 108.339 40.1394 109.005C40.0882 109.107 40.037 109.21 39.9858 109.312C39.8834 109.517 39.8322 109.773 39.7298 109.978C39.6274 110.182 39.5762 110.438 39.4738 110.643C39.4226 110.848 39.3202 111.104 39.269 111.36C39.2178 111.462 39.2178 111.616 39.1666 111.718C38.5522 113.971 38.245 116.378 38.2962 118.835C38.2962 118.938 38.2962 119.091 38.2962 119.194C38.2962 119.398 38.2962 119.603 38.2962 119.859C38.2962 119.91 38.2962 119.962 38.2962 120.013C38.3474 120.627 38.3986 121.19 38.4498 121.754C38.4498 121.856 38.4498 121.958 38.501 122.061V122.112C38.5522 122.317 38.5522 122.522 38.6034 122.726V122.778C38.6034 122.88 38.6546 122.982 38.6546 123.085C38.7058 123.341 38.757 123.546 38.8082 123.802C38.8082 123.904 38.8594 124.006 38.8594 124.16C38.9106 124.365 38.9618 124.621 39.013 124.826C39.013 124.928 39.0642 125.03 39.1154 125.133C39.1154 125.184 39.1154 125.184 39.1154 125.235C39.1666 125.44 39.2178 125.645 39.3202 125.85C39.4226 126.157 39.525 126.515 39.6274 126.822C39.6274 126.925 39.6786 126.976 39.7298 127.078C39.8322 127.334 39.9346 127.539 40.037 127.795C40.0882 127.898 40.0882 127.949 40.1394 128.051C40.1394 128.102 40.1906 128.154 40.2418 128.205C40.293 128.307 40.293 128.358 40.3442 128.461C40.4978 128.717 40.6002 128.973 40.7538 129.229C40.805 129.331 40.8562 129.382 40.9074 129.485C40.9586 129.587 41.0098 129.638 41.061 129.69C41.1122 129.792 41.1634 129.894 41.2146 129.946C41.2658 129.997 41.317 130.099 41.3682 130.15C41.3682 130.15 41.3682 130.15 41.4194 130.202C41.4706 130.253 41.5218 130.355 41.573 130.406L41.6242 130.458L41.6754 130.509C41.6754 130.56 41.7266 130.56 41.7266 130.611C41.7266 130.611 41.7266 130.611 41.7266 130.662C41.829 130.816 41.9826 130.97 42.085 131.072C42.1362 131.123 42.1874 131.174 42.2386 131.226C42.2898 131.277 42.3922 131.379 42.4434 131.43C42.4946 131.482 42.5458 131.533 42.6482 131.635C42.6994 131.686 42.6994 131.686 42.7506 131.738C42.7506 131.738 42.7506 131.738 42.8018 131.789C42.853 131.84 42.9042 131.891 42.9554 131.942C43.0066 131.994 43.0578 131.994 43.109 132.045C43.1602 132.096 43.2626 132.147 43.3138 132.198C43.365 132.25 43.4162 132.25 43.4674 132.301L43.5186 132.352C43.621 132.454 43.7746 132.557 43.877 132.608C43.9282 132.659 44.0306 132.71 44.0818 132.762C44.133 132.813 44.2354 132.864 44.2866 132.864H44.3378C44.389 132.864 44.389 132.915 44.4402 132.915C44.4914 132.915 44.4914 132.966 44.5426 132.966C44.5938 133.018 44.645 133.018 44.6962 133.069H44.7474C44.7474 133.069 44.7986 133.069 44.7986 133.12C44.7986 133.12 44.8498 133.12 44.8498 133.171H44.901C44.9522 133.171 45.0034 133.222 45.0546 133.222C45.1058 133.222 45.157 133.274 45.2082 133.274C45.2594 133.274 45.2594 133.274 45.3106 133.325C45.3618 133.325 45.413 133.376 45.4642 133.376C45.5154 133.376 45.5666 133.427 45.6178 133.427C45.7202 133.478 45.8226 133.478 45.925 133.478C45.9762 133.478 46.0274 133.478 46.0786 133.53C46.1298 133.53 46.181 133.53 46.2834 133.581C46.3346 133.581 46.3858 133.581 46.4882 133.581C46.4882 133.581 46.5394 133.581 46.5906 133.581C46.6418 133.581 46.693 133.581 46.7954 133.581C47.0002 133.837 47.0514 133.837 47.1026 133.837Z" fill="#FF7F5F"/>
<path d="M41.1644 107.213C44.7484 101.171 50.4828 101.171 53.9132 107.264C57.3436 113.357 57.2412 123.238 53.6572 129.28C50.0732 135.322 44.3388 135.322 40.9084 129.229C37.478 123.136 37.5804 113.254 41.1644 107.213Z" fill="#FFAA05"/>
<path d="M47.1027 134.042L42.0339 133.99C40.7539 133.99 39.4739 133.478 38.3475 132.557C37.3747 131.789 36.5043 130.714 35.6851 129.331C35.2755 128.666 34.9683 127.898 34.6611 127.13C32.2547 120.986 32.7155 112.486 35.9411 107.059H36.0947H36.7091L41.1635 107.11C41.1635 107.162 41.1123 107.213 41.1123 107.213C37.9891 112.64 37.5283 120.986 39.8835 127.078H34.8147C35.1219 127.795 35.4291 128.512 35.7875 129.126C36.6067 130.611 37.5795 131.738 38.6035 132.454H43.4163C43.4675 132.506 43.5699 132.557 43.6211 132.608C43.6723 132.659 43.7747 132.71 43.8259 132.762C43.8771 132.813 43.9283 132.813 43.9795 132.864C44.0819 132.915 44.1331 132.966 44.2355 133.018C44.2867 133.069 44.3379 133.069 44.3891 133.12C44.4915 133.171 44.5427 133.222 44.6451 133.274C44.6963 133.274 44.7475 133.325 44.7987 133.325C44.9011 133.376 45.0547 133.427 45.2083 133.478C45.2595 133.478 45.3107 133.53 45.3619 133.53C45.4131 133.53 45.4131 133.581 45.4643 133.581C45.5155 133.581 45.6179 133.632 45.6691 133.632C45.7203 133.632 45.7203 133.632 45.7715 133.632H45.8227H45.8739C45.9251 133.632 45.9763 133.632 45.9763 133.683C46.0275 133.683 46.0787 133.683 46.0787 133.734H46.1299C46.1811 133.734 46.2323 133.734 46.2835 133.786C46.3347 133.786 46.4371 133.786 46.4883 133.837C46.5395 133.837 46.6419 133.837 46.6931 133.837C46.7955 133.837 46.8467 133.837 46.9491 133.837C47.0515 134.042 47.0515 134.042 47.1027 134.042Z" fill="black"/>
<path d="M54.0145 107.162C52.5809 104.602 50.7377 103.117 48.7921 102.656C48.4337 102.554 48.0241 102.502 47.6657 102.502H47.6145C47.5633 102.502 47.5633 102.502 47.5121 102.502C47.4609 102.502 47.4097 102.502 47.4097 102.502C47.4097 102.502 47.4097 102.502 47.3585 102.502C47.3073 102.502 47.2561 102.502 47.2049 102.502H47.1537H47.1025C47.0513 102.502 47.0513 102.502 47.0001 102.502H46.9489C46.8977 102.502 46.8465 102.502 46.8465 102.502C46.7953 102.502 46.7441 102.502 46.6929 102.554H46.6417C46.5905 102.554 46.5393 102.554 46.4881 102.605H46.4369C46.3857 102.605 46.3345 102.605 46.3345 102.656H46.2833H46.2321C46.1809 102.656 46.1809 102.656 46.1297 102.707H46.0785H46.0273C45.9761 102.707 45.9249 102.758 45.8737 102.758C45.8225 102.758 45.7713 102.81 45.7201 102.81H45.6689C45.6177 102.81 45.6177 102.861 45.5665 102.861C45.5153 102.861 45.5153 102.861 45.4641 102.912C45.4129 102.912 45.4129 102.912 45.3617 102.963C45.3105 102.963 45.3105 102.963 45.2593 103.014C45.2081 103.014 45.2081 103.066 45.1569 103.066C45.1057 103.066 45.1057 103.117 45.0545 103.117H45.0033C44.9521 103.117 44.9009 103.168 44.8497 103.168C44.7985 103.168 44.7473 103.219 44.6961 103.27C44.6449 103.322 44.5937 103.322 44.4913 103.373C44.1841 103.578 43.9281 103.782 43.6209 104.038C43.5697 104.09 43.4673 104.192 43.4161 104.243C43.3137 104.294 43.2625 104.397 43.1601 104.448C43.1089 104.499 43.0577 104.55 43.0065 104.602L42.9553 104.653C42.9041 104.704 42.9041 104.704 42.8529 104.755C42.8017 104.806 42.8017 104.806 42.7505 104.858C42.7505 104.858 42.7505 104.858 42.6993 104.909C42.6993 104.909 42.6993 104.96 42.6481 104.96C42.5969 105.011 42.5969 105.011 42.5457 105.062C42.5457 105.062 42.5457 105.114 42.4945 105.114L42.4433 105.165C42.1361 105.574 41.7777 105.984 41.4705 106.445C41.3681 106.598 41.2657 106.752 41.1633 106.957C41.1633 107.008 41.1121 107.059 41.1121 107.059C37.9889 112.486 37.5281 120.832 39.8833 126.925C40.1905 127.744 40.5489 128.512 40.9585 129.229C41.0097 129.331 41.0609 129.434 41.1121 129.485C41.1633 129.587 41.2145 129.638 41.2657 129.741C41.2657 129.741 41.2657 129.792 41.3169 129.792C41.3681 129.843 41.4193 129.946 41.4705 129.997C41.5217 130.048 41.5217 130.099 41.5729 130.15C41.6241 130.202 41.6753 130.253 41.6753 130.355C41.8289 130.56 41.9825 130.765 42.0849 130.918C42.1361 130.97 42.1361 130.97 42.1873 131.021C42.2897 131.174 42.4433 131.277 42.5457 131.43C42.5969 131.482 42.6481 131.584 42.7505 131.635C42.8017 131.686 42.8529 131.738 42.9041 131.789C42.9553 131.84 43.0065 131.891 43.0577 131.942C43.1089 131.994 43.1601 132.045 43.2113 132.096C43.3137 132.198 43.4673 132.301 43.5697 132.403C43.6209 132.454 43.7233 132.506 43.7745 132.557C43.8257 132.608 43.9281 132.659 43.9793 132.71C44.0305 132.762 44.0817 132.762 44.1329 132.813C44.2353 132.864 44.2865 132.915 44.3889 132.966C44.4401 133.018 44.4913 133.018 44.5425 133.069C44.6449 133.12 44.6961 133.171 44.7985 133.222C44.8497 133.222 44.9009 133.274 44.9521 133.274C45.0545 133.325 45.2081 133.376 45.3617 133.427C45.4129 133.427 45.4641 133.478 45.5153 133.478C45.5665 133.478 45.5665 133.53 45.6177 133.53C45.6689 133.53 45.7713 133.581 45.8225 133.581C45.8737 133.581 45.8737 133.581 45.9249 133.581C45.9249 133.581 45.9249 133.581 45.9761 133.581H46.0273C46.0785 133.581 46.1297 133.581 46.1297 133.632C46.1809 133.632 46.2321 133.632 46.2321 133.683H46.2833C46.3345 133.683 46.3857 133.683 46.4369 133.734C46.4881 133.734 46.5905 133.734 46.6417 133.786C46.6929 133.786 46.7953 133.786 46.8465 133.786C46.9489 133.786 47.0001 133.786 47.1025 133.786H47.1537H47.2049C47.5633 133.786 47.8705 133.786 48.2289 133.734C48.6897 133.632 49.1505 133.53 49.6113 133.325C50.1745 133.069 50.7377 132.762 51.2497 132.301C51.4545 132.096 51.7105 131.891 51.9153 131.686C52.5809 131.021 53.1953 130.202 53.7585 129.28C53.8097 129.229 53.8609 129.126 53.8609 129.075C57.3937 123.085 57.4961 113.254 54.0145 107.162ZM51.9153 131.686C51.8641 131.686 51.8641 131.686 51.9153 131.686C51.8641 131.738 51.8641 131.738 51.9153 131.686C51.8641 131.738 51.8129 131.789 51.8129 131.789C51.7617 131.84 51.7105 131.891 51.7105 131.891C51.6593 131.942 51.6081 131.994 51.5569 132.045C51.5057 132.096 51.5057 132.096 51.4545 132.147L51.4033 132.198C51.3521 132.198 51.3521 132.25 51.3009 132.25C51.3009 132.25 51.3009 132.25 51.2497 132.301C51.1985 132.352 51.0961 132.403 51.0449 132.454C50.9937 132.506 50.9425 132.506 50.9425 132.557L50.8913 132.608C50.8401 132.608 50.8401 132.659 50.7889 132.659C50.6865 132.762 50.5329 132.813 50.4305 132.915C50.3793 132.966 50.3281 132.966 50.2257 133.018C50.1745 133.069 50.1233 133.069 50.0721 133.12C50.0209 133.12 50.0209 133.171 49.9697 133.171C49.9185 133.171 49.9185 133.222 49.8673 133.222C49.8161 133.274 49.7649 133.274 49.7137 133.325H49.6625H49.6113C49.6113 133.325 49.6113 133.325 49.5601 133.325C49.5601 133.325 49.5601 133.325 49.5089 133.325C49.4577 133.325 49.4577 133.325 49.4065 133.376H49.3553C49.3041 133.376 49.2529 133.427 49.1505 133.427C49.0993 133.427 49.0993 133.427 49.0481 133.478C49.0481 133.478 48.9969 133.478 48.9457 133.478H48.8945H48.8433H48.7921C48.7409 133.478 48.6897 133.478 48.6897 133.53H48.6385C48.5873 133.53 48.5361 133.53 48.4849 133.581C48.4337 133.581 48.4337 133.581 48.3825 133.581H48.3313H48.2801C48.2289 133.581 48.1265 133.581 48.0753 133.581C48.0241 133.581 48.0241 133.581 47.9729 133.581H47.9217C47.8705 133.581 47.8705 133.581 47.8193 133.581H47.7681C47.7169 133.581 47.7169 133.581 47.6657 133.581C47.6145 133.581 47.5633 133.581 47.5121 133.581C47.4609 133.581 47.4609 133.581 47.4097 133.581C47.3585 133.581 47.3585 133.581 47.3073 133.581C47.2561 133.581 47.2561 133.581 47.2049 133.581C47.1537 133.581 47.1025 133.581 47.0001 133.581C46.9489 133.581 46.9489 133.581 46.8977 133.581C46.8465 133.581 46.7953 133.581 46.6929 133.581C46.6417 133.581 46.5905 133.581 46.4881 133.53C46.4369 133.53 46.3857 133.53 46.3345 133.478C46.2321 133.478 46.1297 133.427 46.0273 133.427C45.9761 133.427 45.9249 133.376 45.8737 133.376C45.8225 133.376 45.7713 133.325 45.7201 133.325C45.6689 133.325 45.6689 133.325 45.6177 133.274C45.5665 133.274 45.5153 133.222 45.4641 133.222C45.4129 133.222 45.3617 133.171 45.3105 133.171H45.2593C45.2593 133.171 45.2081 133.171 45.2081 133.12C45.2081 133.12 45.1569 133.12 45.1569 133.069H45.1057C45.0545 133.018 45.0033 133.018 44.9521 132.966C44.9009 132.966 44.9009 132.915 44.8497 132.915C44.7985 132.915 44.7985 132.864 44.7473 132.864H44.6961C44.6449 132.813 44.5425 132.762 44.4913 132.762C44.4401 132.71 44.3377 132.659 44.2865 132.608C44.1841 132.506 44.0305 132.454 43.9281 132.352L43.8769 132.301C43.8257 132.25 43.7745 132.25 43.7233 132.198C43.6721 132.147 43.5697 132.096 43.5185 132.045C43.4673 131.994 43.4161 131.994 43.3649 131.942C43.3137 131.891 43.2625 131.84 43.2113 131.789C43.2113 131.789 43.1601 131.789 43.1601 131.738C43.1089 131.686 43.1089 131.686 43.0577 131.635C43.0065 131.584 42.9553 131.533 42.8529 131.43C42.8017 131.379 42.6993 131.277 42.6481 131.226C42.5969 131.174 42.5457 131.123 42.4945 131.072C42.3921 130.918 42.2385 130.816 42.1361 130.662C42.1361 130.662 42.1361 130.662 42.1361 130.611C42.1361 130.56 42.0849 130.56 42.0849 130.509L42.0337 130.458L41.9825 130.406C41.9313 130.355 41.8801 130.253 41.8289 130.202C41.8289 130.202 41.8289 130.202 41.7777 130.15C41.7265 130.099 41.6753 129.997 41.6241 129.946C41.5729 129.843 41.5217 129.741 41.4705 129.69C41.4193 129.638 41.3681 129.536 41.3169 129.485C41.2657 129.382 41.2145 129.331 41.1633 129.229C41.0097 128.973 40.8561 128.717 40.7537 128.461C40.7025 128.358 40.6513 128.307 40.6513 128.205C40.6001 128.154 40.6001 128.102 40.5489 128.051C40.4977 127.949 40.4977 127.898 40.4465 127.795C40.3441 127.59 40.2417 127.334 40.1393 127.078C40.0881 127.027 40.0881 126.925 40.0369 126.822C39.9345 126.515 39.7809 126.208 39.7297 125.85C39.6785 125.645 39.6273 125.44 39.5249 125.235C39.5249 125.184 39.5249 125.184 39.5249 125.133C39.4737 125.03 39.4737 124.928 39.4225 124.826C39.3713 124.621 39.3201 124.365 39.2689 124.16C39.2177 124.058 39.2177 123.955 39.2177 123.802C39.1665 123.597 39.1153 123.341 39.0641 123.085C39.0641 122.982 39.0129 122.88 39.0129 122.778V122.726C38.9617 122.522 38.9617 122.317 38.9105 122.112V122.061C38.9105 121.958 38.8593 121.856 38.8593 121.754C38.8081 121.19 38.7569 120.576 38.7057 120.013C38.7057 119.962 38.7057 119.91 38.7057 119.859C38.7057 119.654 38.7057 119.45 38.7057 119.194C38.7057 119.091 38.7057 118.938 38.7057 118.835C38.6545 116.429 38.9617 113.971 39.5761 111.718C39.6273 111.616 39.6273 111.462 39.6785 111.36C39.7297 111.104 39.8321 110.899 39.8833 110.643C39.9345 110.438 40.0369 110.182 40.1393 109.978C40.2417 109.773 40.2929 109.517 40.3953 109.312C40.4465 109.21 40.4977 109.107 40.5489 109.005C40.8049 108.339 41.1633 107.725 41.4705 107.162C41.5217 107.11 41.5729 107.008 41.5729 106.957L41.6241 106.906C41.6753 106.803 41.7265 106.701 41.7777 106.65C41.8289 106.547 41.9313 106.445 41.9825 106.342C42.0849 106.189 42.1873 106.086 42.2385 105.984L42.2897 105.933C42.3409 105.882 42.3921 105.779 42.4433 105.728C42.5457 105.626 42.6481 105.523 42.6993 105.421C42.6993 105.37 42.7505 105.37 42.7505 105.318L42.8017 105.267C42.8017 105.267 42.8017 105.216 42.8529 105.216C42.9041 105.165 42.9041 105.165 42.9553 105.114C42.9553 105.114 42.9553 105.114 43.0065 105.062C43.0065 105.062 43.0065 105.011 43.0577 105.011C43.1089 104.96 43.1601 104.909 43.2113 104.858C43.2625 104.806 43.3137 104.755 43.3649 104.704C43.4161 104.653 43.5185 104.55 43.5697 104.499C43.6209 104.448 43.7233 104.397 43.7745 104.346C43.8257 104.294 43.8769 104.243 43.9793 104.192C43.9793 104.192 43.9793 104.192 44.0305 104.141C44.0817 104.09 44.1329 104.038 44.1841 104.038C44.2353 103.987 44.2865 103.936 44.3377 103.936L44.3889 103.885C44.4401 103.834 44.4913 103.834 44.5425 103.782C44.5937 103.731 44.6449 103.68 44.7473 103.68C44.7985 103.629 44.9009 103.578 44.9521 103.578C45.0033 103.526 45.0545 103.526 45.1057 103.475C45.1057 103.475 45.1569 103.475 45.1569 103.424C45.1569 103.424 45.2081 103.424 45.2081 103.373C45.2593 103.373 45.3105 103.322 45.3105 103.322C45.4129 103.27 45.4641 103.27 45.5665 103.219C45.6177 103.219 45.6689 103.168 45.7713 103.168C45.8225 103.168 45.8737 103.117 45.9249 103.117C45.9249 103.117 45.9249 103.117 45.9761 103.117C46.0273 103.117 46.0273 103.117 46.0785 103.066C46.1297 103.066 46.1809 103.014 46.2321 103.014C46.2833 103.014 46.2833 103.014 46.3345 102.963H46.3857C46.4369 102.963 46.4369 102.963 46.4881 102.963C46.5393 102.963 46.5905 102.912 46.6929 102.912C46.7441 102.912 46.7953 102.912 46.7953 102.912H46.8465C46.8977 102.912 46.8977 102.912 46.9489 102.912C47.0001 102.912 47.0513 102.912 47.1025 102.912C47.1537 102.912 47.2049 102.912 47.2561 102.912H47.3073C47.3585 102.912 47.4609 102.912 47.5633 102.912H47.6145H47.6657C47.7169 102.912 47.7169 102.912 47.7681 102.912C47.8193 102.912 47.8193 102.912 47.8705 102.912C47.8705 102.912 47.8705 102.912 47.9217 102.912H47.9729H48.0241C48.0753 102.912 48.1265 102.912 48.1265 102.912H48.1777C48.2289 102.912 48.2801 102.912 48.3825 102.912C48.3825 102.912 48.3825 102.912 48.4337 102.912H48.4849C48.5361 102.912 48.6385 102.912 48.6897 102.963C48.7921 102.963 48.8433 103.014 48.9457 103.014C48.9969 103.014 49.0993 103.066 49.1505 103.066C49.1505 103.066 49.1505 103.066 49.2017 103.066C49.3041 103.066 49.3553 103.117 49.4577 103.168C49.5089 103.219 49.6113 103.219 49.6625 103.27C49.7649 103.322 49.8161 103.322 49.9185 103.373H49.9697H50.0209C50.0721 103.373 50.0721 103.424 50.1233 103.424C50.1233 103.424 50.1745 103.424 50.1745 103.475L50.2257 103.526C50.2769 103.578 50.3281 103.578 50.3793 103.629C50.4305 103.629 50.4305 103.68 50.4817 103.68C50.5329 103.731 50.5841 103.731 50.6353 103.782C50.6353 103.782 50.6865 103.782 50.6865 103.834C50.7377 103.885 50.7889 103.885 50.8401 103.936C50.8401 103.936 50.8913 103.936 50.8913 103.987C50.8913 103.987 50.8913 103.987 50.9425 104.038L50.9937 104.09C51.0449 104.141 51.0961 104.141 51.1473 104.192C51.1473 104.192 51.1473 104.192 51.1985 104.243C51.1985 104.243 51.1985 104.243 51.2497 104.294L51.3009 104.346C51.3521 104.346 51.3521 104.397 51.4033 104.397C51.4033 104.397 51.4033 104.397 51.4545 104.397C51.4545 104.397 51.5057 104.397 51.5057 104.448C51.5057 104.448 51.5057 104.448 51.5569 104.499L51.6081 104.55L51.6593 104.602C51.7105 104.653 51.7105 104.653 51.7617 104.704C51.7617 104.704 51.7617 104.704 51.8129 104.755C51.8641 104.806 51.9153 104.858 51.9665 104.858C51.9665 104.858 51.9665 104.858 52.0177 104.909C52.0177 104.909 52.0689 104.909 52.0689 104.96L52.1201 105.011C52.1713 105.062 52.1713 105.062 52.2225 105.114C52.2737 105.165 52.3249 105.216 52.3249 105.267L52.3761 105.318C52.3761 105.318 52.4273 105.37 52.4273 105.421L52.4785 105.472L52.5297 105.523L52.5809 105.574C52.6321 105.626 52.6321 105.626 52.6833 105.677C52.7345 105.728 52.7857 105.779 52.7857 105.83C52.7857 105.882 52.8369 105.882 52.8369 105.933L52.8881 105.984C52.9393 106.035 52.9393 106.086 52.9905 106.086C53.0417 106.189 53.1441 106.291 53.1953 106.394L53.2465 106.445C53.2465 106.496 53.2977 106.547 53.3489 106.547C53.3489 106.547 53.3489 106.598 53.4001 106.598C53.4001 106.65 53.4513 106.65 53.4513 106.701C53.4513 106.752 53.5025 106.752 53.5025 106.803C53.5025 106.803 53.5025 106.803 53.5025 106.854C53.5537 106.906 53.5537 106.957 53.6049 107.008C53.6561 107.059 53.6561 107.11 53.7073 107.162C53.7585 107.213 53.8097 107.315 53.8609 107.418C57.2913 113.51 57.1889 123.392 53.6049 129.434C53.5537 129.485 53.5025 129.587 53.4513 129.638C53.4513 129.638 53.4513 129.69 53.4001 129.69C53.3489 129.741 53.2977 129.843 53.2977 129.894C53.2465 129.946 53.1953 130.048 53.1441 130.099C53.0929 130.202 53.0417 130.253 52.9905 130.355C52.9393 130.406 52.9393 130.458 52.8881 130.458C52.8881 130.509 52.8369 130.509 52.8369 130.56C52.8369 130.611 52.7857 130.611 52.7857 130.662L52.7345 130.714C52.6833 130.765 52.6833 130.765 52.6321 130.816L52.5809 130.867L52.5297 130.918C52.4273 131.072 52.2737 131.226 52.1713 131.379C52.1713 131.379 52.1713 131.379 52.1201 131.43L52.0689 131.482C52.0177 131.533 51.9665 131.584 51.9153 131.635C51.9153 131.635 51.9153 131.635 51.8641 131.686C51.9665 131.584 51.9665 131.635 51.9153 131.686Z" fill="black"/>
<path d="M43.4161 132.506H38.6033C37.5793 131.738 36.6065 130.611 35.7873 129.178C35.4289 128.512 35.0705 127.846 34.8145 127.13H39.8833C40.1905 127.949 40.5489 128.717 40.9585 129.434C41.0097 129.536 41.0609 129.638 41.1121 129.69C41.1633 129.792 41.2145 129.843 41.2657 129.946C41.2657 129.946 41.2657 129.997 41.3169 129.997C41.3681 130.048 41.4193 130.15 41.4705 130.202C41.5217 130.253 41.5217 130.304 41.5729 130.355C41.6241 130.406 41.6753 130.458 41.6753 130.56C41.8289 130.765 41.9825 130.97 42.0849 131.123C42.1361 131.174 42.1361 131.174 42.1873 131.226C42.2897 131.379 42.4433 131.482 42.5457 131.635C42.5969 131.686 42.6481 131.789 42.7505 131.84C42.8017 131.891 42.8529 131.942 42.9041 131.994C42.9553 132.045 43.0065 132.096 43.0577 132.147C43.1089 132.198 43.1601 132.25 43.2113 132.301C43.1601 132.301 43.2625 132.403 43.4161 132.506Z" fill="white"/>
<path d="M51.3516 130.202C51.966 129.587 52.5292 128.87 53.0412 128H53.6556C53.1436 128.87 52.5804 129.638 51.966 130.202C51.7612 130.202 51.5564 130.202 51.3516 130.202Z" fill="#FF7F5F"/>
<path d="M47.3594 131.994C48.7418 131.994 50.1242 131.379 51.353 130.202C51.5578 130.202 51.7626 130.202 51.9674 130.202C50.7386 131.43 49.3562 131.994 47.9738 131.994C47.769 131.994 47.5642 131.994 47.3594 131.994Z" fill="#FF7F5F"/>
<path d="M53.2976 108.442C51.7616 105.779 49.7648 104.397 47.7168 104.397H48.3312C50.3792 104.448 52.376 105.779 53.912 108.442C56.984 113.818 56.8816 122.624 53.7072 127.949H53.0928C56.216 122.624 56.3184 113.869 53.2976 108.442Z" fill="#FF7F5F"/>
<path d="M47.8703 133.786H47.2559C49.5599 133.837 51.9151 132.301 53.7071 129.28H54.3215C52.5807 132.301 50.2255 133.786 47.8703 133.786Z" fill="black"/>
<path d="M47.923 131.84H47.3086C49.3566 131.891 51.4046 130.56 52.9918 127.898H53.6062C52.019 130.509 49.971 131.84 47.923 131.84Z" fill="black"/>
<path d="M47.7168 102.605H48.3312C50.6352 102.656 52.888 104.192 54.6288 107.213C58.0592 113.306 57.9568 123.187 54.3728 129.229H53.7584C57.3424 123.187 57.4448 113.306 54.0144 107.213C52.3248 104.192 50.0208 102.656 47.7168 102.605Z" fill="black"/>
<path d="M47.7168 104.55H48.3312C50.328 104.602 52.3248 105.933 53.8096 108.544C56.8304 113.869 56.728 122.522 53.6048 127.795H52.9904C56.1136 122.522 56.216 113.869 53.1952 108.544C51.7104 105.933 49.7136 104.602 47.7168 104.55Z" fill="black"/>
<path d="M47.7168 104.397H48.3312C46.2832 104.346 44.184 105.728 42.5968 108.39H41.9824C43.5696 105.677 45.6688 104.346 47.7168 104.397Z" fill="black"/>
<path d="M41.2656 107.162C43.0576 104.141 45.4128 102.605 47.7168 102.656H48.3312C46.0272 102.605 43.672 104.141 41.88 107.162C41.6752 107.162 41.4192 107.162 41.2656 107.162Z" fill="#FF7F5F"/>
<path d="M47.7177 102.451H48.3321C45.9769 102.4 43.6217 103.936 41.7785 107.008H41.1641C43.0073 103.936 45.3625 102.4 47.7177 102.451Z" fill="black"/>
<path d="M40.5996 108.39C40.8044 107.981 41.0092 107.571 41.2652 107.162H41.8796C41.6236 107.571 41.4188 107.981 41.214 108.39C41.0092 108.39 40.8044 108.39 40.5996 108.39Z" fill="#FF7F5F"/>
<path d="M47.9229 131.994H47.3085C45.2605 131.942 43.2637 130.611 41.7277 127.949C38.6557 122.522 38.7581 113.766 41.9325 108.442H42.5469C39.3725 113.818 39.2701 122.573 42.3421 127.949C43.8781 130.611 45.8749 131.994 47.9229 131.994Z" fill="black"/>
<path d="M42.5458 108.39C45.7202 103.014 50.789 103.066 53.861 108.442C56.933 113.818 56.8306 122.624 53.6562 127.949C50.4818 133.325 45.413 133.274 42.341 127.898C39.269 122.522 39.3714 113.766 42.5458 108.39ZM53.605 127.846C56.7282 122.573 56.8306 113.92 53.8098 108.595C50.789 103.27 45.7714 103.219 42.6482 108.544C39.525 113.818 39.4226 122.47 42.4434 127.795C45.4642 133.12 50.4306 133.171 53.605 127.846Z" fill="black"/>
<path d="M40.6012 108.39C40.806 108.39 41.0108 108.39 41.2156 108.39C38.2972 114.483 38.3996 123.494 41.6252 129.178C43.3148 132.198 45.6188 133.734 47.9228 133.786H47.3084C45.0044 133.734 42.7516 132.198 41.0108 129.178C37.7852 123.494 37.6828 114.483 40.6012 108.39Z" fill="#FF7F5F"/>
<path d="M41.8285 107.162C45.4125 101.12 51.1469 101.12 54.5773 107.213C58.0077 113.306 57.9053 123.187 54.3213 129.229C50.7373 135.27 45.0029 135.27 41.5725 129.178C38.1421 123.085 38.2445 113.203 41.8285 107.162ZM53.6557 128C56.8301 122.624 56.9325 113.869 53.8605 108.493C50.7885 103.066 45.7197 103.066 42.5453 108.442C39.3709 113.818 39.2685 122.573 42.3405 127.949C45.4125 133.325 50.4813 133.376 53.6557 128Z" fill="#FFAA05"/>
<path d="M47.8709 133.939H47.2565C44.9525 133.888 42.6485 132.352 40.9077 129.28C37.4261 123.136 37.5285 113.101 41.1637 107.008H41.7781C38.1429 113.152 38.0405 123.136 41.5221 129.28C43.2629 132.352 45.5669 133.939 47.8709 133.939Z" fill="black"/>
<path d="M41.779 107.008C45.4142 100.864 51.1998 100.915 54.6814 107.059C58.163 113.203 58.0606 123.238 54.4254 129.331C50.7902 135.475 45.0046 135.424 41.523 129.28C38.0414 123.136 38.1438 113.152 41.779 107.008ZM54.3742 129.229C57.9582 123.187 58.0606 113.306 54.6302 107.213C51.1998 101.12 45.4654 101.069 41.8814 107.162C38.2974 113.203 38.195 123.085 41.6254 129.178C45.0558 135.27 50.7902 135.322 54.3742 129.229Z" fill="#FFAA05"/>
<path d="M49.1504 119.194L45.0544 119.859L44.8496 118.579L48.9456 117.914L49.1504 119.194ZM51.7616 123.29L45.8224 124.262L45.6176 123.034L51.5568 122.061L51.7616 123.29ZM46.3856 116.019L47.3072 120.832C47.4096 121.293 47.4608 121.754 47.4096 122.163C47.4096 122.573 47.256 122.88 47.1024 123.136L45.976 122.982C46.1296 122.931 46.2832 122.829 46.3344 122.573C46.3856 122.317 46.4368 122.061 46.3856 121.754C46.3856 121.446 46.3344 121.19 46.2832 120.986L45.3616 116.173C45.208 115.354 45.208 114.688 45.3616 114.125C45.5152 113.562 45.8224 113.101 46.1808 112.742C46.5392 112.435 46.9488 112.23 47.4096 112.128C47.8192 112.077 48.2288 112.077 48.5872 112.23C48.9456 112.384 49.304 112.589 49.56 112.845C49.8672 113.152 50.072 113.459 50.2256 113.869C50.3792 114.278 50.4304 114.688 50.4304 115.098L49.3552 114.893C49.3552 114.483 49.2528 114.176 49.048 113.92C48.8944 113.664 48.6384 113.51 48.3824 113.408C48.1264 113.306 47.8704 113.254 47.6144 113.306C47.3584 113.357 47.1024 113.459 46.8464 113.715C46.5904 113.92 46.4368 114.227 46.3344 114.586C46.3344 115.046 46.3344 115.507 46.3856 116.019Z" fill="#002C15"/>
<path d="M136.96 109.926C147.2 109.926 155.495 101.632 155.495 91.392C155.495 81.152 147.2 72.8576 136.96 72.8576C126.72 72.8576 118.426 81.152 118.426 91.392C118.426 101.632 126.72 109.926 136.96 109.926Z" fill="#C3F53C"/>
<path d="M155.75 91.2896V91.392C155.75 101.734 147.354 110.131 137.011 110.131C128.922 110.131 122.061 105.011 119.398 97.8432C123.597 100.762 128.717 102.451 134.246 102.451C143.104 102.451 150.989 98.048 155.75 91.2896Z" fill="#63DE1F"/>
<path d="M136.96 109.926C147.2 109.926 155.495 101.632 155.495 91.392C155.495 81.152 147.2 72.8576 136.96 72.8576C126.72 72.8576 118.426 81.152 118.426 91.392C118.426 101.632 126.72 109.926 136.96 109.926Z" stroke="#002C15" stroke-miterlimit="10"/>
<path d="M137.012 93.1328C139.213 93.1328 141.056 91.3408 141.056 89.088C141.056 86.8864 139.264 85.0432 137.012 85.0432C134.81 85.0432 132.967 86.8352 132.967 89.088C132.967 91.3408 134.759 93.1328 137.012 93.1328Z" fill="#002C15"/>
<path d="M137.012 81.9712C131.892 81.9712 127.693 86.1696 127.693 91.2896C127.693 94.0032 128.871 96.4608 130.714 98.2016C130.765 98.2528 130.765 98.2528 130.817 98.304C132.455 99.7376 134.605 100.659 136.961 100.659C139.316 100.659 141.466 99.7888 143.105 98.304C143.156 98.304 143.156 98.2528 143.207 98.2016C145.101 96.512 146.279 94.0544 146.279 91.2896C146.33 86.1696 142.132 81.9712 137.012 81.9712ZM137.012 82.9952C141.62 82.9952 145.306 86.7328 145.306 91.2896C145.306 93.4912 144.436 95.5392 143.002 97.024C142.285 95.8976 141.005 95.1808 139.623 95.1808H134.349C132.967 95.1808 131.738 95.8976 130.97 97.024C129.537 95.5392 128.666 93.4912 128.666 91.2896C128.666 86.7328 132.404 82.9952 137.012 82.9952Z" fill="#002C15"/>
<path d="M85.9637 121.754C89.5989 121.754 92.5174 118.835 92.5174 115.2C92.5174 111.565 89.5989 108.646 85.9637 108.646C82.3285 108.646 79.4102 111.565 79.4102 115.2C79.4102 118.835 82.3285 121.754 85.9637 121.754Z" fill="#C3F53C"/>
<path d="M92.6192 115.149C92.6192 118.835 89.6496 121.856 85.9632 121.856C83.096 121.856 80.6384 120.064 79.7168 117.504C81.2016 118.528 83.0448 119.142 84.9904 119.142C88.1648 119.142 90.9296 117.555 92.6192 115.149Z" fill="#63DE1F"/>
<path d="M85.9637 121.754C89.5989 121.754 92.5174 118.835 92.5174 115.2C92.5174 111.565 89.5989 108.646 85.9637 108.646C82.3285 108.646 79.4102 111.565 79.4102 115.2C79.4102 118.835 82.3285 121.754 85.9637 121.754Z" stroke="#002C15" stroke-miterlimit="10"/>
<path d="M152.985 134.144C155.801 134.144 158.105 131.84 158.105 129.024C158.105 126.208 155.801 123.904 152.985 123.904C150.169 123.904 147.865 126.208 147.865 129.024C147.865 131.84 150.169 134.144 152.985 134.144Z" fill="#C3F53C"/>
<path d="M158.156 129.024C158.156 131.891 155.852 134.195 152.985 134.195C150.783 134.195 148.889 132.813 148.121 130.816C149.299 131.635 150.681 132.096 152.217 132.096C154.675 132.096 156.825 130.918 158.156 129.024Z" fill="#63DE1F"/>
<path d="M152.985 134.144C155.801 134.144 158.105 131.84 158.105 129.024C158.105 126.208 155.801 123.904 152.985 123.904C150.169 123.904 147.865 126.208 147.865 129.024C147.865 131.84 150.169 134.144 152.985 134.144Z" stroke="#002C15" stroke-miterlimit="10"/>
<path d="M213.145 73.5744C215.961 73.5744 218.265 71.2704 218.265 68.4544C218.265 65.6384 215.961 63.3344 213.145 63.3344C210.329 63.3344 208.025 65.6384 208.025 68.4544C208.025 71.2704 210.329 73.5744 213.145 73.5744Z" fill="#C3F53C"/>
<path d="M218.316 68.4544C218.316 71.3216 216.012 73.6256 213.145 73.6256C210.944 73.6256 209.049 72.2432 208.281 70.2464C209.459 71.0656 210.841 71.5264 212.377 71.5264C214.835 71.5264 216.985 70.2976 218.316 68.4544Z" fill="#63DE1F"/>
<path d="M213.145 73.5744C215.961 73.5744 218.265 71.2704 218.265 68.4544C218.265 65.6384 215.961 63.3344 213.145 63.3344C210.329 63.3344 208.025 65.6384 208.025 68.4544C208.025 71.2704 210.329 73.5744 213.145 73.5744Z" stroke="#002C15" stroke-miterlimit="10"/>
</svg>
