<svg width="24" height="24" viewBox="0 0 24 24" fill="none" xmlns="http://www.w3.org/2000/svg">
<g clip-path="url(#clip0_6579_162298)">
<mask id="mask0_6579_162298" style="mask-type:luminance" maskUnits="userSpaceOnUse" x="0" y="0" width="24" height="24">
<path d="M24 0H0V24H24V0Z" fill="white"/>
</mask>
<g mask="url(#mask0_6579_162298)">
<path d="M12 24C18.6274 24 24 18.6274 24 12C24 5.37259 18.6274 0 12 0C5.37259 0 0 5.37259 0 12C0 18.6274 5.37259 24 12 24Z" fill="#231D9A"/>
<path d="M13.1932 4.1935L11.9999 3.00024L10.8066 4.1935L11.9999 5.38675L13.1932 4.1935Z" fill="#FFD400"/>
<path d="M9.21463 5.08928L8.02137 3.896L6.82812 5.08928L8.02137 6.28253L9.21463 5.08928Z" fill="#FFD400"/>
<path d="M6.28298 8.0204L5.08973 6.82715L3.89648 8.0204L5.08973 9.21369L6.28298 8.0204Z" fill="#FFD400"/>
<path d="M5.38651 12.0001L4.19326 10.8069L3 12.0001L4.19326 13.1934L5.38651 12.0001Z" fill="#FFD400"/>
<path d="M6.29083 15.9943L5.09758 14.801L3.9043 15.9943L5.09758 17.1875L6.29083 15.9943Z" fill="#FFD400"/>
<path d="M9.19904 18.9013L8.00575 17.708L6.8125 18.9013L8.00575 20.0945L9.19904 18.9013Z" fill="#FFD400"/>
<path d="M16.0331 20.0945L14.8398 18.9013L16.0331 17.708L17.2264 18.9013L16.0331 20.0945Z" fill="#FFD400"/>
<path d="M13.1932 19.8068L11.9999 18.6135L10.8066 19.8068L11.9999 21L13.1932 19.8068Z" fill="#FFD400"/>
<path d="M20.1014 15.9801L18.9081 14.7869L17.7148 15.9801L18.9081 17.1734L20.1014 15.9801Z" fill="#FFD400"/>
<path d="M20.9998 12.0001L19.8065 10.8069L18.6133 12.0001L19.8065 13.1934L20.9998 12.0001Z" fill="#FFD400"/>
<path d="M20.0935 8.00795L18.9003 6.8147L17.707 8.00795L18.9003 9.20123L20.0935 8.00795Z" fill="#FFD400"/>
<path d="M17.1873 5.09779L15.994 3.90454L14.8008 5.09779L15.994 6.29108L17.1873 5.09779Z" fill="#FFD400"/>
</g>
</g>
<defs>
<clipPath id="clip0_6579_162298">
<rect width="24" height="24" fill="white"/>
</clipPath>
</defs>
</svg>
