<svg width="48" height="48" viewBox="0 0 48 48" fill="none" xmlns="http://www.w3.org/2000/svg">
<rect x="0.75" y="0.75" width="46.5" height="46.5" rx="23.25" stroke="#C3F53C" stroke-width="1.5"/>
<path d="M18.9182 15.3856C20.4074 14.5052 22.1447 14 24 14C29.5228 14 34 18.4771 34 24C34 24.0331 33.9998 24.0662 33.9995 24.0993M15.3811 18.9258C14.5035 20.4133 14 22.1479 14 24C14 28.6596 17.1869 32.5748 21.5 33.685M32.7076 28.9206C31.3872 31.2522 29.1574 33.001 26.5 33.685M26.0893 18.3738C25.4387 18.1321 24.7348 18 24 18C20.6863 18 18 20.6863 18 24C18 24.7387 18.1335 25.4463 18.3777 26.0999M29.6251 21.9077C29.8675 22.5591 30 23.2641 30 24C30 27.3137 27.3137 30 24 30C23.2701 30 22.5707 29.8697 21.9237 29.631M24 22V26" stroke="#C3F53C" stroke-width="2" stroke-linecap="round" stroke-linejoin="round"/>
</svg>
