<svg width="15" height="16" viewBox="0 0 15 16" fill="none" xmlns="http://www.w3.org/2000/svg">
<g clip-path="url(#clip0_6479_171898)">
<path d="M11.505 3.01705C11.327 3.01705 11.153 3.07067 11.005 3.17114C10.857 3.27159 10.7417 3.41439 10.6735 3.58145C10.6054 3.74852 10.5876 3.93235 10.6223 4.10971C10.6571 4.28706 10.7427 4.44997 10.8686 4.57783C10.9945 4.7057 11.1548 4.79278 11.3294 4.82805C11.504 4.86333 11.6849 4.84523 11.8494 4.77603C12.0139 4.70683 12.1544 4.58964 12.2533 4.43928C12.3522 4.28894 12.405 4.11217 12.405 3.93134C12.405 3.68885 12.3102 3.4563 12.1414 3.28484C11.9726 3.11338 11.7437 3.01705 11.505 3.01705ZM14.955 4.86086C14.9405 4.22871 14.8239 3.60326 14.61 3.00943C14.4193 2.50134 14.1225 2.04126 13.74 1.66086C13.3686 1.27033 12.9147 0.970711 12.4125 0.784669C11.8295 0.560792 11.2131 0.439686 10.59 0.426574C9.795 0.380859 9.54 0.380859 7.5 0.380859C5.46 0.380859 5.205 0.380859 4.41 0.426574C3.78686 0.439686 3.17051 0.560792 2.5875 0.784669C2.08626 0.972593 1.6327 1.27195 1.26 1.66086C0.875572 2.03814 0.580632 2.49929 0.3975 3.00943C0.177121 3.60169 0.0579075 4.22783 0.0449999 4.86086C-4.19095e-08 5.66848 0 5.92753 0 7.99991C0 10.0723 -4.19095e-08 10.3313 0.0449999 11.139C0.0579075 11.7719 0.177121 12.3982 0.3975 12.9904C0.580632 13.5006 0.875572 13.9617 1.26 14.339C1.6327 14.7278 2.08626 15.0273 2.5875 15.2151C3.17051 15.439 3.78686 15.5601 4.41 15.5732C5.205 15.619 5.46 15.619 7.5 15.619C9.54 15.619 9.795 15.619 10.59 15.5732C11.2131 15.5601 11.8295 15.439 12.4125 15.2151C12.9147 15.0291 13.3686 14.7295 13.74 14.339C14.1241 13.96 14.4212 13.4995 14.61 12.9904C14.8239 12.3966 14.9405 11.7711 14.955 11.139C14.955 10.3313 15 10.0723 15 7.99991C15 5.92753 15 5.66848 14.955 4.86086ZM13.605 11.0475C13.5995 11.5312 13.5133 12.0103 13.35 12.4647C13.2302 12.7963 13.0379 13.0958 12.7875 13.3409C12.5442 13.5927 12.2499 13.7876 11.925 13.9123C11.4778 14.0782 11.0061 14.1658 10.53 14.1713C9.78 14.2094 9.5025 14.217 7.53 14.217C5.5575 14.217 5.28 14.2171 4.53 14.1713C4.03567 14.1807 3.54344 14.1034 3.075 13.9428C2.76433 13.8118 2.48352 13.6173 2.25 13.3713C2.00107 13.1265 1.81113 12.8267 1.695 12.4951C1.51189 12.0343 1.41033 11.5442 1.395 11.0475C1.395 10.2856 1.35 10.0037 1.35 7.99991C1.35 5.9961 1.35 5.71419 1.395 4.95229C1.39836 4.45786 1.48721 3.96787 1.6575 3.50467C1.78954 3.18308 1.9922 2.89641 2.25 2.66657C2.47786 2.40461 2.75947 2.19655 3.075 2.05705C3.53216 1.88946 4.014 1.80187 4.5 1.798C5.25 1.798 5.5275 1.75229 7.5 1.75229C9.4725 1.75229 9.75 1.75229 10.5 1.798C10.9761 1.80355 11.4478 1.89115 11.895 2.05705C12.2358 2.18555 12.5417 2.39446 12.7875 2.66657C13.0333 2.90062 13.2253 3.18675 13.35 3.50467C13.5167 3.96862 13.603 4.45841 13.605 4.95229C13.6425 5.71419 13.65 5.9961 13.65 7.99991C13.65 10.0037 13.6425 10.2856 13.605 11.0475ZM7.5 4.09134C6.73936 4.09284 5.99622 4.32336 5.36449 4.75375C4.73276 5.18414 4.24079 5.79511 3.95072 6.50943C3.66067 7.22376 3.58554 8.00943 3.73484 8.76707C3.88415 9.52478 4.25118 10.2205 4.78956 10.7664C5.32794 11.3122 6.01351 11.6837 6.75965 11.8339C7.50578 11.9841 8.27903 11.9063 8.98162 11.6102C9.68423 11.3142 10.2847 10.8132 10.7071 10.1706C11.1295 9.52798 11.355 8.77263 11.355 7.99991C11.356 7.4857 11.2569 6.97637 11.0634 6.50121C10.87 6.02605 10.5859 5.59443 10.2277 5.23118C9.8694 4.86794 9.44392 4.58023 8.97585 4.38462C8.5077 4.189 8.00618 4.08932 7.5 4.09134ZM7.5 10.5371C7.00604 10.5371 6.52318 10.3883 6.11246 10.1095C5.70176 9.83069 5.38164 9.43442 5.19261 8.9708C5.00358 8.50726 4.95412 7.99709 5.05049 7.50494C5.14685 7.01278 5.38472 6.5607 5.734 6.20587C6.08328 5.85105 6.52829 5.60941 7.01276 5.51151C7.49723 5.41362 7.99942 5.46386 8.45572 5.65589C8.9121 5.84792 9.30217 6.17312 9.5766 6.59035C9.85102 7.00758 9.9975 7.49811 9.9975 7.99991C9.9975 8.33309 9.93293 8.66299 9.80737 8.9708C9.6819 9.27869 9.49792 9.55831 9.26603 9.79396C9.03405 10.0295 8.7588 10.2164 8.45572 10.3439C8.15272 10.4714 7.82797 10.5371 7.5 10.5371Z" fill="#002C15"/>
</g>
<defs>
<clipPath id="clip0_6479_171898">
<rect width="15" height="16" fill="white"/>
</clipPath>
</defs>
</svg>
