<svg width="40" height="40" viewBox="0 0 40 40" fill="none" xmlns="http://www.w3.org/2000/svg">
<g clip-path="url(#clip0_6552_181382)">
<mask id="mask0_6552_181382" style="mask-type:luminance" maskUnits="userSpaceOnUse" x="4" y="4" width="32" height="32">
<path d="M36 20C36 11.1634 28.8366 4 20 4C11.1634 4 4 11.1634 4 20C4 28.8366 11.1634 36 20 36C28.8366 36 36 28.8366 36 20Z" fill="white"/>
</mask>
<g mask="url(#mask0_6552_181382)">
<path d="M36 20C36 11.1634 28.8366 4 20 4C11.1634 4 4 11.1634 4 20C4 28.8366 11.1634 36 20 36C28.8366 36 36 28.8366 36 20Z" fill="white"/>
<mask id="mask1_6552_181382" style="mask-type:luminance" maskUnits="userSpaceOnUse" x="4" y="4" width="32" height="32">
<path d="M20 36C28.8366 36 36 28.8366 36 20C36 11.1634 28.8366 4 20 4C11.1634 4 4 11.1634 4 20C4 28.8366 11.1634 36 20 36Z" fill="white"/>
</mask>
<g mask="url(#mask1_6552_181382)">
<path d="M4 4H36V36H4V4Z" fill="white"/>
<path d="M20 4H4V21.245H20V4Z" fill="#231D9A"/>
<path d="M14.3361 8.22678L15.54 7.02283L14.3361 5.81888L13.1321 7.02283L14.3361 8.22678Z" fill="white"/>
<path d="M14.3361 13.0963L15.54 11.8923L14.3361 10.6884L13.1321 11.8923L14.3361 13.0963Z" fill="white"/>
<path d="M14.3361 17.9654L15.54 16.7615L14.3361 15.5575L13.1321 16.7615L14.3361 17.9654Z" fill="white"/>
<path d="M7.91422 8.22678L9.11816 7.02283L7.91422 5.81888L6.71027 7.02283L7.91422 8.22678Z" fill="white"/>
<path d="M7.91422 13.0963L9.11816 11.8923L7.91422 10.6884L6.71027 11.8923L7.91422 13.0963Z" fill="white"/>
<path d="M7.91422 17.9654L9.11816 16.7615L7.91422 15.5575L6.71027 16.7615L7.91422 17.9654Z" fill="white"/>
<path d="M17.5461 10.6613L18.75 9.4574L17.5461 8.25345L16.3421 9.4574L17.5461 10.6613Z" fill="white"/>
<path d="M17.5461 5.79257L18.75 4.58862L17.5461 3.38467L16.3421 4.58862L17.5461 5.79257Z" fill="white"/>
<path d="M17.5461 15.5305L18.75 14.3265L17.5461 13.1226L16.3421 14.3265L17.5461 15.5305Z" fill="white"/>
<path d="M17.5461 20.4L18.75 19.196L17.5461 17.9921L16.3421 19.196L17.5461 20.4Z" fill="white"/>
<path d="M11.1252 10.6613L12.3291 9.4574L11.1252 8.25345L9.9212 9.4574L11.1252 10.6613Z" fill="white"/>
<path d="M11.1252 15.5305L12.3291 14.3265L11.1252 13.1226L9.9212 14.3265L11.1252 15.5305Z" fill="white"/>
<path d="M11.1252 20.4L12.3291 19.196L11.1252 17.9921L9.9212 19.196L11.1252 20.4Z" fill="white"/>
<path d="M4.70328 10.6613L5.90723 9.4574L4.70328 8.25345L3.49933 9.4574L4.70328 10.6613Z" fill="white"/>
<path d="M4.70328 15.5305L5.90723 14.3265L4.70328 13.1226L3.49933 14.3265L4.70328 15.5305Z" fill="white"/>
<path d="M4.70328 20.4L5.90723 19.196L4.70328 17.9921L3.49933 19.196L4.70328 20.4Z" fill="white"/>
<path d="M43.6243 3.83594H20V6.32271H43.6243V3.83594Z" fill="#F0263C"/>
<path d="M37.4074 8.80957H20V11.2963H37.4074V8.80957Z" fill="#F0263C"/>
<path d="M37.4074 13.783H20V16.2697H37.4074V13.783Z" fill="#F0263C"/>
<path d="M43.6243 18.7566H20V21.2434H43.6243V18.7566Z" fill="#F0263C"/>
<path d="M43.4997 23.7302H4.33301V26.217H43.4997V23.7302Z" fill="#F0263C"/>
<path d="M43.4997 28.7035H4.33301V31.1903H43.4997V28.7035Z" fill="#F0263C"/>
<path d="M43.4997 33.6775H4.33301V36.1643H43.4997V33.6775Z" fill="#F0263C"/>
</g>
</g>
</g>
<rect x="2" y="2" width="36" height="36" rx="18" stroke="white" stroke-width="4"/>
<defs>
<clipPath id="clip0_6552_181382">
<rect x="4" y="4" width="32" height="32" rx="16" fill="white"/>
</clipPath>
</defs>
</svg>
