<svg width="256" height="256" viewBox="0 0 256 256" fill="none" xmlns="http://www.w3.org/2000/svg">
<path d="M157.862 8.28333V13.8688M208.131 24.661L204.817 29.2051M239.182 67.3567L233.881 69.0607M239.182 120.182L233.881 118.478M208.131 162.972L204.817 158.428M157.862 179.255V173.67M107.592 162.972L110.906 158.428M76.541 120.182L81.8425 118.478M76.541 67.3567L81.8425 69.0607M107.592 24.661L110.906 29.2051" stroke="#D1F451" stroke-width="2" stroke-miterlimit="18.5018" stroke-linecap="round"/>
<path d="M152.465 8.47266L152.654 11.218M147.163 8.946L147.542 11.6914M141.862 9.79801L142.335 12.5434M136.56 10.9341L137.223 13.5848M131.448 12.4488L132.3 15.0995M127.378 16.8982L126.336 14.3421M122.644 18.9809L121.413 16.4248M116.68 18.8862L118.005 21.3476M112.041 21.6316L113.556 23.9983M105.13 30.0572L103.332 27.8798M99.3556 31.4772L101.249 33.4652M95.5689 35.2639L97.5569 37.1573M94.1488 41.0387L91.9715 39.24M88.658 43.5001L90.9301 45.1095M85.7233 47.9496L88.09 49.4642M82.9779 52.5883L85.4393 53.9137M82.9779 58.5525L80.4218 57.3218M78.3391 62.3392L80.8952 63.3806M75.0257 72.5634L77.6765 73.2261M73.8897 77.7702L76.6351 78.2436M73.0377 83.0717L75.7831 83.4504M72.5643 88.4678L75.3097 88.6571M72.375 93.7693H75.1204M72.5643 99.1654L75.3097 98.976M73.0377 104.467L75.7831 104.088M73.8897 109.768L76.6351 109.295M75.0257 115.07L77.6765 114.407M78.3391 125.294L80.8952 124.253M80.5165 130.217L83.0726 128.986M82.9779 134.95L85.4393 133.625M85.7233 139.589L88.09 138.074M88.658 144.038L90.9301 142.429M91.9715 148.298L94.1488 146.5M95.5689 152.369L97.5569 150.476M99.3556 156.156L101.249 154.168M103.332 159.659L105.13 157.481M112.041 166.002L113.556 163.635M116.68 168.747L118.005 166.286M121.508 171.114L122.739 168.558M126.431 173.291L127.472 170.735M131.448 175.09L132.3 172.439M136.56 176.604L137.223 173.954M141.862 177.74L142.335 174.995M147.163 178.593L147.542 175.847M152.465 179.161L152.654 176.415M163.257 179.161L163.068 176.415M168.559 178.593L168.18 175.847M173.86 177.74L173.292 174.995M179.161 176.604L178.499 173.954M184.274 175.09L183.422 172.439M189.386 173.291L188.344 170.735M194.308 171.114L193.078 168.558M199.042 168.747L197.716 166.286M203.681 166.002L202.166 163.635M212.39 159.659L210.591 157.481M216.366 156.156L214.473 154.168M220.153 152.369L218.165 150.476M223.75 148.298L221.573 146.5M227.064 144.038L224.792 142.429M230.093 139.589L227.727 138.074M232.839 134.95L230.377 133.625M235.205 130.217L232.649 128.986M237.383 125.294L234.827 124.253M240.696 115.07L238.045 114.407M241.832 109.768L239.087 109.295M242.684 104.467L239.939 104.088M243.252 99.1654L240.507 98.976M243.347 93.7693H240.601M243.252 88.4678L240.507 88.6571M242.684 83.0717L239.939 83.4504M241.832 77.7702L239.087 78.2436M240.696 72.5634L238.045 73.2261M237.383 62.3392L234.827 63.3806M235.205 57.4164L232.649 58.6471M232.839 52.5883L230.377 53.9137M230.093 47.9496L227.727 49.4642M227.064 43.5001L224.792 45.1095M223.75 39.3347L221.573 41.1334M220.153 35.2639L218.165 37.1573M216.366 31.4772L214.473 33.4652M210.591 30.0572L212.39 27.8798M203.681 21.6316L202.166 23.9983M199.042 18.8862L197.716 21.3476M194.308 16.4248L193.078 18.9809M189.386 14.2475L188.344 16.8035M184.274 12.4488L183.422 15.0995M179.161 10.9341L178.499 13.5848M173.86 9.79801L173.292 12.5434M168.559 8.946L168.18 11.6914M163.257 8.47266L163.068 11.218" stroke="#D1F451" stroke-miterlimit="18.5018" stroke-linecap="round"/>
<path d="M193.174 31H48.8263C45.6218 31 43 33.7501 43 37.1114V142.889C43 146.25 45.6218 149 48.8263 149H193.174C196.378 149 199 146.25 199 142.889V37.1114C199 33.7501 196.378 31 193.174 31Z" fill="#FDFBDA" stroke="black" stroke-width="6" stroke-miterlimit="10"/>
<path d="M154.06 135.322H89.5483C86.1691 135.322 83.4043 132.557 83.4043 129.178V48.7937C83.4043 45.4145 86.1691 42.6497 89.5483 42.6497H154.06C157.439 42.6497 160.204 45.4145 160.204 48.7937V129.178C160.204 132.608 157.439 135.322 154.06 135.322Z" fill="#002C15" stroke="black" stroke-miterlimit="10"/>
<path d="M121.805 54.4257C116.787 54.4257 112.742 58.4705 112.742 63.4881V72.5505H121.805C126.822 72.5505 130.867 68.5057 130.867 63.4881V54.4257H121.805ZM114.534 68.9153V63.3345C114.534 59.4433 117.709 56.2689 121.6 56.2689H127.181H127.693L125.901 58.0609H119.961V59.8529H124.109L120.473 63.4881H116.326V65.2801H118.681L114.534 69.4273V68.9153ZM129.024 58.0609V63.6417C129.024 67.5329 125.849 70.7073 121.958 70.7073H116.377H115.865L120.013 66.5601V68.9153H121.805V64.7681L125.44 61.1329V65.2801H127.232V59.3409L129.024 57.5489V58.0609Z" fill="#D1F451" stroke="black" stroke-miterlimit="10"/>
<path d="M121.805 54.4257C116.787 54.4257 112.742 58.4705 112.742 63.4881V72.5505H121.805C126.822 72.5505 130.867 68.5057 130.867 63.4881V54.4257H121.805ZM114.534 68.9153V63.3345C114.534 59.4433 117.709 56.2689 121.6 56.2689H127.181H127.693L125.901 58.0609H119.961V59.8529H124.109L120.473 63.4881H116.326V65.2801H118.681L114.534 69.4273V68.9153ZM129.024 58.0609V63.6417C129.024 67.5329 125.849 70.7073 121.958 70.7073H116.377H115.865L120.013 66.5601V68.9153H121.805V64.7681L125.44 61.1329V65.2801H127.232V59.3409L129.024 57.5489V58.0609Z" fill="#D1F451"/>
<path d="M117.351 95.232H91.9562C90.8298 95.232 89.9082 94.3104 89.9082 93.184V84.5824C89.9082 83.456 90.8298 82.5344 91.9562 82.5344H117.351C118.478 82.5344 119.399 83.456 119.399 84.5824V93.184C119.399 94.3104 118.529 95.232 117.351 95.232Z" fill="white" stroke="black" stroke-miterlimit="10"/>
<path d="M95.0273 90.7776V87.0912H96.2561C96.5633 87.0912 96.7681 87.1424 96.9729 87.2448C97.1777 87.3472 97.2801 87.5008 97.3825 87.6544C97.4849 87.808 97.5361 88.0128 97.5361 88.2688C97.5361 88.4736 97.4849 88.6784 97.3825 88.8832C97.2801 89.0368 97.1777 89.1904 96.9729 89.2928C96.7681 89.3952 96.5633 89.4464 96.2561 89.4464H95.3857V89.0368H96.2561C96.4609 89.0368 96.6145 88.9856 96.7169 88.9344C96.8193 88.8832 96.9217 88.7808 96.9729 88.6784C97.0241 88.576 97.0753 88.4224 97.0753 88.2688C97.0753 88.1152 97.0241 88.0128 96.9729 87.8592C96.9217 87.7568 96.8193 87.6544 96.7169 87.6032C96.6145 87.552 96.4097 87.5008 96.2561 87.5008H95.4881V90.7776H95.0273Z" fill="#002C15"/>
<path d="M99.2253 90.8289C98.9693 90.8289 98.7133 90.7777 98.5597 90.6753C98.3549 90.5729 98.2013 90.3681 98.0989 90.1633C97.9965 89.9585 97.9453 89.7025 97.9453 89.3953C97.9453 89.0881 97.9965 88.8833 98.0989 88.6273C98.2013 88.4225 98.3549 88.2177 98.5597 88.1153C98.7645 88.0129 98.9693 87.9105 99.2253 87.9105C99.3789 87.9105 99.5325 87.9105 99.6349 87.9617C99.7885 88.0129 99.8909 88.0641 99.9933 88.2177C100.096 88.3201 100.198 88.4737 100.249 88.6273C100.301 88.7809 100.352 89.0369 100.352 89.2929V89.4977H98.2013V89.1393H99.8909C99.8909 88.9857 99.8397 88.8321 99.7885 88.7297C99.7373 88.6273 99.6349 88.5249 99.5325 88.4225C99.4301 88.3713 99.2765 88.3201 99.1229 88.3201C98.9693 88.3201 98.8157 88.3713 98.6621 88.4225C98.5597 88.5249 98.4573 88.6273 98.3549 88.7297C98.3037 88.8833 98.2525 88.9857 98.2525 89.1393V89.3953C98.2525 89.6001 98.3037 89.8049 98.3549 89.9073C98.4061 90.0609 98.5085 90.1633 98.6621 90.2145C98.8157 90.2657 98.9181 90.3169 99.1229 90.3169C99.2253 90.3169 99.3277 90.3169 99.4301 90.2657C99.5325 90.2145 99.5837 90.1633 99.6861 90.1121C99.7373 90.0609 99.7885 89.9585 99.8397 89.8561L100.249 89.9585C100.198 90.1121 100.147 90.2145 100.045 90.3169C99.9421 90.4193 99.8397 90.5217 99.6861 90.5729C99.5837 90.7777 99.3789 90.8289 99.2253 90.8289Z" fill="#002C15"/>
<path d="M100.863 90.7777V88.0129H101.273V88.4225H101.324C101.375 88.2689 101.478 88.1665 101.58 88.0641C101.734 87.9617 101.836 87.9105 102.041 87.9105C102.092 87.9105 102.092 87.9105 102.143 87.9105C102.194 87.9105 102.246 87.9105 102.246 87.9105V88.3201C102.246 88.3201 102.194 88.3201 102.143 88.3201C102.092 88.3201 102.041 88.3201 101.99 88.3201C101.836 88.3201 101.734 88.3713 101.631 88.4225C101.529 88.4737 101.426 88.5761 101.375 88.6785C101.324 88.7809 101.273 88.8833 101.273 89.0369V90.7777H100.863Z" fill="#002C15"/>
<path d="M104.603 88.6273L104.244 88.7297C104.244 88.6785 104.193 88.6273 104.142 88.5249C104.091 88.4737 104.039 88.4225 103.937 88.3713C103.835 88.3201 103.732 88.3201 103.63 88.3201C103.476 88.3201 103.323 88.3713 103.22 88.4225C103.118 88.4737 103.067 88.5761 103.067 88.7297C103.067 88.8321 103.118 88.9345 103.169 88.9857C103.22 89.0369 103.374 89.0881 103.527 89.1393L103.937 89.2417C104.193 89.2929 104.347 89.3953 104.5 89.4977C104.603 89.6001 104.705 89.7537 104.705 89.9585C104.705 90.1121 104.654 90.2657 104.551 90.3681C104.449 90.4705 104.347 90.5729 104.193 90.6753C104.039 90.7265 103.835 90.7777 103.63 90.7777C103.323 90.7777 103.118 90.7265 102.913 90.5729C102.708 90.4705 102.606 90.2657 102.555 90.0609L102.964 89.9585C103.015 90.1121 103.067 90.2145 103.169 90.3169C103.271 90.3681 103.425 90.4193 103.579 90.4193C103.783 90.4193 103.937 90.3681 104.039 90.3169C104.142 90.2145 104.193 90.1121 104.193 90.0097C104.193 89.9073 104.142 89.8561 104.091 89.7537C104.039 89.7025 103.937 89.6513 103.783 89.6001L103.323 89.4977C103.067 89.4465 102.862 89.3441 102.759 89.2417C102.657 89.1393 102.606 88.9345 102.606 88.7809C102.606 88.6273 102.657 88.4737 102.759 88.3713C102.862 88.2689 102.964 88.1665 103.118 88.0641C103.271 88.0129 103.425 87.9617 103.63 87.9617C103.886 87.9617 104.142 88.0129 104.295 88.1665C104.398 88.2689 104.551 88.4225 104.603 88.6273Z" fill="#002C15"/>
<path d="M106.292 90.8289C106.036 90.8289 105.831 90.7777 105.626 90.6753C105.421 90.5729 105.268 90.3681 105.165 90.1633C105.063 89.9585 105.012 89.7025 105.012 89.3953C105.012 89.0881 105.063 88.8321 105.165 88.6273C105.268 88.4225 105.421 88.2689 105.626 88.1153C105.831 88.0129 106.036 87.9617 106.292 87.9617C106.548 87.9617 106.753 88.0129 106.957 88.1153C107.162 88.2177 107.316 88.4225 107.418 88.6273C107.521 88.8321 107.572 89.0881 107.572 89.3953C107.572 89.7025 107.521 89.9073 107.418 90.1633C107.316 90.3681 107.162 90.5217 106.957 90.6753C106.753 90.7777 106.548 90.8289 106.292 90.8289ZM106.292 90.4193C106.497 90.4193 106.65 90.3681 106.753 90.2657C106.855 90.1633 106.957 90.0609 107.009 89.9073C107.06 89.7537 107.111 89.6001 107.111 89.3953C107.111 89.1905 107.06 89.0369 107.009 88.8833C106.957 88.7297 106.855 88.5761 106.753 88.4737C106.65 88.3713 106.497 88.3201 106.292 88.3201C106.087 88.3201 105.933 88.3713 105.831 88.4737C105.729 88.5761 105.626 88.6785 105.575 88.8833C105.524 89.0881 105.473 89.1905 105.473 89.3953C105.473 89.6001 105.524 89.7537 105.575 89.9073C105.626 90.0609 105.729 90.2145 105.831 90.2657C105.933 90.4193 106.087 90.4193 106.292 90.4193Z" fill="#002C15"/>
<path d="M108.494 89.088V90.7264H108.084V87.9617H108.494V88.3713H108.545C108.596 88.2177 108.698 88.1152 108.852 88.0128C109.006 87.9104 109.159 87.8593 109.364 87.8593C109.569 87.8593 109.722 87.9105 109.876 87.9617C110.03 88.0129 110.132 88.1664 110.183 88.32C110.234 88.4736 110.286 88.6785 110.286 88.8833V90.624H109.876V88.8833C109.876 88.6785 109.825 88.4737 109.722 88.3713C109.62 88.2689 109.466 88.1664 109.262 88.1664C109.108 88.1664 109.006 88.2176 108.903 88.2688C108.801 88.32 108.698 88.4224 108.647 88.5248C108.494 88.832 108.494 88.9344 108.494 89.088Z" fill="#002C15"/>
<path d="M111.718 90.8289C111.565 90.8289 111.36 90.7777 111.258 90.7265C111.104 90.6753 111.002 90.5729 110.899 90.4193C110.797 90.3169 110.797 90.1633 110.797 89.9585C110.797 89.8049 110.848 89.6513 110.899 89.5489C110.95 89.4465 111.053 89.3953 111.155 89.2929C111.258 89.2417 111.36 89.1905 111.514 89.1905C111.667 89.1905 111.77 89.1393 111.872 89.1393C112.026 89.1393 112.179 89.0881 112.282 89.0881C112.384 89.0881 112.486 89.0369 112.538 89.0369C112.589 88.9857 112.589 88.9857 112.589 88.8833C112.589 88.7297 112.538 88.5761 112.435 88.4737C112.333 88.3713 112.179 88.3201 111.974 88.3201C111.77 88.3201 111.616 88.3713 111.514 88.4737C111.411 88.5761 111.309 88.6785 111.258 88.7809L110.848 88.6273C110.899 88.4737 111.002 88.3201 111.155 88.2177C111.258 88.1153 111.411 88.0641 111.565 88.0129C111.718 87.9617 111.872 87.9617 111.974 87.9617C112.077 87.9617 112.179 87.9617 112.282 88.0129C112.384 88.0129 112.486 88.0641 112.64 88.1665C112.742 88.2177 112.845 88.3201 112.896 88.4737C112.947 88.6273 112.998 88.7809 112.998 88.9857V90.8289H112.589V90.4705C112.538 90.5217 112.538 90.5729 112.435 90.6753C112.384 90.7265 112.282 90.7777 112.179 90.8289C112.026 90.8289 111.872 90.8289 111.718 90.8289ZM111.77 90.4705C111.923 90.4705 112.077 90.4193 112.179 90.3681C112.282 90.3169 112.384 90.2145 112.435 90.1121C112.486 90.0097 112.538 89.9073 112.538 89.8049V89.3953C112.538 89.3953 112.486 89.4465 112.435 89.4465C112.384 89.4465 112.282 89.4977 112.23 89.4977C112.128 89.4977 112.077 89.4977 112.026 89.5489C111.974 89.5489 111.872 89.5489 111.821 89.5489C111.718 89.5489 111.616 89.6001 111.514 89.6001C111.411 89.6513 111.36 89.7025 111.309 89.7537C111.258 89.8049 111.206 89.9073 111.206 90.0097C111.206 90.1633 111.258 90.2657 111.36 90.3681C111.462 90.4193 111.616 90.4705 111.77 90.4705Z" fill="#002C15"/>
<path d="M114.074 87.0912V90.7776H113.664V87.0912H114.074Z" fill="#002C15"/>
<path d="M150.375 95.232H124.98C123.853 95.232 122.932 94.3104 122.932 93.184V84.5824C122.932 83.456 123.853 82.5344 124.98 82.5344H150.375C151.501 82.5344 152.423 83.456 152.423 84.5824V93.184C152.423 94.3104 151.501 95.232 150.375 95.232Z" fill="white" stroke="black" stroke-miterlimit="10"/>
<path d="M127.744 90.7776V87.0912H129.024C129.28 87.0912 129.485 87.1424 129.639 87.2448C129.792 87.3472 129.946 87.4496 129.997 87.6032C130.099 87.7568 130.099 87.9104 130.099 88.1152C130.099 88.2688 130.048 88.4224 129.997 88.5248C129.946 88.6272 129.843 88.7296 129.792 88.7808C129.69 88.832 129.587 88.8832 129.485 88.9344V88.9856C129.587 88.9856 129.69 89.0368 129.843 89.088C129.946 89.1392 130.048 89.2416 130.151 89.3952C130.253 89.5488 130.253 89.7024 130.253 89.9072C130.253 90.112 130.202 90.2656 130.151 90.4192C130.048 90.5728 129.946 90.6752 129.741 90.7776C129.536 90.88 129.331 90.9312 129.024 90.9312H127.744V90.7776ZM128.205 88.6784H129.024C129.178 88.6784 129.28 88.6272 129.383 88.576C129.485 88.5248 129.587 88.4736 129.639 88.3712C129.69 88.2688 129.741 88.1664 129.741 88.0128C129.741 87.8592 129.69 87.7056 129.587 87.6032C129.485 87.5008 129.28 87.4496 129.075 87.4496H128.256V88.6784H128.205ZM128.205 90.368H129.075C129.383 90.368 129.587 90.3168 129.69 90.2144C129.792 90.112 129.895 89.9584 129.895 89.8048C129.895 89.7024 129.843 89.5488 129.792 89.4464C129.741 89.344 129.639 89.2416 129.536 89.1904C129.434 89.1392 129.28 89.088 129.127 89.088H128.205V90.368Z" fill="#002C15"/>
<path d="M132.608 89.6512V88.0128H133.018V90.7776H132.608V90.3168H132.557C132.506 90.4704 132.403 90.5728 132.25 90.6752C132.096 90.7776 131.942 90.8288 131.738 90.8288C131.584 90.8288 131.43 90.7776 131.277 90.7264C131.123 90.6752 131.021 90.5216 130.97 90.368C130.918 90.2144 130.867 90.0096 130.867 89.8048V88.064H131.277V89.8048C131.277 90.0096 131.328 90.1632 131.43 90.2656C131.533 90.368 131.686 90.4704 131.84 90.4704C131.942 90.4704 132.045 90.4192 132.147 90.368C132.25 90.3168 132.352 90.2144 132.403 90.112C132.557 89.9584 132.608 89.8048 132.608 89.6512Z" fill="#002C15"/>
<path d="M135.628 88.6272L135.27 88.7296C135.27 88.6784 135.218 88.6272 135.167 88.5248C135.116 88.4224 135.065 88.4224 134.962 88.3712C134.86 88.32 134.758 88.32 134.655 88.32C134.502 88.32 134.348 88.3712 134.246 88.4224C134.143 88.5248 134.092 88.576 134.092 88.7296C134.092 88.832 134.143 88.9344 134.194 88.9856C134.297 89.0368 134.399 89.088 134.553 89.1392L134.962 89.2416C135.218 89.2928 135.372 89.3952 135.526 89.4976C135.628 89.6 135.73 89.7536 135.73 89.9584C135.73 90.112 135.679 90.2656 135.577 90.368C135.474 90.4704 135.372 90.5728 135.218 90.6752C135.065 90.7264 134.86 90.7776 134.655 90.7776C134.348 90.7776 134.143 90.7264 133.938 90.5728C133.734 90.4704 133.631 90.2656 133.58 90.0608L133.99 89.9584C134.041 90.112 134.092 90.2144 134.194 90.3168C134.297 90.368 134.45 90.4192 134.604 90.4192C134.809 90.4192 134.962 90.368 135.065 90.3168C135.167 90.2144 135.218 90.112 135.218 90.0096C135.218 89.9072 135.167 89.856 135.116 89.7536C135.065 89.7024 134.962 89.6512 134.809 89.6L134.348 89.4976C134.092 89.4464 133.887 89.344 133.785 89.2416C133.682 89.1392 133.631 88.9344 133.631 88.7808C133.631 88.6272 133.682 88.4736 133.785 88.3712C133.887 88.2688 133.99 88.1664 134.143 88.064C134.297 88.0128 134.45 87.9616 134.655 87.9616C134.911 87.9616 135.167 88.0128 135.321 88.1664C135.474 88.2688 135.577 88.4224 135.628 88.6272Z" fill="#002C15"/>
<path d="M136.397 87.552C136.295 87.552 136.243 87.5008 136.192 87.4496C136.141 87.3984 136.09 87.3472 136.09 87.2448C136.09 87.1424 136.141 87.0912 136.192 87.04C136.243 86.9888 136.346 86.9376 136.397 86.9376C136.499 86.9376 136.551 86.9888 136.602 87.04C136.653 87.0912 136.704 87.1424 136.704 87.2448C136.704 87.3472 136.653 87.3984 136.602 87.4496C136.551 87.5008 136.499 87.552 136.397 87.552ZM136.192 90.7776V88.0128H136.602V90.7776H136.192Z" fill="#002C15"/>
<path d="M137.677 89.088V90.7264H137.268V87.9617H137.677V88.3713H137.728C137.78 88.2177 137.882 88.1152 138.036 88.0128C138.189 87.9104 138.343 87.8593 138.548 87.8593C138.752 87.8593 138.906 87.9105 139.06 87.9617C139.213 88.0129 139.316 88.1664 139.367 88.32C139.469 88.4736 139.469 88.6785 139.469 88.8833V90.624H139.06V88.8833C139.06 88.6785 139.008 88.4737 138.906 88.3713C138.804 88.2689 138.65 88.1664 138.445 88.1664C138.292 88.1664 138.189 88.2176 138.087 88.2688C137.984 88.32 137.882 88.4224 137.831 88.5248C137.78 88.6272 137.677 88.9344 137.677 89.088Z" fill="#002C15"/>
<path d="M141.26 90.8288C141.004 90.8288 140.748 90.7776 140.595 90.6752C140.39 90.5728 140.236 90.368 140.134 90.1632C140.032 89.9584 139.98 89.7024 139.98 89.3952C139.98 89.088 140.032 88.8832 140.134 88.6272C140.236 88.4224 140.39 88.2176 140.595 88.1152C140.8 88.0128 141.004 87.9104 141.26 87.9104C141.414 87.9104 141.568 87.9104 141.67 87.9616C141.824 88.0128 141.926 88.064 142.028 88.2176C142.131 88.32 142.233 88.4736 142.284 88.6272C142.336 88.7808 142.387 89.0368 142.387 89.2928V89.4976H140.288V89.1392H141.977C141.977 88.9856 141.926 88.832 141.875 88.7296C141.824 88.6272 141.721 88.5248 141.619 88.4224C141.516 88.3712 141.363 88.32 141.209 88.32C141.056 88.32 140.902 88.3712 140.748 88.4224C140.646 88.5248 140.544 88.6272 140.441 88.7296C140.39 88.8832 140.339 88.9856 140.339 89.1392V89.3952C140.339 89.6 140.39 89.8048 140.441 89.9072C140.492 90.0608 140.595 90.1632 140.748 90.2144C140.902 90.2656 141.004 90.3168 141.209 90.3168C141.312 90.3168 141.414 90.3168 141.516 90.2656C141.619 90.2144 141.67 90.1632 141.772 90.112C141.824 90.0608 141.875 89.9584 141.926 89.856L142.336 89.9584C142.284 90.112 142.233 90.2144 142.131 90.3168C142.028 90.4192 141.926 90.5216 141.772 90.5728C141.619 90.7776 141.465 90.8288 141.26 90.8288Z" fill="#002C15"/>
<path d="M144.896 88.6272L144.537 88.7296C144.537 88.6784 144.486 88.6272 144.435 88.5248C144.384 88.4224 144.332 88.4224 144.23 88.3712C144.128 88.32 144.025 88.32 143.923 88.32C143.769 88.32 143.616 88.3712 143.513 88.4224C143.411 88.5248 143.36 88.576 143.36 88.7296C143.36 88.832 143.411 88.9344 143.462 88.9856C143.564 89.0368 143.667 89.088 143.82 89.1392L144.23 89.2416C144.486 89.2928 144.64 89.3952 144.793 89.4976C144.896 89.6 144.998 89.7536 144.998 89.9584C144.998 90.112 144.947 90.2656 144.844 90.368C144.742 90.4704 144.64 90.5728 144.486 90.6752C144.332 90.7264 144.128 90.7776 143.923 90.7776C143.616 90.7776 143.411 90.7264 143.206 90.5728C143.001 90.4704 142.899 90.2656 142.848 90.0608L143.257 89.9584C143.308 90.112 143.36 90.2144 143.462 90.3168C143.564 90.4192 143.718 90.4192 143.872 90.4192C144.076 90.4192 144.23 90.368 144.332 90.3168C144.435 90.2144 144.486 90.112 144.486 90.0096C144.486 89.9072 144.435 89.856 144.384 89.7536C144.332 89.7024 144.23 89.6512 144.076 89.6L143.616 89.4976C143.36 89.4464 143.155 89.344 143.052 89.2416C142.95 89.1392 142.899 88.9344 142.899 88.7808C142.899 88.6272 142.95 88.4736 143.052 88.3712C143.155 88.2688 143.257 88.1664 143.411 88.064C143.564 88.0128 143.718 87.9616 143.923 87.9616C144.179 87.9616 144.435 88.0128 144.588 88.1664C144.742 88.2688 144.844 88.4224 144.896 88.6272Z" fill="#002C15"/>
<path d="M147.405 88.6272L147.047 88.7296C147.047 88.6784 146.996 88.6272 146.945 88.5248C146.893 88.4224 146.842 88.4224 146.74 88.3712C146.637 88.32 146.535 88.32 146.433 88.32C146.279 88.32 146.125 88.3712 146.023 88.4224C145.921 88.5248 145.869 88.576 145.869 88.7296C145.869 88.832 145.921 88.9344 145.972 88.9856C146.074 89.0368 146.177 89.088 146.33 89.1392L146.74 89.2416C146.996 89.2928 147.149 89.3952 147.303 89.4976C147.405 89.6 147.508 89.7536 147.508 89.9584C147.508 90.112 147.457 90.2656 147.354 90.368C147.252 90.4704 147.149 90.5728 146.996 90.6752C146.842 90.7264 146.637 90.7776 146.433 90.7776C146.125 90.7776 145.921 90.7264 145.716 90.5728C145.511 90.4704 145.409 90.2656 145.357 90.0608L145.767 89.9584C145.818 90.112 145.869 90.2144 145.972 90.3168C146.074 90.4192 146.228 90.4192 146.381 90.4192C146.586 90.4192 146.74 90.368 146.842 90.3168C146.945 90.2144 146.996 90.112 146.996 90.0096C146.996 89.9072 146.945 89.856 146.893 89.7536C146.842 89.7024 146.74 89.6512 146.586 89.6L146.125 89.4976C145.869 89.4464 145.665 89.344 145.562 89.2416C145.46 89.1392 145.409 88.9344 145.409 88.7808C145.409 88.6272 145.46 88.4736 145.562 88.3712C145.665 88.2688 145.767 88.1664 145.921 88.064C146.074 88.0128 146.228 87.9616 146.433 87.9616C146.689 87.9616 146.945 88.0128 147.098 88.1664C147.252 88.2688 147.354 88.4224 147.405 88.6272Z" fill="#002C15"/>
<path d="M145.819 114.739H96.513C92.8778 114.739 89.9082 111.77 89.9082 108.134C89.9082 104.499 92.8778 101.53 96.513 101.53H145.819C149.454 101.53 152.423 104.499 152.423 108.134C152.423 111.821 149.454 114.739 145.819 114.739Z" fill="#D0F350" stroke="black" stroke-miterlimit="10"/>
<path d="M106.65 110.438V104.653H108.801C109.262 104.653 109.62 104.704 109.927 104.909C110.234 105.062 110.439 105.267 110.593 105.574C110.746 105.83 110.849 106.189 110.849 106.547C110.849 106.906 110.746 107.213 110.593 107.52C110.439 107.776 110.183 107.981 109.927 108.134C109.62 108.288 109.262 108.339 108.801 108.339H107.265V107.469H108.647C108.903 107.469 109.108 107.418 109.262 107.366C109.415 107.315 109.569 107.213 109.62 107.059C109.671 106.906 109.722 106.752 109.722 106.547C109.722 106.342 109.671 106.189 109.62 106.035C109.518 105.882 109.415 105.779 109.262 105.728C109.108 105.677 108.903 105.626 108.647 105.626H107.674V110.49H106.65V110.438ZM109.62 107.827L111.054 110.438H109.876L108.494 107.827H109.62Z" fill="#002C15"/>
<path d="M113.41 110.541C113 110.541 112.591 110.438 112.283 110.285C111.976 110.131 111.72 109.824 111.567 109.517C111.413 109.21 111.311 108.8 111.311 108.339C111.311 107.878 111.413 107.52 111.567 107.162C111.72 106.803 111.976 106.547 112.283 106.394C112.591 106.189 112.949 106.086 113.359 106.086C113.615 106.086 113.871 106.138 114.127 106.189C114.383 106.291 114.587 106.394 114.741 106.598C114.946 106.752 115.048 107.008 115.151 107.264C115.253 107.52 115.304 107.878 115.304 108.237V108.544H111.771V107.878H114.331C114.331 107.674 114.28 107.52 114.229 107.366C114.127 107.213 114.024 107.11 113.871 107.008C113.717 106.906 113.563 106.854 113.359 106.854C113.154 106.854 112.949 106.906 112.795 107.008C112.642 107.11 112.539 107.264 112.437 107.418C112.335 107.571 112.283 107.776 112.283 107.93V108.544C112.283 108.8 112.335 109.005 112.437 109.21C112.539 109.414 112.642 109.517 112.847 109.619C113 109.722 113.205 109.773 113.41 109.773C113.563 109.773 113.717 109.773 113.819 109.722C113.922 109.67 114.024 109.619 114.127 109.517C114.229 109.414 114.28 109.312 114.331 109.21L115.304 109.312C115.253 109.568 115.151 109.773 114.946 109.978C114.741 110.182 114.587 110.285 114.28 110.387C114.024 110.49 113.717 110.541 113.41 110.541Z" fill="#002C15"/>
<path d="M117.864 112.179C117.506 112.179 117.198 112.128 116.942 112.026C116.686 111.923 116.482 111.821 116.328 111.616C116.174 111.411 116.072 111.258 116.021 111.053L116.942 110.848C116.994 110.95 117.045 111.002 117.147 111.104C117.25 111.206 117.352 111.258 117.454 111.309C117.608 111.36 117.762 111.411 117.966 111.411C118.274 111.411 118.478 111.36 118.683 111.206C118.888 111.053 118.99 110.848 118.99 110.541V109.722H118.939C118.888 109.824 118.786 109.926 118.734 110.029C118.632 110.131 118.478 110.234 118.325 110.285C118.171 110.336 117.966 110.387 117.71 110.387C117.403 110.387 117.096 110.285 116.789 110.131C116.533 109.978 116.328 109.722 116.123 109.414C115.97 109.107 115.867 108.698 115.867 108.237C115.867 107.776 115.97 107.366 116.123 107.059C116.277 106.752 116.482 106.496 116.789 106.291C117.045 106.138 117.352 106.035 117.71 106.035C117.966 106.035 118.171 106.086 118.325 106.138C118.478 106.24 118.632 106.342 118.734 106.445C118.837 106.547 118.888 106.701 118.939 106.803H118.99V106.086H120.014V110.49C120.014 110.848 119.912 111.155 119.758 111.411C119.605 111.667 119.349 111.821 119.042 111.974C118.581 112.128 118.222 112.179 117.864 112.179ZM117.864 109.619C118.069 109.619 118.274 109.568 118.427 109.466C118.581 109.363 118.683 109.21 118.786 109.005C118.888 108.8 118.888 108.595 118.888 108.288C118.888 108.032 118.837 107.776 118.786 107.571C118.683 107.366 118.581 107.213 118.427 107.11C118.274 107.008 118.069 106.957 117.864 106.957C117.659 106.957 117.454 107.008 117.301 107.11C117.147 107.213 117.045 107.366 116.942 107.571C116.84 107.776 116.84 108.032 116.84 108.288C116.84 108.544 116.891 108.8 116.942 109.005C117.045 109.21 117.147 109.363 117.301 109.466C117.454 109.568 117.659 109.619 117.864 109.619Z" fill="#002C15"/>
<path d="M121.243 105.523C121.089 105.523 120.936 105.472 120.833 105.37C120.731 105.267 120.68 105.114 120.68 104.96C120.68 104.806 120.731 104.653 120.833 104.55C120.936 104.448 121.089 104.397 121.243 104.397C121.396 104.397 121.55 104.448 121.652 104.55C121.755 104.653 121.806 104.806 121.806 104.96C121.806 105.114 121.755 105.267 121.652 105.37C121.55 105.472 121.396 105.523 121.243 105.523ZM120.731 110.438V106.138H121.755V110.438H120.731Z" fill="#002C15"/>
<path d="M126.004 107.264L125.083 107.366C125.032 107.264 125.032 107.162 124.929 107.11C124.878 107.008 124.776 106.957 124.673 106.906C124.571 106.854 124.417 106.854 124.264 106.854C124.059 106.854 123.854 106.906 123.752 107.008C123.598 107.11 123.547 107.213 123.547 107.366C123.547 107.469 123.598 107.571 123.7 107.674C123.803 107.776 123.956 107.827 124.161 107.878L124.878 108.032C125.288 108.134 125.595 108.237 125.8 108.442C126.004 108.646 126.107 108.902 126.107 109.21C126.107 109.466 126.004 109.722 125.851 109.926C125.697 110.131 125.492 110.285 125.185 110.387C124.929 110.49 124.571 110.541 124.212 110.541C123.7 110.541 123.24 110.438 122.932 110.182C122.625 109.978 122.42 109.67 122.369 109.261L123.342 109.158C123.393 109.363 123.496 109.517 123.649 109.619C123.803 109.722 124.008 109.773 124.212 109.773C124.468 109.773 124.673 109.722 124.776 109.619C124.929 109.517 124.98 109.414 124.98 109.261C124.98 109.158 124.929 109.056 124.827 108.954C124.724 108.851 124.571 108.8 124.366 108.749L123.649 108.595C123.24 108.493 122.932 108.339 122.728 108.134C122.523 107.93 122.42 107.674 122.42 107.366C122.42 107.11 122.472 106.854 122.625 106.65C122.779 106.445 122.984 106.291 123.24 106.189C123.496 106.086 123.803 106.035 124.161 106.035C124.673 106.035 125.083 106.138 125.339 106.342C125.748 106.598 125.953 106.906 126.004 107.264Z" fill="#002C15"/>
<path d="M128.923 106.138V106.906H126.414V106.138H128.923ZM127.028 105.114H128.052V109.158C128.052 109.312 128.052 109.414 128.104 109.466C128.155 109.517 128.206 109.568 128.257 109.619C128.308 109.67 128.411 109.67 128.462 109.67C128.513 109.67 128.564 109.67 128.616 109.67C128.667 109.67 128.718 109.67 128.718 109.67L128.872 110.49C128.82 110.49 128.718 110.541 128.616 110.541C128.513 110.541 128.411 110.592 128.257 110.592C128.001 110.592 127.796 110.541 127.592 110.49C127.387 110.387 127.233 110.285 127.131 110.08C127.028 109.875 126.977 109.67 126.977 109.414V105.114H127.028Z" fill="#002C15"/>
<path d="M131.431 110.541C131.022 110.541 130.612 110.438 130.305 110.285C129.998 110.131 129.742 109.824 129.588 109.517C129.434 109.21 129.332 108.8 129.332 108.339C129.332 107.878 129.434 107.52 129.588 107.162C129.742 106.803 129.998 106.547 130.305 106.394C130.612 106.189 130.97 106.086 131.38 106.086C131.636 106.086 131.892 106.138 132.148 106.189C132.404 106.291 132.609 106.394 132.762 106.598C132.967 106.752 133.07 107.008 133.172 107.264C133.274 107.52 133.326 107.878 133.326 108.237V108.544H129.793V107.878H132.353C132.353 107.674 132.302 107.52 132.25 107.366C132.148 107.213 132.046 107.11 131.892 107.008C131.738 106.906 131.585 106.854 131.38 106.854C131.175 106.854 130.97 106.906 130.817 107.008C130.663 107.11 130.561 107.264 130.458 107.418C130.356 107.571 130.305 107.776 130.305 107.93V108.544C130.305 108.8 130.356 109.005 130.458 109.21C130.561 109.414 130.663 109.517 130.868 109.619C131.022 109.722 131.226 109.773 131.431 109.773C131.585 109.773 131.738 109.773 131.841 109.722C131.943 109.67 132.046 109.619 132.148 109.517C132.25 109.414 132.302 109.312 132.353 109.21L133.326 109.312C133.274 109.568 133.172 109.773 132.967 109.978C132.762 110.182 132.609 110.285 132.302 110.387C132.046 110.49 131.738 110.541 131.431 110.541Z" fill="#002C15"/>
<path d="M133.99 110.438V106.138H134.963V106.854H135.014C135.117 106.598 135.219 106.394 135.424 106.291C135.629 106.138 135.833 106.086 136.089 106.086C136.141 106.086 136.192 106.086 136.294 106.086C136.345 106.086 136.448 106.086 136.448 106.086V107.008C136.397 107.008 136.345 106.957 136.243 106.957C136.141 106.957 136.038 106.957 135.987 106.957C135.782 106.957 135.629 107.008 135.475 107.059C135.321 107.162 135.219 107.264 135.117 107.366C135.014 107.52 135.014 107.674 135.014 107.878V110.438H133.99Z" fill="#002C15"/>
<path d="M218.623 183.45C218.623 183.45 217.958 183.501 216.831 183.603C215.756 179.917 212.479 169.011 210.329 163.328C207.718 156.467 204.185 146.79 201.83 142.746C199.474 138.752 199.679 136.346 195.225 132.557C190.719 128.768 186.726 130.406 186.726 130.406C186.726 130.406 186.009 127.59 181.503 126.157C176.998 124.723 170.854 127.59 170.854 127.59C170.854 127.59 169.932 125.952 165.426 126.413C160.921 126.874 159.282 130.918 159.282 130.918C159.282 130.918 150.066 112.486 146.534 111.053C143.001 109.619 139.417 113.203 140.85 116.48C142.284 119.808 152.882 138.24 154.316 142.49C155.75 146.739 158.822 153.856 158.822 153.856C158.822 153.856 148.633 146.534 145.561 145.818C142.489 145.101 137.983 144.64 135.372 147.456C132.761 150.272 138.905 150.989 143.871 155.494C148.838 160 156.876 170.394 160.665 176.998C164.454 183.603 172.492 184.781 176.025 188.57C178.534 191.232 182.066 194.97 183.961 196.915C182.783 198.144 182.169 198.963 182.169 198.963L189.951 218.112C189.951 218.112 191.59 215.501 198.246 210.33C204.851 205.107 225.433 198.758 225.433 198.758L218.623 183.45Z" fill="black" stroke="black" stroke-miterlimit="10"/>
<path d="M184.985 193.434C184.985 193.434 179.302 187.546 175.769 183.757C172.236 179.968 164.198 178.79 160.409 172.186C156.62 165.581 148.582 155.187 143.615 150.682C138.649 146.176 132.505 145.459 135.116 142.643C137.727 139.827 142.233 140.288 145.305 141.005C148.377 141.722 158.566 149.043 158.566 149.043C158.566 149.043 155.494 141.926 154.06 137.677C152.627 133.427 142.028 114.995 140.595 111.667C139.161 108.339 142.745 104.806 146.278 106.24C149.811 107.674 159.027 126.106 159.027 126.106C159.027 126.106 160.665 122.112 165.171 121.6C169.676 121.139 170.598 122.778 170.598 122.778C170.598 122.778 176.742 119.962 181.247 121.344C185.753 122.778 186.47 125.594 186.47 125.594C186.47 125.594 190.463 123.955 194.969 127.744C199.475 131.533 199.219 133.888 201.574 137.933C203.929 141.978 207.462 151.654 210.073 158.515C212.684 165.376 216.934 180.019 216.934 180.019L186.419 196.557L184.985 193.434Z" fill="#EFC7A8"/>
<path d="M158.975 126.054L167.269 138.342" stroke="black" stroke-miterlimit="10"/>
<path d="M170.547 122.726L178.124 134.554" stroke="black" stroke-miterlimit="10"/>
<path d="M186.418 125.542L191.589 134.758" stroke="black" stroke-miterlimit="10"/>
<path d="M162.15 159.539L163.226 162.662" stroke="black" stroke-miterlimit="10"/>
<path d="M158.514 148.992L161.381 157.389" stroke="black" stroke-miterlimit="10"/>
<path d="M171.725 141.158L173.619 143.77" stroke="black" stroke-miterlimit="10"/>
<path d="M180.479 138.547L182.629 141.414" stroke="black" stroke-miterlimit="10"/>
<path d="M192.102 137.165L193.484 141.619" stroke="black" stroke-miterlimit="10"/>
<path d="M181.912 194.099C181.912 194.099 187.339 186.522 198.45 182.733C209.56 178.944 218.315 178.483 218.315 178.483L225.176 193.843C225.176 193.843 204.594 200.243 197.989 205.414C191.384 210.637 189.695 213.197 189.695 213.197L181.912 194.099Z" fill="#D0F350"/>
<path d="M200.601 245.197C200.601 245.197 191.641 222.72 189.234 218.01C186.879 213.299 190.668 210.893 190.668 210.893C190.668 210.893 196.095 203.571 210.278 197.888C224.46 192.205 225.638 192 229.17 195.994C232.703 199.987 255.999 245.197 255.999 245.197" fill="#70C630"/>
<path d="M52.991 221.542C52.991 221.542 56.2166 214.63 63.8454 210.739C71.4742 206.848 76.4918 205.158 83.8134 197.939C91.135 190.72 103.218 184.269 108.185 183.398C113.151 182.528 114.789 180.378 112.69 177.92C110.54 175.462 104.703 175.36 99.4806 177.101C94.2582 178.842 89.4454 180.992 89.4454 180.992C92.1078 175.821 93.8486 169.523 96.4598 164.301C98.303 160.614 101.324 154.47 103.116 150.784C104.293 148.378 107.775 144.282 106.239 141.67C104.703 139.008 100.965 140.8 99.071 143.309C96.0502 147.354 81.3558 169.472 81.3558 169.472C84.1718 163.584 86.9366 157.645 89.7526 151.757C94.0022 142.797 95.999 138.496 95.4358 139.776C96.6646 137.165 99.071 133.632 97.6374 130.611C96.1526 127.539 91.8518 127.232 90.0598 130.15C88.0118 133.478 72.3958 163.021 72.3958 163.021C72.3958 163.021 82.175 137.677 83.4038 134.758C84.9398 131.174 84.0182 128.102 81.7654 128.102C78.4886 128.154 76.9526 131.738 75.6726 134.195C75.9286 133.837 76.1334 133.478 76.3894 133.171C73.3174 137.267 71.2694 142.592 68.7094 147.046C65.7398 152.218 62.6166 157.338 59.4422 162.355C60.0566 157.133 62.1558 152.218 64.767 147.712C66.3542 144.998 72.8566 138.24 71.7302 134.963C70.7574 132.096 63.5894 137.472 59.4422 143.309C57.1894 146.483 51.199 155.136 49.6118 161.229C47.9734 167.322 36.5046 188.058 33.4326 193.843C30.3094 199.68 26.623 209.869 26.623 209.869L52.991 221.542Z" fill="black" stroke="black" stroke-miterlimit="10"/>
<path d="M61.7475 215.962C61.7475 215.962 55.8595 208.742 44.5443 205.67C33.2291 202.598 24.4739 202.65 24.4739 202.65L18.5859 218.419C18.5859 218.419 39.5267 223.539 46.4387 228.301C53.3507 233.062 55.1939 235.571 55.1939 235.571L61.7475 215.962Z" fill="black" stroke="black" stroke-miterlimit="10"/>
<path d="M52.2231 218.829C52.2231 218.829 55.4487 211.917 63.0774 208.026C70.7063 204.134 75.7239 202.445 83.0455 195.226C90.3671 188.006 102.45 181.555 107.417 180.685C112.383 179.814 114.021 177.664 111.922 175.206C109.772 172.749 103.935 172.646 98.7127 174.387C93.4903 176.128 88.6775 178.278 88.6775 178.278C91.3399 173.107 93.0807 166.81 95.6918 161.587C97.535 157.901 100.556 151.757 102.348 148.07C103.525 145.613 107.007 141.568 105.471 138.957C103.935 136.294 100.197 138.086 98.303 140.595C95.2822 144.64 80.5878 166.758 80.5878 166.758C83.4039 160.87 86.1687 154.931 88.9847 149.043C93.2343 140.083 95.231 135.782 94.6678 137.062C95.8966 134.451 98.3031 130.918 96.8695 127.898C95.3847 124.826 91.0838 124.518 89.2919 127.437C87.2439 130.765 71.6278 160.307 71.6278 160.307C71.6278 160.307 81.4071 134.963 82.6358 132.045C84.1719 128.461 83.2503 125.389 80.9975 125.389C77.7207 125.44 76.1847 129.024 74.9047 131.482C75.1607 131.123 75.3655 130.765 75.6215 130.458C72.5494 134.554 70.5014 139.878 67.9415 144.333C64.9719 149.504 61.8487 154.624 58.6743 159.642C59.2887 154.419 61.3879 149.504 63.9991 144.998C65.5863 142.285 72.0887 135.526 70.9623 132.25C69.9895 129.382 62.8215 134.758 58.6743 140.595C56.4215 143.77 50.4311 152.422 48.8439 158.515C47.2055 164.608 35.7367 185.344 32.6647 191.13C29.5927 196.915 25.9062 207.104 25.9062 207.104L52.2231 218.829Z" fill="#EFC7A8"/>
<path d="M71.525 160.307L68.709 166.042" stroke="black" stroke-miterlimit="10"/>
<path d="M80.5375 166.758L78.3359 169.626" stroke="black" stroke-miterlimit="10"/>
<path d="M88.6773 178.278L85.8613 182.426" stroke="black" stroke-miterlimit="10"/>
<path d="M74.0349 175.565L73.8301 178.022" stroke="black" stroke-miterlimit="10"/>
<path d="M66.9688 171.11V173.466" stroke="black" stroke-miterlimit="10"/>
<path d="M56.627 166.144L57.1902 170.189" stroke="black" stroke-miterlimit="10"/>
<path d="M60.98 213.248C60.98 213.248 55.092 206.029 43.7768 202.957C32.4616 199.885 23.7064 199.936 23.7064 199.936L17.8184 215.706C17.8184 215.706 38.7592 220.826 45.6712 225.587C52.5832 230.349 54.4264 232.858 54.4264 232.858L60.98 213.248Z" fill="#D0F350"/>
<path d="M51.5584 247.347C51.5584 247.347 53.0432 242.432 55.0912 237.568C57.1392 232.704 53.248 230.554 53.248 230.554C53.248 230.554 47.36 223.59 32.8704 218.778C18.3808 213.965 17.152 213.811 13.8752 218.061C10.5984 222.31 0 247.706 0 247.706" fill="#70C630"/>
</svg>
