<svg width="40" height="40" viewBox="0 0 40 40" fill="none" xmlns="http://www.w3.org/2000/svg">
<rect x="0.5" y="0.5" width="39" height="39" rx="19.5" fill="white"/>
<rect x="0.5" y="0.5" width="39" height="39" rx="19.5" stroke="#C9CBCE"/>
<g clip-path="url(#clip0_6585_162302)">
<path d="M19.9946 33.9963C12.2576 33.9963 6.00195 27.7443 6.00195 20.0074C6.00195 12.2704 12.2576 6.0166 19.9946 6.0166C27.7334 6.0166 33.9872 12.2704 33.9872 20.0074C33.9872 27.7443 27.7334 33.9963 19.9946 33.9963Z" fill="white"/>
<path d="M33.9872 20.0074C33.9872 27.7351 27.7241 33.9963 19.9946 33.9963C12.2669 33.9963 6.00195 27.7351 6.00195 20.0074C6.00195 17.8723 6.47847 15.8609 7.32623 14.062C6.76106 15.4915 6.49694 16.9192 6.49694 18.2435C6.49694 24.5768 11.613 25.4947 13.7832 25.4762C17.1004 25.4411 20.9661 23.8177 24.2297 20.8182C24.2297 20.8182 23.8067 23.1823 23.683 23.9063C23.5592 24.6119 24.0173 25.2287 24.7228 25.2287H25.0054C25.7294 25.2287 26.2595 24.6303 26.3814 23.9063L27.5653 17.3089C27.7056 16.5665 27.2291 15.9847 26.4885 15.9847H19.8893C19.1487 15.9847 18.4764 16.3725 18.3545 17.1132C18.3545 17.1501 18.3009 17.3607 18.3009 17.4142C18.1956 18.1198 18.6888 18.648 19.3943 18.648H22.8352C22.7823 18.7009 22.7293 18.7539 22.6764 18.8068C20.2956 21.0491 17.3479 22.2828 14.9136 22.2828C12.4959 22.2828 9.779 20.748 9.779 17.3089C9.779 10.163 16.4835 6.0166 19.9946 6.0166C27.7056 6.0166 33.9872 12.2797 33.9872 20.0074Z" fill="#DF2127"/>
</g>
<defs>
<clipPath id="clip0_6585_162302">
<rect width="28" height="28" fill="white" transform="translate(6 6)"/>
</clipPath>
</defs>
</svg>
