<svg width="40" height="40" viewBox="0 0 40 40" fill="none" xmlns="http://www.w3.org/2000/svg">
<g clip-path="url(#clip0_6587_162338)">
<path d="M29.9964 37.3219C39.5644 31.794 42.8376 19.5709 37.3212 10.0029C31.8047 0.434947 19.5701 -2.8383 10.0022 2.67815C0.434214 8.20605 -2.83903 20.4292 2.67742 29.9972C8.20531 39.5651 20.4285 42.8384 29.9964 37.3219ZM13.5043 14.5351L12.4628 12.7039C11.6617 11.3076 12.0623 9.49932 13.4242 8.66384C14.8205 7.81692 16.6288 8.29761 17.4414 9.69389L18.5401 11.6052C20.4857 14.9814 24.0909 17.053 27.9936 17.053H30.2025C31.7933 17.0873 33.1095 18.3806 33.1095 19.9943C33.1095 21.608 31.8162 22.9013 30.2025 22.9013H27.9936C24.0909 22.9013 20.4857 24.9729 18.5401 28.3491L17.4414 30.2604C16.6402 31.6567 14.8548 32.1259 13.47 31.3248C12.0737 30.5236 11.6045 28.7497 12.4056 27.3534L13.5043 25.4421C15.45 22.0773 15.45 17.9113 13.5043 14.5351Z" fill="#F79E37"/>
</g>
<defs>
<clipPath id="clip0_6587_162338">
<rect width="40" height="40" fill="white"/>
</clipPath>
</defs>
</svg>
