<svg width="256" height="256" viewBox="0 0 256 256" fill="none" xmlns="http://www.w3.org/2000/svg">
<path d="M5.06925 175.411L75.162 220.826C79.1556 223.386 84.2244 223.539 88.3204 221.184L251.802 127.488C255.949 125.133 256.052 119.194 252.058 116.685L178.381 70.1952C176.231 68.8128 173.466 68.7616 171.264 70.0928L5.22285 168.243C2.50925 169.83 2.40685 173.722 5.06925 175.411Z" fill="#001409"/>
<path d="M2.96978 163.84L73.0626 209.254C77.0562 211.814 82.125 211.968 86.221 209.613L249.754 115.968C253.901 113.613 254.003 107.674 250.01 105.165L176.333 58.6751C174.183 57.2927 171.418 57.2415 169.216 58.5727L3.07218 156.672C0.409776 158.259 0.307376 162.15 2.96978 163.84Z" fill="#006E0C" stroke="black" stroke-miterlimit="10"/>
<path d="M2.96978 159.642L73.0626 205.056C77.0562 207.616 82.125 207.77 86.221 205.414L249.754 111.77C253.901 109.414 254.003 103.475 250.01 100.966L179.303 56.3712C175.309 53.8624 170.189 53.76 166.144 56.1664L3.07218 152.474C0.409776 154.061 0.307376 157.901 2.96978 159.642Z" fill="#05CB0A" stroke="black" stroke-miterlimit="10"/>
<path d="M17.1513 154.266L83.8137 196.659C85.7593 197.888 88.2681 197.99 90.3161 196.813L245.811 109.363C248.575 107.776 248.678 103.834 245.964 102.144L174.95 58.1632C173.618 57.344 171.929 57.2928 170.546 58.112L17.3049 147.098C14.5913 148.685 14.4889 152.576 17.1513 154.266Z" fill="#FDFBDA" stroke="black" stroke-miterlimit="10"/>
<path d="M207.821 78.848L147.405 164.454L140.749 168.192L60.9277 122.01L93.1325 103.322L199.219 73.5232L207.821 78.848Z" fill="#E9E7C9"/>
<path d="M43.3153 181.248C45.3512 181.248 47.0017 179.85 47.0017 178.125C47.0017 176.4 45.3512 175.002 43.3153 175.002C41.2794 175.002 39.6289 176.4 39.6289 178.125C39.6289 179.85 41.2794 181.248 43.3153 181.248Z" fill="#006E0C" stroke="black" stroke-miterlimit="10.0001"/>
<path d="M35.6348 74.5472L201.113 42.496L73.574 92.9792L35.6348 74.5472Z" fill="#C3F53C"/>
<path d="M201.114 42.496L108.8 108.698L91.1874 148.582L73.5234 92.928L201.114 42.496Z" fill="#00C805"/>
<path d="M199.936 43.52C200.089 43.4688 200.192 43.264 200.141 43.1104C200.089 42.9568 199.936 42.8544 199.782 42.9056L199.936 43.52ZM73.7278 93.2864L199.936 43.52L199.782 42.9056L73.5742 92.6208L73.7278 93.2864Z" fill="#002C15"/>
<path d="M163.656 69.6652C165.232 50.8987 153.695 34.6092 137.887 33.2816C122.079 31.954 107.986 46.0911 106.41 64.8576C104.834 83.6242 116.371 99.9137 132.179 101.241C147.987 102.569 162.08 88.4318 163.656 69.6652Z" fill="black"/>
<path d="M167.219 70.7731C168.75 52.5419 157.542 36.7171 142.185 35.4274C126.828 34.1376 113.137 47.8714 111.606 66.1026C110.075 84.3338 121.283 100.159 136.64 101.448C151.997 102.738 165.688 89.0043 167.219 70.7731Z" fill="#C3F53C" stroke="black" stroke-miterlimit="10"/>
<path d="M141.979 52.0704C134.401 51.456 127.643 58.2144 126.875 67.2256L125.492 83.5072L139.214 84.6848C146.791 85.2992 153.55 78.5408 154.318 69.5296L155.7 53.248L141.979 52.0704ZM128.82 77.2096L129.691 67.1232C130.305 60.1088 135.579 54.784 141.467 55.296L149.966 56.0128L150.785 56.064L147.764 59.0848L138.753 58.3168L138.497 61.5936L144.795 62.1056L138.753 68.1472L132.455 67.6352L132.199 70.912L135.732 71.2192L128.82 78.1824V77.2096ZM152.423 59.4944L151.553 69.5808C150.939 76.5952 145.665 81.92 139.777 81.408L131.278 80.6912L130.459 80.64L137.371 73.6768L137.012 77.8752L139.777 78.1312L140.391 70.656L146.433 64.6144L145.819 72.0896L148.583 72.3456L149.505 61.5936L152.526 58.5728L152.423 59.4944Z" fill="#002C15"/>
<path d="M201.112 42.496L108.799 108.698L123.8 117.094L151.397 130.304L201.112 42.496Z" fill="#C3F53C"/>
<path d="M91.3398 147.661L108.901 108.646L199.833 43.2128" stroke="#002C15"/>
<path d="M108.902 108.646L123.904 116.992" stroke="#002C15"/>
<path d="M162.97 49.8688L200.5 42.9568L151.297 129.946L123.956 116.992L123.802 116.89L123.649 117.043L91.3413 148.019L73.8309 92.8256L73.7797 92.672L73.6773 92.6208L36.7109 74.6496L112.743 59.904" stroke="#002C15" stroke-miterlimit="10"/>
<path d="M91.1875 148.582L123.802 117.094L108.8 108.698L91.1875 148.582Z" fill="#005E31"/>
<path d="M54.7333 146.432L97.3829 172.851C101.172 175.206 101.069 178.842 97.1269 180.941C93.1845 183.04 86.9381 182.835 83.0981 180.48L40.4485 154.061C36.6597 151.706 36.7621 148.07 40.7045 145.971C44.6469 143.872 50.9445 144.077 54.7333 146.432Z" fill="#001409"/>
<path d="M54.7333 144.333L97.3829 170.752C101.172 173.107 101.069 176.742 97.1269 178.842C93.1845 180.941 86.9381 180.736 83.0981 178.381L40.4485 151.962C36.6597 149.606 36.7621 145.971 40.7045 143.872C44.6469 141.773 50.9445 141.978 54.7333 144.333Z" fill="#C3F53C" stroke="black" stroke-miterlimit="10"/>
<path d="M58.1133 158.106L65.5373 154.112L68.2509 155.802C68.8141 156.16 69.1725 156.467 69.3261 156.826C69.4797 157.184 69.4797 157.491 69.2749 157.85C69.1213 158.157 68.7629 158.464 68.3021 158.72C67.8413 158.976 67.2781 159.13 66.7149 159.232C66.1517 159.334 65.5885 159.283 64.9741 159.181C64.3597 159.078 63.7965 158.822 63.2333 158.464L61.4413 157.338L62.5677 156.723L64.2061 157.747C64.5133 157.952 64.8717 158.106 65.1789 158.157C65.4861 158.208 65.7933 158.208 66.1005 158.157C66.4077 158.106 66.7149 158.003 66.9709 157.85C67.2269 157.696 67.4317 157.542 67.5341 157.389C67.6365 157.235 67.6365 157.03 67.5341 156.826C67.4317 156.621 67.2269 156.416 66.9197 156.262L65.7421 155.546L59.3933 158.925L58.1133 158.106ZM65.4349 162.765C65.0765 162.56 64.8717 162.304 64.7181 162.099C64.5645 161.843 64.5645 161.638 64.6157 161.382C64.7181 161.126 64.9229 160.922 65.2813 160.717C65.5885 160.563 65.8957 160.461 66.2541 160.41C66.5613 160.358 66.8685 160.358 67.2269 160.41C67.5341 160.461 67.8413 160.563 68.1485 160.666C68.4557 160.768 68.7629 160.922 69.0701 161.075C69.4285 161.229 69.6845 161.382 69.9405 161.485C70.1453 161.587 70.3501 161.638 70.5037 161.69C70.6573 161.69 70.8109 161.69 70.9133 161.638C71.1693 161.485 71.3229 161.331 71.3229 161.126C71.3229 160.973 71.1693 160.768 70.8621 160.563C70.5549 160.358 70.2477 160.256 69.8893 160.205C69.5821 160.154 69.2749 160.205 69.0189 160.256L67.9949 159.437C68.4045 159.334 68.8653 159.232 69.3261 159.283C69.7869 159.283 70.1965 159.386 70.6573 159.488C71.0669 159.642 71.4765 159.795 71.8861 160.051C72.1421 160.205 72.3981 160.41 72.5517 160.563C72.7565 160.768 72.8589 160.973 72.9613 161.178C73.0125 161.382 73.0125 161.587 72.9101 161.792C72.8077 161.997 72.5517 162.202 72.1933 162.406L68.4557 164.403L67.2269 163.635L67.9949 163.226L67.9437 163.174C67.6877 163.226 67.4317 163.226 67.1757 163.226C66.9197 163.226 66.6125 163.174 66.3053 163.072C65.9981 163.072 65.6909 162.97 65.4349 162.765ZM66.7149 162.458C66.9709 162.611 67.2269 162.714 67.5341 162.765C67.8413 162.816 68.0973 162.816 68.4045 162.816C68.6605 162.765 68.9165 162.714 69.1213 162.611L69.7869 162.253C69.7357 162.253 69.6333 162.202 69.4797 162.202C69.3773 162.15 69.2237 162.099 69.0701 162.048C68.9165 161.997 68.8141 161.946 68.6605 161.843C68.5069 161.792 68.4045 161.741 68.3021 161.69C68.0973 161.587 67.8925 161.485 67.6365 161.434C67.4317 161.382 67.2269 161.331 67.0221 161.331C66.8173 161.331 66.6637 161.382 66.4589 161.485C66.2029 161.638 66.1005 161.792 66.1517 161.946C66.3053 162.15 66.4589 162.304 66.7149 162.458ZM67.7901 166.554C67.6365 166.451 67.4829 166.349 67.3293 166.246C67.2269 166.144 67.1245 166.042 67.0733 165.99L68.4045 165.632C68.5581 165.786 68.6605 165.888 68.8141 165.99C68.9677 166.093 69.1213 166.144 69.3261 166.144C69.5309 166.144 69.7869 166.144 70.0429 166.093L70.4525 165.99L74.1901 161.69L75.5213 162.509L72.5517 165.53L72.6029 165.581L78.0813 164.096L79.4125 164.915L70.9645 166.963C70.5549 167.066 70.1965 167.117 69.7869 167.117C69.4285 167.117 69.0189 167.066 68.6605 167.014C68.5069 166.912 68.1485 166.758 67.7901 166.554Z" fill="#002C15"/>
</svg>
