<svg width="40" height="40" viewBox="0 0 40 40" fill="none" xmlns="http://www.w3.org/2000/svg">
<rect width="40" height="40" rx="20" fill="#C3F53C"/>
<path d="M20 8C13.3709 8 8 13.3709 8 20V32H20C26.6291 32 32 26.6291 32 20V8H20ZM10.3991 27.2019V19.7746C10.3991 14.5962 14.5962 10.3991 19.7746 10.3991H27.2019H27.9061L25.507 12.7981H17.6009V15.1972H23.1033L18.3052 20H12.7981V22.3991H15.9014L10.3991 27.9061V27.2019ZM29.6009 12.7981V20.2254C29.6009 25.4038 25.4038 29.6009 20.2254 29.6009H12.7981H12.0939L17.5962 24.0986V27.2019H19.9953V21.6995L24.7934 16.9014V22.4038H27.2019V14.4977L29.6009 12.0986V12.7981Z" fill="#002C15"/>
</svg>
