<svg width="40" height="40" viewBox="0 0 40 40" fill="none" xmlns="http://www.w3.org/2000/svg">
<rect x="0.5" y="0.5" width="39" height="39" rx="19.5" fill="white"/>
<rect x="0.5" y="0.5" width="39" height="39" rx="19.5" stroke="#C9CBCE"/>
<g clip-path="url(#clip0_6585_162307)">
<path d="M18.4327 12.8004C18.2722 12.8004 18.1169 12.8592 17.9948 12.9662C17.8727 13.0732 17.7919 13.2214 17.7668 13.3841L16.6601 20.5841L15.6432 27.2L15.6426 27.2056L15.6438 27.2L16.6607 20.5841C16.7124 20.2478 16.9946 20.0004 17.3262 20.0004H20.5685C23.8316 20.0004 26.6012 17.558 27.1069 14.2482C27.1455 13.9968 27.1661 13.7477 27.1708 13.5019V13.5015H27.1704C26.3412 13.0552 25.3674 12.8004 24.3004 12.8004H18.4327Z" fill="#001C64"/>
<path d="M27.1699 13.5016C27.1653 13.7474 27.1444 13.9967 27.106 14.2482C26.6002 17.5579 23.8307 20.0003 20.5676 20.0003H17.3253C16.9936 20.0003 16.7114 20.2478 16.6597 20.584L15.6429 27.2L15.0047 31.3508C14.9924 31.4309 14.9972 31.5129 15.0187 31.591C15.0403 31.6691 15.078 31.7415 15.1294 31.8032C15.1808 31.8649 15.2446 31.9144 15.3165 31.9484C15.3883 31.9823 15.4665 31.9999 15.5456 32H19.065C19.2255 32 19.3808 31.9412 19.5029 31.8342C19.625 31.7272 19.7058 31.579 19.7309 31.4163L20.658 25.384C20.7099 25.0478 20.9922 24.8 21.3239 24.8H23.3962C26.6593 24.8 29.4284 22.3576 29.9342 19.0482C30.2933 16.6987 29.1409 14.5614 27.1699 13.5016Z" fill="#0070E0"/>
<path d="M14.4342 8C14.2736 8.00001 14.1182 8.05884 13.9962 8.16592C13.8741 8.273 13.7933 8.42128 13.7683 8.58406L11.0067 26.5504C10.9944 26.6306 10.9991 26.7126 11.0206 26.7908C11.0421 26.8689 11.0799 26.9413 11.1313 27.0031C11.1827 27.0648 11.2465 27.1144 11.3184 27.1484C11.3903 27.1824 11.4685 27.2 11.5476 27.2H15.643L16.6599 20.584L17.7666 13.3841C17.7917 13.2213 17.8726 13.0732 17.9946 12.9662C18.1167 12.8591 18.272 12.8004 18.4326 12.8004H24.3C25.3672 12.8004 26.341 13.0555 27.1704 13.5012C27.2269 10.4881 24.8035 8 21.4712 8H14.4342Z" fill="#003087"/>
</g>
<defs>
<clipPath id="clip0_6585_162307">
<rect width="19" height="24" fill="white" transform="translate(11 8)"/>
</clipPath>
</defs>
</svg>
