<svg width="48" height="48" viewBox="0 0 48 48" fill="none" xmlns="http://www.w3.org/2000/svg">
<rect x="0.75" y="0.75" width="46.5" height="46.5" rx="23.25" stroke="#C3F53C" stroke-width="1.5"/>
<path d="M32.6 23.2C32.2 22.4 31.6 21.8 30.8 21.4C30.5 21.3 30.3 21.2 30 21.1V20C30 16.7 27.3 14 24 14C20.7 14 18 16.7 18 20V21.2C17.7 21.2 17.5 21.3 17.2 21.4C16.4 21.8 15.8 22.4 15.4 23.2C15 24 15 25 15 26.8V28.2C15 30 15 31 15.4 31.8C15.8 32.6 16.4 33.2 17.2 33.6C18 34 19 34 20.8 34H27.2C29 34 30 34 30.8 33.6C31.6 33.2 32.2 32.6 32.6 31.8C33 31 33 30 33 28.2V26.8C33 25 33 24 32.6 23.2ZM25 28.5C25 29.1 24.6 29.5 24 29.5C23.4 29.5 23 29.1 23 28.5V26.5C23 25.9 23.4 25.5 24 25.5C24.6 25.5 25 25.9 25 26.5V28.5ZM28 21H20V20C20 17.8 21.8 16 24 16C26.2 16 28 17.8 28 20V21Z" fill="#C3F53C"/>
</svg>
