<svg width="48" height="48" viewBox="0 0 48 48" fill="none" xmlns="http://www.w3.org/2000/svg">
<rect x="0.75" y="0.75" width="46.5" height="46.5" rx="23.25" stroke="#C3F53C" stroke-width="1.5"/>
<path d="M32.6556 23.8433V19.4545C32.6556 18.7022 32.6556 18.2006 32.5289 17.7618C32.4023 17.3856 32.0856 17.0721 31.8956 16.8213C31.8956 16.8213 31.8323 16.8213 31.8323 16.7586C31.5157 16.5078 31.1357 16.3197 30.3124 16.0063L25.1194 14.0627H25.0561C24.9927 14.0627 24.9294 14 24.8661 14C24.7394 14.0627 24.6128 14 24.4861 14H24.2328C24.1061 14 23.9795 14.0627 23.8528 14.0627C23.7895 14.0627 23.7262 14.1254 23.6628 14.1254H23.5995L18.3432 16.069C17.5832 16.3824 17.2033 16.5705 16.8866 16.8213C16.8866 16.8213 16.8233 16.8213 16.8233 16.884C16.57 17.0721 16.3166 17.3856 16.1267 17.8245C16 18.2006 16 18.6395 16 19.4545V24.0313C16 28.6708 20.623 32.1191 23.3462 33.7492H23.4095C23.5995 33.8746 23.7262 33.9373 23.9795 34C24.0428 34 24.1061 34 24.1695 34H24.6128C24.8661 34 25.0561 33.8746 25.2461 33.8119C25.3094 33.8119 25.3094 33.7492 25.4361 33.6865C27.6526 32.4326 32.7822 28.9216 32.7822 23.9687C32.7189 23.9687 32.6556 23.906 32.6556 23.8433Z" fill="#C3F53C"/>
<path d="M21.4473 23.5926L23.3471 25.4735L27.7169 21.1475" stroke="#002C15" stroke-width="2" stroke-linecap="round" stroke-linejoin="round"/>
</svg>
