<svg width="40" height="40" viewBox="0 0 40 40" fill="none" xmlns="http://www.w3.org/2000/svg">
<rect width="40" height="40" rx="20" fill="#212E61"/>
<path fill-rule="evenodd" clip-rule="evenodd" d="M30.777 8.22187C30.9197 8.36401 31 8.557 31 8.75764V25.9914C31 26.0507 30.9923 26.11 30.9785 26.168C30.9646 26.2259 30.9439 26.2824 30.9169 26.3354C30.8892 26.3878 30.856 26.4375 30.8171 26.483C30.7784 26.5285 30.734 26.5691 30.6856 26.6036L20.8348 33.7297C20.7144 33.8173 20.5807 33.8849 20.4389 33.9311C20.2969 33.9766 20.1489 34 19.9999 34C19.8504 34 19.7023 33.9766 19.5604 33.9311C19.4191 33.8849 19.2848 33.8173 19.1645 33.7297L9.31295 26.6016C9.11703 26.4589 9 26.2314 9 25.9894V8.75691C9 8.65768 9.01943 8.55902 9.05743 8.46729C9.09629 8.37571 9.15227 8.2915 9.22289 8.22187C9.29279 8.15167 9.37734 8.09577 9.46928 8.05792C9.56137 8.01921 9.66041 8 9.76004 8H30.2391C30.289 8 30.3389 8.00477 30.3873 8.01444C30.4365 8.02412 30.4842 8.03857 30.5306 8.0572C30.5763 8.07641 30.6206 8.09996 30.6621 8.12755C30.703 8.15499 30.7417 8.18605 30.777 8.2213V8.22187ZM29.3794 24.6341C29.3725 24.5575 29.3558 24.4817 29.3303 24.4086C29.3053 24.3355 29.2707 24.2659 29.2285 24.2019C29.1855 24.137 29.1356 24.0778 29.0782 24.0253L20.6022 17.8904C20.5413 17.8464 20.4741 17.8126 20.4028 17.7892C20.3309 17.7664 20.2568 17.7547 20.1813 17.7547C20.1065 17.7547 20.0318 17.7664 19.9605 17.7892C19.8891 17.8126 19.8214 17.8464 19.7611 17.8904L16.5304 20.2275C16.0894 20.546 15.5695 20.7136 15.0344 20.7136C14.9008 20.7136 14.7658 20.7032 14.6302 20.6812C14.4653 20.6556 14.3027 20.6136 14.1463 20.5564C13.9891 20.4992 13.8382 20.4261 13.6963 20.3391C13.5537 20.2523 13.42 20.1516 13.2975 20.038C13.1749 19.9249 13.0636 19.8001 12.966 19.665C12.8669 19.5305 12.7818 19.3872 12.7119 19.2361C12.6413 19.0852 12.5866 18.9273 12.5471 18.7654C12.5084 18.6033 12.4855 18.4379 12.4793 18.2718C12.473 18.1057 12.4835 17.9388 12.5097 17.7747C12.5354 17.6099 12.5776 17.4486 12.635 17.2921C12.6925 17.1357 12.7653 16.9853 12.8524 16.8433C12.9403 16.7021 13.0414 16.569 13.1549 16.4462C13.2685 16.3242 13.3945 16.214 13.5295 16.1167L15.8395 14.445L14.5651 13.5233L10.5202 10.5975V25.6033L19.8282 32.3372C19.9065 32.3786 19.9902 32.4096 20.0775 32.4282C20.1647 32.4469 20.254 32.4537 20.3426 32.4475C20.4312 32.4412 20.5185 32.4228 20.6022 32.3924C20.686 32.3621 20.7649 32.3206 20.837 32.2682L20.9221 32.2062C21.2094 31.9987 21.3554 31.6602 21.3048 31.2989C21.2681 31.0384 21.1118 30.8088 20.8979 30.6544L17.0081 27.8411C16.9242 27.7804 16.8551 27.7019 16.8052 27.6109C16.756 27.5199 16.727 27.4192 16.7215 27.3158C16.7158 27.2131 16.7338 27.1096 16.7734 27.0139C16.8129 26.9187 16.8738 26.8324 16.9506 26.7635C17.1811 26.5512 17.5958 26.5492 17.8492 26.7325L21.7417 29.5487L22.6091 30.176C22.69 30.2346 22.7793 30.2801 22.8742 30.3105C22.9698 30.3414 23.0688 30.3573 23.1692 30.3573C23.2688 30.3573 23.3678 30.3414 23.4634 30.3105C23.5581 30.2801 23.6474 30.2346 23.7285 30.176L23.8171 30.1126C24.1044 29.9044 24.2504 29.5666 24.1992 29.2053C24.1633 28.9441 24.0061 28.7152 23.7922 28.56L19.9023 25.7475C19.8187 25.6861 19.7493 25.6075 19.6996 25.5165C19.6504 25.4262 19.622 25.3248 19.6165 25.2221C19.611 25.1187 19.6282 25.0153 19.6677 24.9202C19.7071 24.8243 19.768 24.7388 19.8449 24.6692C20.0755 24.4575 20.4908 24.4555 20.7442 24.6388L25.5034 28.0816C25.5844 28.1403 25.6743 28.1858 25.7692 28.2168C25.864 28.2472 25.9638 28.2629 26.0634 28.2629C26.1638 28.2629 26.2628 28.2472 26.3584 28.2168C26.4532 28.1858 26.5432 28.1403 26.6235 28.0816L26.7114 28.0182C26.9979 27.8108 27.1447 27.4716 27.0942 27.1111C27.0575 26.8498 26.9003 26.6215 26.6864 26.4664L22.8487 23.6896L22.7981 23.6531C22.7137 23.5924 22.6443 23.5139 22.5952 23.4228C22.5454 23.3318 22.517 23.2312 22.5108 23.1277C22.5053 23.025 22.5232 22.9216 22.5627 22.8258C22.6021 22.7299 22.6623 22.6446 22.7392 22.5749C22.9705 22.3632 23.3844 22.3611 23.6384 22.5446L23.6689 22.5666L27.8537 25.5964C28.2233 25.8646 28.7321 25.8383 29.0789 25.5088C29.2105 25.3848 29.3303 25.1256 29.3585 24.9471L29.371 24.865C29.3835 24.7885 29.3857 24.7112 29.3794 24.6341ZM28.3894 9.51311L28.3888 9.51383H28.3901L28.3894 9.51311ZM28.3888 9.51383H11.6105L17.1326 13.5094L18.7927 12.3086C18.8038 12.301 18.8156 12.2935 18.8266 12.2858C18.8383 12.2789 18.8501 12.2714 18.8618 12.2652C18.8737 12.2582 18.8855 12.252 18.8979 12.2458C18.9104 12.2396 18.9222 12.2341 18.9352 12.2286C19.327 11.9914 19.7508 11.8101 20.1938 11.6902C20.6368 11.5702 21.0944 11.513 21.5534 11.5199C22.0123 11.5269 22.4686 11.5978 22.9074 11.7308C23.3464 11.8639 23.7645 12.0576 24.1493 12.3072C24.2712 12.3865 24.4311 12.3775 24.5481 12.2935L28.3888 9.51383ZM29.4798 22.4404L29.4783 22.4397V22.4404H29.4798ZM29.4783 22.4397V10.5975L24.7613 14.01C24.4706 14.221 24.0642 14.2058 23.8039 13.9575C22.6256 12.8401 20.8093 12.7215 19.4912 13.675L17.1334 15.3812H17.1326L14.4231 17.3411C14.3684 17.3804 14.318 17.4252 14.2716 17.4749C14.2259 17.5238 14.185 17.5776 14.1497 17.6355C14.1144 17.6927 14.0846 17.7534 14.0617 17.8168C14.0382 17.8795 14.0217 17.945 14.0113 18.0112C14.0002 18.0781 13.996 18.145 13.9988 18.2124C14.0008 18.2793 14.0105 18.3462 14.0265 18.4116C14.0417 18.4772 14.0639 18.5406 14.0922 18.602C14.1206 18.6627 14.1553 18.7212 14.1954 18.775C14.2349 18.8295 14.2798 18.8805 14.329 18.926C14.3789 18.9715 14.4328 19.0128 14.4902 19.0481C14.5484 19.0832 14.6093 19.112 14.6724 19.1356C14.7361 19.159 14.8017 19.1755 14.8683 19.1859C14.9355 19.1963 15.0026 19.2003 15.0705 19.1983C15.1376 19.1955 15.2048 19.1866 15.2704 19.1707C15.3363 19.1548 15.4007 19.1328 15.4616 19.1045C15.5231 19.0762 15.5812 19.0418 15.636 19.0026L19.4573 16.2388C19.5618 16.163 19.6774 16.1043 19.8005 16.0643C19.9238 16.025 20.0518 16.0044 20.1813 16.0044C20.3108 16.0044 20.4395 16.025 20.562 16.0643C20.6853 16.1043 20.8009 16.163 20.9061 16.2388L29.4783 22.4397Z" fill="white"/>
</svg>
