<svg width="40" height="40" viewBox="0 0 40 40" fill="none" xmlns="http://www.w3.org/2000/svg">
<rect x="0.5" y="0.5" width="39" height="39" rx="19.5" fill="white"/>
<rect x="0.5" y="0.5" width="39" height="39" rx="19.5" stroke="#C9CBCE"/>
<path fill-rule="evenodd" clip-rule="evenodd" d="M19.335 13.0765C19.0387 15.1625 18.8018 16.9186 18.375 19.6536C19.528 19.6285 22.1451 20.0877 22.7211 16.3499C23.1979 13.2404 21.0724 12.9524 19.335 13.0765Z" fill="black"/>
<path fill-rule="evenodd" clip-rule="evenodd" d="M29.3211 28.1141C29.7698 29.1127 29.318 30.3753 28.382 30.8835C27.8446 31.1757 27.231 31.447 26.6185 31.5993C25.6073 31.8409 24.5734 31.9752 23.534 32C21.8718 32 20.2053 31.0484 19.4874 29.8901C19.3017 30.2897 18.6318 31.0932 17.4578 31.471C16.7159 31.711 15.8217 32 13.9549 31.9979C12.2822 31.9969 11.3285 31.2383 10.8245 30.6017C10.021 29.5896 9.90307 28.304 10.0596 27.4379L10.0679 27.3962C10.6992 24.2292 11.5622 18.4713 11.9598 15.5861L11.9639 15.5579C12.0725 14.7576 12.1831 13.9572 12.2488 13.1517C12.2812 12.7458 12.3031 12.3378 12.3072 11.9308C12.3114 11.5458 12.2759 11.1618 12.2791 10.7767C12.2832 10.4136 12.3417 10.0463 12.5118 9.7249C12.7883 9.20629 13.2944 8.79725 13.8297 8.61882C14.4172 8.42264 15.0307 8.34438 15.6411 8.27342C16.2653 8.19864 16.8908 8.13602 17.5173 8.0856C18.2813 8.02946 19.047 8.00092 19.813 8.00003C21.1236 7.99899 22.4425 8.0209 23.7344 8.28699C25.0502 8.55829 26.3796 9.0769 27.4178 9.98577C28.1295 10.6087 28.694 11.3945 29.1187 12.2543C29.4902 13.0119 29.6415 13.8091 29.7312 14.4185C29.8909 15.5122 29.8488 16.6258 29.607 17.7044C29.4161 18.4907 29.094 19.2393 28.6544 19.9186C28.1597 20.6866 27.5253 21.3837 26.7166 22.0473C27.2091 23.4769 28.4926 26.2692 29.3211 28.1141ZM14.6018 10.9218C14.6332 11.4519 14.6373 11.9861 14.6144 12.5183C14.5914 13.0619 14.5445 13.6035 14.4839 14.144C14.4245 14.6825 14.3525 15.2188 14.2794 15.7552L14.2554 15.9305C14.0258 17.6073 13.7838 19.2821 13.5302 20.9538C13.2631 22.711 12.9636 24.4588 12.6641 26.2087C12.5253 27.0247 12.2133 28.0703 12.6401 28.8487C13.0199 29.5437 13.9945 29.6282 14.6738 29.5583C17.1479 29.3057 17.5413 28.7558 17.5413 28.7558C17.0478 28.2091 17.4766 25.7172 17.9733 22.3677H19.7316L21.5723 27.9346C21.5723 27.9346 22.1149 29.6595 23.6227 29.576C25.5542 29.4696 26.9754 29.0282 27.1799 28.783C26.5851 28.4511 24.8843 24.1979 23.9577 21.0748C24.4064 20.8014 24.8415 20.504 25.2516 20.1711C25.8119 19.7141 26.3316 19.1871 26.7291 18.5684C27.015 18.1238 27.2331 17.6345 27.3584 17.1148C27.4241 16.8404 27.4606 16.5534 27.4836 16.2727C27.5253 15.7781 27.5097 15.2772 27.4377 14.7868C27.3688 14.3152 27.2655 13.7903 27.0547 13.3645C26.6634 12.5684 26.1093 11.8734 25.3538 11.4289C24.0787 10.6797 22.6095 10.5367 21.1768 10.4585C19.623 10.3721 18.0646 10.423 16.5198 10.6108C16.3465 10.6317 14.5945 10.7861 14.6018 10.9218Z" fill="black"/>
</svg>
