<svg width="21" height="24" viewBox="0 0 21 24" fill="none" xmlns="http://www.w3.org/2000/svg">
<path d="M19.9242 11.775V6.525C19.9242 5.625 19.9242 5.025 19.7727 4.5C19.6212 4.05 19.2424 3.675 19.0152 3.375C19.0152 3.375 18.9394 3.375 18.9394 3.3C18.5606 3 18.1061 2.775 17.1212 2.4L10.9091 0.075H10.8333C10.7576 0.075 10.6818 0 10.6061 0C10.4545 0.075 10.303 0 10.1515 0H9.84848C9.69697 0 9.54545 0.075 9.39394 0.075C9.31818 0.075 9.24242 0.15 9.16667 0.15H9.09091L2.80303 2.475C1.89394 2.85 1.43939 3.075 1.06061 3.375C1.06061 3.375 0.984848 3.375 0.984848 3.45C0.681818 3.675 0.378788 4.05 0.151515 4.575C0 5.025 0 5.55 0 6.525V12C0 17.55 5.5303 21.675 8.78788 23.625H8.86364C9.09091 23.775 9.24242 23.85 9.54545 23.925C9.62121 23.925 9.69697 23.925 9.77273 23.925H10.303C10.6061 23.925 10.8333 23.775 11.0606 23.7C11.1364 23.7 11.1364 23.625 11.2879 23.55C13.9394 22.05 20.0758 17.85 20.0758 11.925C20 11.925 19.9242 11.85 19.9242 11.775Z" fill="#C3F53C"/>
<path d="M6.51562 11.475L8.78835 13.725L14.0156 8.55005" stroke="#002C15" stroke-width="2" stroke-linecap="round" stroke-linejoin="round"/>
</svg>
