<svg width="50" height="50" viewBox="0 0 50 50" fill="none" xmlns="http://www.w3.org/2000/svg">
<rect x="0.5" y="0.5" width="49" height="49" rx="24.5" fill="#C3F53C"/>
<rect x="0.5" y="0.5" width="49" height="49" rx="24.5" stroke="#C3F53C" stroke-linecap="round"/>
<path d="M23.6254 26.375L33.2504 16.75M23.7423 26.6758L26.1514 32.8706C26.3637 33.4163 26.4698 33.6892 26.6227 33.7689C26.7552 33.8379 26.9131 33.838 27.0458 33.7691C27.1987 33.6896 27.3052 33.4169 27.5181 32.8714L33.5592 17.391C33.7514 16.8986 33.8474 16.6523 33.7949 16.495C33.7492 16.3584 33.642 16.2512 33.5054 16.2055C33.3481 16.153 33.1019 16.2491 32.6094 16.4412L17.129 22.4824C16.5835 22.6952 16.3108 22.8017 16.2313 22.9547C16.1624 23.0873 16.1625 23.2452 16.2315 23.3777C16.3112 23.5306 16.5841 23.6368 17.1298 23.849L23.3246 26.2581C23.4354 26.3012 23.4908 26.3227 23.5375 26.356C23.5788 26.3855 23.6149 26.4216 23.6444 26.463C23.6777 26.5096 23.6992 26.565 23.7423 26.6758Z" stroke="#002C15" stroke-width="1.6" stroke-linecap="round" stroke-linejoin="round"/>
</svg>
