<svg width="111" height="13" viewBox="0 0 111 13" fill="none" xmlns="http://www.w3.org/2000/svg">
<path d="M1.47718 12.1819H-8.87513e-05L4.27264 0.545521H5.72718L9.99991 12.1819H8.52264L5.04537 2.38643H4.95446L1.47718 12.1819ZM2.02264 7.63643H7.97718V8.88643H2.02264V7.63643ZM17.5624 5.40916L16.3579 5.75007C16.2821 5.54931 16.1704 5.35423 16.0226 5.16484C15.8787 4.97166 15.6817 4.81257 15.4317 4.68757C15.1817 4.56257 14.8617 4.50007 14.4715 4.50007C13.9374 4.50007 13.4923 4.62317 13.1363 4.86938C12.784 5.11181 12.6079 5.42052 12.6079 5.79552C12.6079 6.12885 12.7291 6.39211 12.9715 6.58529C13.2139 6.77848 13.5927 6.93946 14.1079 7.06825L15.4033 7.38643C16.1836 7.57582 16.7651 7.8656 17.1476 8.25575C17.5302 8.64211 17.7215 9.14022 17.7215 9.75007C17.7215 10.2501 17.5776 10.697 17.2897 11.091C17.0056 11.4849 16.6079 11.7955 16.0965 12.0228C15.5851 12.2501 14.9904 12.3637 14.3124 12.3637C13.4223 12.3637 12.6855 12.1705 12.1022 11.7842C11.5189 11.3978 11.1495 10.8334 10.9942 10.091L12.267 9.77279C12.3882 10.2425 12.6173 10.5948 12.9545 10.8296C13.2954 11.0645 13.7404 11.1819 14.2897 11.1819C14.9147 11.1819 15.4109 11.0493 15.7783 10.7842C16.1495 10.5152 16.3351 10.1932 16.3351 9.81825C16.3351 9.51522 16.2291 9.26143 16.017 9.05688C15.8048 8.84855 15.4791 8.69325 15.0397 8.59098L13.5851 8.25007C12.7859 8.06067 12.1988 7.76711 11.8238 7.36938C11.4526 6.96787 11.267 6.46598 11.267 5.8637C11.267 5.37128 11.4052 4.93567 11.6817 4.55688C11.962 4.1781 12.3427 3.88075 12.8238 3.66484C13.3086 3.44893 13.8579 3.34098 14.4715 3.34098C15.3351 3.34098 16.0132 3.53037 16.5056 3.90916C17.0018 4.28795 17.3541 4.78795 17.5624 5.40916ZM27.6263 3.45461V4.59098H22.9218V3.45461H27.6263ZM24.3309 12.1819V2.25007C24.3309 1.75007 24.4483 1.3334 24.6831 1.00007C24.918 0.666732 25.2229 0.416732 25.5979 0.250066C25.9729 0.0833991 26.3688 6.58035e-05 26.7854 6.58035e-05C27.115 6.58035e-05 27.3839 0.0265811 27.5922 0.0796118C27.8006 0.132642 27.9559 0.181884 28.0581 0.227339L27.6718 1.38643C27.6036 1.3637 27.5089 1.33529 27.3877 1.3012C27.2703 1.26711 27.115 1.25007 26.9218 1.25007C26.4786 1.25007 26.1585 1.36181 25.9616 1.58529C25.7684 1.80878 25.6718 2.13643 25.6718 2.56825V12.1819H24.3309ZM32.5553 12.3637C31.7144 12.3637 30.989 12.1781 30.3792 11.8069C29.7731 11.4319 29.3053 10.9092 28.9758 10.2387C28.65 9.56446 28.4871 8.78037 28.4871 7.88643C28.4871 6.99249 28.65 6.20461 28.9758 5.52279C29.3053 4.83719 29.7636 4.3031 30.3508 3.92052C30.9417 3.53416 31.6311 3.34098 32.4189 3.34098C32.8735 3.34098 33.3224 3.41673 33.7655 3.56825C34.2087 3.71976 34.6121 3.96598 34.9758 4.30688C35.3394 4.64401 35.6292 5.09098 35.8451 5.64779C36.061 6.20461 36.1689 6.89022 36.1689 7.70461V8.27279H29.4417V7.1137H34.8053C34.8053 6.62128 34.7068 6.18188 34.5099 5.79552C34.3167 5.40916 34.0402 5.10423 33.6803 4.88075C33.3242 4.65726 32.9038 4.54552 32.4189 4.54552C31.8849 4.54552 31.4227 4.6781 31.0326 4.94325C30.6462 5.20461 30.3489 5.54552 30.1405 5.96598C29.9322 6.38643 29.828 6.83719 29.828 7.31825V8.09098C29.828 8.75007 29.9417 9.30878 30.1689 9.76711C30.4 10.2217 30.7201 10.5682 31.1292 10.8069C31.5383 11.0417 32.0136 11.1592 32.5553 11.1592C32.9076 11.1592 33.2258 11.1099 33.5099 11.0114C33.7977 10.9092 34.0458 10.7576 34.2542 10.5569C34.4625 10.3523 34.6235 10.0986 34.7371 9.79552L36.0326 10.1592C35.8962 10.5986 35.6671 10.9849 35.3451 11.3182C35.0231 11.6478 34.6254 11.9054 34.1519 12.091C33.6784 12.2728 33.1462 12.3637 32.5553 12.3637ZM40.5269 12.3864C39.9739 12.3864 39.472 12.2823 39.0212 12.0739C38.5705 11.8618 38.2125 11.5569 37.9474 11.1592C37.6822 10.7576 37.5496 10.2728 37.5496 9.70461C37.5496 9.20461 37.6481 8.79931 37.8451 8.4887C38.0421 8.17431 38.3053 7.9281 38.6349 7.75007C38.9644 7.57204 39.328 7.43946 39.7258 7.35234C40.1273 7.26143 40.5307 7.18946 40.936 7.13643C41.4663 7.06825 41.8962 7.01711 42.2258 6.98302C42.5591 6.94514 42.8015 6.88264 42.953 6.79552C43.1083 6.7084 43.186 6.55688 43.186 6.34098V6.29552C43.186 5.73491 43.0326 5.29931 42.7258 4.9887C42.4227 4.6781 41.9625 4.52279 41.3451 4.52279C40.7049 4.52279 40.203 4.66295 39.8394 4.94325C39.4758 5.22355 39.2201 5.52279 39.0724 5.84098L37.7996 5.38643C38.0269 4.85613 38.3299 4.44325 38.7087 4.14779C39.0913 3.84855 39.508 3.64022 39.9587 3.52279C40.4133 3.40158 40.8602 3.34098 41.2996 3.34098C41.5799 3.34098 41.9019 3.37507 42.2655 3.44325C42.633 3.50764 42.9871 3.64211 43.328 3.84666C43.6727 4.0512 43.9587 4.35992 44.186 4.77279C44.4133 5.18567 44.5269 5.7387 44.5269 6.43188V12.1819H43.186V11.0001H43.1178C43.0269 11.1895 42.8754 11.3921 42.6633 11.608C42.4511 11.8239 42.1689 12.0076 41.8167 12.1592C41.4644 12.3107 41.0345 12.3864 40.5269 12.3864ZM40.7314 11.1819C41.2617 11.1819 41.7087 11.0777 42.0724 10.8694C42.4398 10.6611 42.7163 10.3921 42.9019 10.0626C43.0913 9.73302 43.186 9.38643 43.186 9.02279V7.79552C43.1292 7.8637 43.0042 7.9262 42.811 7.98302C42.6216 8.03605 42.4019 8.0834 42.1519 8.12507C41.9057 8.16295 41.6652 8.19704 41.4303 8.22734C41.1992 8.25385 41.0117 8.27658 40.8678 8.29552C40.5193 8.34098 40.1936 8.41484 39.8905 8.51711C39.5913 8.6156 39.3489 8.76522 39.1633 8.96598C38.9814 9.16295 38.8905 9.43188 38.8905 9.77279C38.8905 10.2387 39.0629 10.591 39.4076 10.8296C39.7561 11.0645 40.1974 11.1819 40.7314 11.1819ZM50.5198 3.45461V4.59098H45.9971V3.45461H50.5198ZM47.3153 1.3637H48.6562V9.68188C48.6562 10.0607 48.7111 10.3448 48.8209 10.5342C48.9346 10.7198 49.0785 10.8448 49.2528 10.9092C49.4308 10.9698 49.6183 11.0001 49.8153 11.0001C49.963 11.0001 50.0842 10.9925 50.1789 10.9773C50.2736 10.9584 50.3493 10.9432 50.4062 10.9319L50.6789 12.1364C50.588 12.1705 50.4611 12.2046 50.2982 12.2387C50.1353 12.2766 49.9289 12.2955 49.6789 12.2955C49.3001 12.2955 48.9289 12.2141 48.5653 12.0512C48.2054 11.8883 47.9062 11.6402 47.6675 11.3069C47.4327 10.9736 47.3153 10.5531 47.3153 10.0455V1.3637ZM57.7868 8.6137V3.45461H59.1278V12.1819H57.7868V10.7046H57.6959C57.4914 11.1478 57.1732 11.5247 56.7414 11.8353C56.3096 12.1421 55.7641 12.2955 55.105 12.2955C54.5596 12.2955 54.0747 12.1762 53.6505 11.9376C53.2262 11.6951 52.8929 11.3315 52.6505 10.8467C52.4081 10.358 52.2868 9.74249 52.2868 9.00007V3.45461H53.6278V8.90916C53.6278 9.54552 53.8058 10.0531 54.1618 10.4319C54.5217 10.8107 54.98 11.0001 55.5368 11.0001C55.8702 11.0001 56.2092 10.9148 56.5539 10.7444C56.9024 10.5739 57.194 10.3126 57.4289 9.96029C57.6675 9.60802 57.7868 9.15916 57.7868 8.6137ZM61.3337 12.1819V3.45461H62.6292V4.77279H62.7201C62.8792 4.34098 63.1671 3.9906 63.5837 3.72166C64.0004 3.45272 64.4701 3.31825 64.9928 3.31825C65.0913 3.31825 65.2144 3.32014 65.3621 3.32393C65.5099 3.32772 65.6216 3.3334 65.6974 3.34098V4.70461C65.6519 4.69325 65.5477 4.6762 65.3849 4.65348C65.2258 4.62696 65.0572 4.6137 64.8792 4.6137C64.4549 4.6137 64.0761 4.70272 63.7428 4.88075C63.4133 5.05499 63.1519 5.29741 62.9587 5.60802C62.7693 5.91484 62.6746 6.26522 62.6746 6.65916V12.1819H61.3337ZM70.4303 12.3637C69.5894 12.3637 68.864 12.1781 68.2542 11.8069C67.6481 11.4319 67.1803 10.9092 66.8508 10.2387C66.525 9.56446 66.3621 8.78037 66.3621 7.88643C66.3621 6.99249 66.525 6.20461 66.8508 5.52279C67.1803 4.83719 67.6386 4.3031 68.2258 3.92052C68.8167 3.53416 69.5061 3.34098 70.2939 3.34098C70.7485 3.34098 71.1974 3.41673 71.6405 3.56825C72.0837 3.71976 72.4871 3.96598 72.8508 4.30688C73.2144 4.64401 73.5042 5.09098 73.7201 5.64779C73.936 6.20461 74.0439 6.89022 74.0439 7.70461V8.27279H67.3167V7.1137H72.6803C72.6803 6.62128 72.5818 6.18188 72.3849 5.79552C72.1917 5.40916 71.9152 5.10423 71.5553 4.88075C71.1992 4.65726 70.7788 4.54552 70.2939 4.54552C69.7599 4.54552 69.2977 4.6781 68.9076 4.94325C68.5212 5.20461 68.2239 5.54552 68.0155 5.96598C67.8072 6.38643 67.703 6.83719 67.703 7.31825V8.09098C67.703 8.75007 67.8167 9.30878 68.0439 9.76711C68.275 10.2217 68.5951 10.5682 69.0042 10.8069C69.4133 11.0417 69.8886 11.1592 70.4303 11.1592C70.7826 11.1592 71.1008 11.1099 71.3849 11.0114C71.6727 10.9092 71.9208 10.7576 72.1292 10.5569C72.3375 10.3523 72.4985 10.0986 72.6121 9.79552L73.9076 10.1592C73.7712 10.5986 73.5421 10.9849 73.2201 11.3182C72.8981 11.6478 72.5004 11.9054 72.0269 12.091C71.5534 12.2728 71.0212 12.3637 70.4303 12.3637ZM79.1292 12.3637C78.4019 12.3637 77.7599 12.18 77.203 11.8126C76.6462 11.4414 76.2106 10.9186 75.8962 10.2444C75.5818 9.56635 75.4246 8.76522 75.4246 7.84098C75.4246 6.92431 75.5818 6.12885 75.8962 5.45461C76.2106 4.78037 76.6481 4.25954 77.2087 3.89211C77.7693 3.52469 78.4171 3.34098 79.1519 3.34098C79.7201 3.34098 80.1689 3.43567 80.4985 3.62507C80.8318 3.81067 81.0856 4.02279 81.2599 4.26143C81.4379 4.49628 81.5761 4.68946 81.6746 4.84098H81.7883V0.545521H83.1292V12.1819H81.8337V10.841H81.6746C81.5761 11.0001 81.436 11.2008 81.2542 11.4432C81.0724 11.6819 80.8129 11.8959 80.4758 12.0853C80.1386 12.2709 79.6898 12.3637 79.1292 12.3637ZM79.311 11.1592C79.8489 11.1592 80.3034 11.019 80.6746 10.7387C81.0458 10.4546 81.328 10.0626 81.5212 9.56257C81.7144 9.05878 81.811 8.47734 81.811 7.81825C81.811 7.16673 81.7163 6.59666 81.5269 6.10802C81.3375 5.6156 81.0572 5.23302 80.686 4.96029C80.3148 4.68378 79.8564 4.54552 79.311 4.54552C78.7428 4.54552 78.2693 4.69135 77.8905 4.98302C77.5155 5.2709 77.2333 5.66295 77.0439 6.15916C76.8583 6.65158 76.7655 7.20461 76.7655 7.81825C76.7655 8.43946 76.8602 9.00385 77.0496 9.51143C77.2428 10.0152 77.5269 10.4167 77.9019 10.716C78.2807 11.0114 78.7504 11.1592 79.311 11.1592ZM93.3167 12.3637C92.5288 12.3637 91.8375 12.1762 91.2428 11.8012C90.6519 11.4262 90.1898 10.9016 89.8564 10.2273C89.5269 9.5531 89.3621 8.76522 89.3621 7.8637C89.3621 6.95461 89.5269 6.16105 89.8564 5.48302C90.1898 4.80499 90.6519 4.27848 91.2428 3.90348C91.8375 3.52848 92.5288 3.34098 93.3167 3.34098C94.1046 3.34098 94.7939 3.52848 95.3849 3.90348C95.9796 4.27848 96.4417 4.80499 96.7712 5.48302C97.1046 6.16105 97.2712 6.95461 97.2712 7.8637C97.2712 8.76522 97.1046 9.5531 96.7712 10.2273C96.4417 10.9016 95.9796 11.4262 95.3849 11.8012C94.7939 12.1762 94.1046 12.3637 93.3167 12.3637ZM93.3167 11.1592C93.9152 11.1592 94.4076 11.0057 94.7939 10.6989C95.1803 10.3921 95.4663 9.9887 95.6519 9.4887C95.8375 8.9887 95.9303 8.44704 95.9303 7.8637C95.9303 7.28037 95.8375 6.73681 95.6519 6.23302C95.4663 5.72923 95.1803 5.32204 94.7939 5.01143C94.4076 4.70082 93.9152 4.54552 93.3167 4.54552C92.7182 4.54552 92.2258 4.70082 91.8394 5.01143C91.453 5.32204 91.1671 5.72923 90.9814 6.23302C90.7958 6.73681 90.703 7.28037 90.703 7.8637C90.703 8.44704 90.7958 8.9887 90.9814 9.4887C91.1671 9.9887 91.453 10.3921 91.8394 10.6989C92.2258 11.0057 92.7182 11.1592 93.3167 11.1592ZM100.409 6.93188V12.1819H99.0681V3.45461H100.364V4.81825H100.477C100.682 4.37507 100.992 4.01901 101.409 3.75007C101.826 3.47734 102.364 3.34098 103.023 3.34098C103.614 3.34098 104.131 3.46219 104.574 3.70461C105.017 3.94325 105.362 4.30688 105.608 4.79552C105.854 5.28037 105.977 5.89401 105.977 6.63643V12.1819H104.636V6.72734C104.636 6.04173 104.458 5.50764 104.102 5.12507C103.746 4.7387 103.257 4.54552 102.636 4.54552C102.208 4.54552 101.826 4.63832 101.489 4.82393C101.155 5.00954 100.892 5.28037 100.699 5.63643C100.506 5.99249 100.409 6.42431 100.409 6.93188ZM109.155 12.2728C108.874 12.2728 108.634 12.1724 108.433 11.9717C108.232 11.7709 108.132 11.5304 108.132 11.2501C108.132 10.9698 108.232 10.7292 108.433 10.5285C108.634 10.3277 108.874 10.2273 109.155 10.2273C109.435 10.2273 109.676 10.3277 109.876 10.5285C110.077 10.7292 110.177 10.9698 110.177 11.2501C110.177 11.4357 110.13 11.6061 110.035 11.7614C109.945 11.9167 109.821 12.0417 109.666 12.1364C109.515 12.2273 109.344 12.2728 109.155 12.2728ZM109.155 5.79552C108.874 5.79552 108.634 5.69514 108.433 5.49438C108.232 5.29363 108.132 5.0531 108.132 4.77279C108.132 4.49249 108.232 4.25196 108.433 4.0512C108.634 3.85045 108.874 3.75007 109.155 3.75007C109.435 3.75007 109.676 3.85045 109.876 4.0512C110.077 4.25196 110.177 4.49249 110.177 4.77279C110.177 4.9584 110.13 5.12885 110.035 5.28416C109.945 5.43946 109.821 5.56446 109.666 5.65916C109.515 5.75007 109.344 5.79552 109.155 5.79552Z" fill="#454745"/>
</svg>
