<svg width="40" height="40" viewBox="0 0 40 40" fill="none" xmlns="http://www.w3.org/2000/svg">
<rect width="40" height="40" rx="20" fill="#C3F53C"/>
<path d="M14.75 17.75V23.75M18.125 17.75V23.75M21.875 17.75V23.75M25.25 17.75V23.75M13.25 24.95L13.25 25.55C13.25 25.9701 13.25 26.1801 13.3317 26.3405C13.4037 26.4816 13.5184 26.5964 13.6595 26.6683C13.8199 26.75 14.03 26.75 14.45 26.75H25.55C25.97 26.75 26.1801 26.75 26.3405 26.6683C26.4816 26.5964 26.5963 26.4816 26.6683 26.3405C26.75 26.1801 26.75 25.9701 26.75 25.55V24.95C26.75 24.53 26.75 24.32 26.6683 24.1595C26.5963 24.0184 26.4816 23.9037 26.3405 23.8318C26.1801 23.75 25.97 23.75 25.55 23.75H14.45C14.03 23.75 13.8199 23.75 13.6595 23.8318C13.5184 23.9037 13.4037 24.0184 13.3317 24.1595C13.25 24.32 13.25 24.53 13.25 24.95ZM19.7397 13.3079L14.1897 14.5412C13.8544 14.6157 13.6867 14.653 13.5616 14.7431C13.4512 14.8226 13.3645 14.9307 13.3109 15.0557C13.25 15.1974 13.25 15.3691 13.25 15.7126L13.25 16.55C13.25 16.9701 13.25 17.1801 13.3317 17.3405C13.4037 17.4816 13.5184 17.5964 13.6595 17.6683C13.8199 17.75 14.03 17.75 14.45 17.75H25.55C25.97 17.75 26.1801 17.75 26.3405 17.6683C26.4816 17.5964 26.5963 17.4816 26.6683 17.3405C26.75 17.1801 26.75 16.9701 26.75 16.55V15.7126C26.75 15.3691 26.75 15.1974 26.6891 15.0557C26.6355 14.9307 26.5488 14.8226 26.4384 14.7431C26.3133 14.653 26.1456 14.6157 25.8103 14.5412L20.2603 13.3079C20.1632 13.2863 20.1146 13.2755 20.0655 13.2712C20.0219 13.2674 19.9781 13.2674 19.9345 13.2712C19.8854 13.2755 19.8368 13.2863 19.7397 13.3079Z" stroke="#002C15" stroke-width="1.5" stroke-linecap="round" stroke-linejoin="round"/>
</svg>
