<svg width="24" height="24" viewBox="0 0 24 24" fill="none" xmlns="http://www.w3.org/2000/svg">
<g clip-path="url(#clip0_6579_162215)">
<mask id="mask0_6579_162215" style="mask-type:luminance" maskUnits="userSpaceOnUse" x="0" y="0" width="24" height="24">
<path d="M24 12C24 5.37258 18.6274 0 12 0C5.37258 0 0 5.37258 0 12C0 18.6274 5.37258 24 12 24C18.6274 24 24 18.6274 24 12Z" fill="white"/>
</mask>
<g mask="url(#mask0_6579_162215)">
<path d="M24 12C24 5.37258 18.6274 0 12 0C5.37258 0 0 5.37258 0 12C0 18.6274 5.37258 24 12 24C18.6274 24 24 18.6274 24 12Z" fill="white"/>
<mask id="mask1_6579_162215" style="mask-type:luminance" maskUnits="userSpaceOnUse" x="0" y="0" width="24" height="24">
<path d="M12 24C18.6274 24 24 18.6274 24 12C24 5.37258 18.6274 0 12 0C5.37258 0 0 5.37258 0 12C0 18.6274 5.37258 24 12 24Z" fill="white"/>
</mask>
<g mask="url(#mask1_6579_162215)">
<path d="M0 0H24V24H0V0Z" fill="white"/>
<path d="M12 0H0V12.9338H12V0Z" fill="#231D9A"/>
<path d="M7.75329 3.17005L8.65625 2.26709L7.75329 1.36413L6.85033 2.26709L7.75329 3.17005Z" fill="white"/>
<path d="M7.75329 6.82215L8.65625 5.91919L7.75329 5.01623L6.85033 5.91919L7.75329 6.82215Z" fill="white"/>
<path d="M7.75329 10.474L8.65625 9.57104L7.75329 8.66808L6.85033 9.57104L7.75329 10.474Z" fill="white"/>
<path d="M2.93688 3.17005L3.83984 2.26709L2.93688 1.36413L2.03392 2.26709L2.93688 3.17005Z" fill="white"/>
<path d="M2.93688 6.82215L3.83984 5.91919L2.93688 5.01623L2.03392 5.91919L2.93688 6.82215Z" fill="white"/>
<path d="M2.93688 10.474L3.83984 9.57104L2.93688 8.66808L2.03392 9.57104L2.93688 10.474Z" fill="white"/>
<path d="M10.1595 4.99598L11.0625 4.09302L10.1595 3.19006L9.25658 4.09302L10.1595 4.99598Z" fill="white"/>
<path d="M10.1595 1.34437L11.0625 0.441406L10.1595 -0.461555L9.25658 0.441407L10.1595 1.34437Z" fill="white"/>
<path d="M10.1595 8.64783L11.0625 7.74487L10.1595 6.84191L9.25658 7.74487L10.1595 8.64783Z" fill="white"/>
<path d="M10.1595 12.2999L11.0625 11.397L10.1595 10.494L9.25658 11.397L10.1595 12.2999Z" fill="white"/>
<path d="M5.34509 4.99598L6.24805 4.09302L5.34509 3.19006L4.44212 4.09302L5.34509 4.99598Z" fill="white"/>
<path d="M5.34509 8.64783L6.24805 7.74487L5.34509 6.84191L4.44212 7.74487L5.34509 8.64783Z" fill="white"/>
<path d="M5.34509 12.2999L6.24805 11.397L5.34509 10.494L4.44212 11.397L5.34509 12.2999Z" fill="white"/>
<path d="M0.528679 4.99598L1.43164 4.09302L0.52868 3.19006L-0.374282 4.09302L0.528679 4.99598Z" fill="white"/>
<path d="M0.528679 8.64783L1.43164 7.74487L0.528679 6.84191L-0.374282 7.74487L0.528679 8.64783Z" fill="white"/>
<path d="M0.528679 12.2999L1.43164 11.397L0.52868 10.494L-0.374282 11.397L0.528679 12.2999Z" fill="white"/>
<path d="M29.7182 -0.123047H12V1.74203H29.7182V-0.123047Z" fill="#F0263C"/>
<path d="M25.0555 3.60718H12V5.47226H25.0555V3.60718Z" fill="#F0263C"/>
<path d="M25.0555 7.33716H12V9.20224H25.0555V7.33716Z" fill="#F0263C"/>
<path d="M29.7182 11.0674H12V12.9325H29.7182V11.0674Z" fill="#F0263C"/>
<path d="M29.625 14.7976H0.25V16.6627H29.625V14.7976Z" fill="#F0263C"/>
<path d="M29.625 18.5276H0.25V20.3927H29.625V18.5276Z" fill="#F0263C"/>
<path d="M29.625 22.2581H0.25V24.1231H29.625V22.2581Z" fill="#F0263C"/>
</g>
</g>
</g>
<defs>
<clipPath id="clip0_6579_162215">
<rect width="24" height="24" fill="white"/>
</clipPath>
</defs>
</svg>
