<svg width="40" height="40" viewBox="0 0 40 40" fill="none" xmlns="http://www.w3.org/2000/svg">
<rect x="0.5" y="0.5" width="39" height="39" rx="19.5" fill="white"/>
<rect x="0.5" y="0.5" width="39" height="39" rx="19.5" stroke="#C9CBCE"/>
<path d="M16.7054 25.3645H13.5478C13.5287 25.3641 13.51 25.3588 13.4935 25.3491C13.4769 25.3394 13.4629 25.3256 13.4528 25.309L11.4108 21.9277L9.36874 25.309C9.35871 25.3256 9.34476 25.3395 9.32817 25.3492C9.31157 25.3589 9.29286 25.3642 9.27376 25.3645H6.1143C6.09358 25.3645 6.07326 25.3587 6.0555 25.3477C6.03774 25.3368 6.02321 25.3211 6.01346 25.3023C6.00371 25.2836 5.99911 25.2625 6.00014 25.2412C6.00117 25.22 6.0078 25.1994 6.01932 25.1818L9.81039 19.4025L6.06586 13.8192C6.05408 13.8015 6.04724 13.7809 6.04608 13.7595C6.04491 13.7381 6.04946 13.7168 6.05924 13.6979C6.06902 13.679 6.08366 13.6632 6.10157 13.6522C6.11947 13.6412 6.13997 13.6354 6.16084 13.6355H9.33692C9.35593 13.6357 9.37458 13.6409 9.39117 13.6504C9.40776 13.6599 9.42176 13.6736 9.4319 13.6901L11.4098 16.9174L13.374 13.7096C13.3879 13.687 13.4072 13.6683 13.43 13.6555C13.4529 13.6426 13.4785 13.6359 13.5046 13.636H16.6593C16.6802 13.6357 16.7008 13.6414 16.7188 13.6523C16.7369 13.6633 16.7516 13.6791 16.7614 13.6981C16.7712 13.7171 16.7757 13.7385 16.7745 13.7599C16.7732 13.7814 16.7662 13.802 16.7543 13.8197L13.0088 19.4025L16.8003 25.1818C16.8119 25.1994 16.8185 25.22 16.8195 25.2412C16.8205 25.2625 16.8159 25.2836 16.8062 25.3023C16.7964 25.3211 16.7819 25.3368 16.7642 25.3477C16.7464 25.3587 16.7261 25.3645 16.7054 25.3645ZM22.7925 8.00001C21.2477 7.99824 19.7194 8.32513 18.3039 8.96003C16.8885 9.59494 15.6167 10.5241 14.5688 11.6888C14.5619 11.6973 14.5574 11.7077 14.5559 11.7188C14.5545 11.7298 14.5561 11.741 14.5605 11.7512C14.565 11.7614 14.5721 11.77 14.5811 11.7762C14.5902 11.7824 14.6007 11.7859 14.6116 11.7862H15.1073C15.1346 11.7861 15.1609 11.7759 15.1814 11.7575C17.0339 10.1046 19.4078 9.19741 21.8627 9.2041C27.4569 9.2041 31.9917 13.8138 31.9917 19.5C31.9917 25.1862 27.4569 29.7959 21.8627 29.7959C19.4079 29.8008 17.0346 28.8923 15.1829 27.2386C15.1623 27.2202 15.136 27.21 15.1088 27.2099H14.6116C14.6007 27.2102 14.5902 27.2137 14.5811 27.2199C14.5721 27.2261 14.565 27.2347 14.5605 27.2449C14.5561 27.2551 14.5545 27.2663 14.5559 27.2773C14.5574 27.2884 14.5619 27.2988 14.5688 27.3073C15.6163 28.4727 16.888 29.4026 18.3034 30.0382C19.7189 30.6738 21.2475 31.0013 22.7925 31C28.9809 31 34 25.8518 34 19.5C34 13.1482 28.9809 8.00001 22.7925 8.00001ZM27.2366 20.5423H18.7911C18.8652 21.858 19.9959 22.9895 21.6347 22.9895C22.897 22.9895 23.7015 22.4744 24.1897 21.6831C24.2046 21.6579 24.2283 21.6394 24.2559 21.6314C24.2836 21.6233 24.3132 21.6263 24.3388 21.6397L26.4734 22.7765C26.4877 22.784 26.5003 22.7945 26.5103 22.8073C26.5204 22.8201 26.5277 22.835 26.5318 22.8509C26.5359 22.8667 26.5368 22.8834 26.5342 22.8996C26.5317 22.9158 26.5259 22.9313 26.5171 22.9451C25.5008 24.521 23.7551 25.5624 21.6181 25.5624H21.6025C18.2193 25.5624 15.9037 23.0221 15.9037 19.4981C15.9037 15.974 18.2203 13.4338 21.6025 13.4338C24.9846 13.4338 27.4223 16.1509 27.4223 19.5C27.4234 19.8062 27.4014 20.1119 27.3567 20.4146C27.3458 20.4746 27.3045 20.5443 27.2366 20.5443V20.5423ZM24.5834 18.1682C24.4067 17.4227 23.5543 16.0061 21.7392 16.0061C19.9959 16.0061 19.0993 17.1269 18.8865 18.1682H24.5834Z" fill="#0A146E"/>
</svg>
